<?xml version="1.0" standalone="no"?>
<!DOCTYPE svg PUBLIC "-//W3C//DTD SVG 1.1//EN" "http://www.w3.org/Graphics/SVG/1.1/DTD/svg11.dtd" >
<svg xmlns="http://www.w3.org/2000/svg">
<metadata>Generated by IcoMoon</metadata>
<defs>
<font id="icomoon" horiz-adv-x="1024">
<font-face units-per-em="1024" ascent="960" descent="-64" />
<missing-glyph horiz-adv-x="1024" />
<glyph unicode="&#x20;" horiz-adv-x="512" d="" />
<glyph unicode="&#xe600;" glyph-name="uniE600" d="M0 960v-1024h1024v1024h-1024zM375 754.2c29 2.2 52-2.8 55-14.4 0.8-4.4-1.4-8-8.6-11.6-9.4 5-29.6 8-46.4 6.6-18-1.4-33.2-7.2-31.2-19.6 2.8-12.2 20.2-19.6 51.4-16.6 76 6.6 75.2 57.8 186.6 68 86.8 8 135.2-18.8 141.8-51.4 5-25.4-16-50-78.8-55-55.8-5-88.2 10.2-91.2 25.4-1.4 8 2.8 19.6 29.6 22.4 2.8-12.2 18-25.4 54.2-21.8 26 2.2 47.8 11.6 44.8 26-2.8 15.2-30.4 23.8-73.8 20.2-88.2-8-110-56.4-185.2-63-53.6-5-97 14.4-102.8 43.4-1.8 11-1.8 36.4 54.6 41.4zM218 709.4c-13-9.4-17.4-17.4-17.4-26.8 0-22.4 34-39.8 98.4-55.8 60-13 143.2-22.4 236.6-22.4 97 0 176.6 9.4 238.8 23.2 67.2 15.2 100.6 33.2 100.6 55.8 0 8-5 15.2-11.6 19.6 29-11.6 44.8-26.8 44.8-42.6 0-21.8-35.4-44.8-109.2-62.2-69.4-17.4-156.2-26.8-265.6-26.8-107 0-196 9.4-265.6 26.8-73.8 17.4-110 39.8-112.2 62.2 0.2 20 22 33.2 62.4 49zM836 376.6c-26.8-40.6-53.6-75.4-80.4-113.8-10.8-22.4-18-44.8-22.4-66.8h-2.2c-18-26-42.6-40.6-71.6-50-39-13-81.8-20-122.2-18h-4.4c-40.6-2-80.4 3.8-118.6 17.6-31.2 8.6-56.4 24.8-73.8 49.4-5 22.4-13 45-24.6 67.4-26.8 38.4-53.6 73.8-80.4 114.4-12.2 22.4-23.4 46-33.4 70.4-4.4-4-8.4-8.4-12.2-13.2-17.4-25.4-23.8-54.2-17.4-85.4 4.4-33.2 22.4-60.8 49.2-80.4 24.6-19.6 49.2-29 78.2-29-13.8-4.4-29-11.6-42.6-13.8-35.4-6.6-66.6 0-95.6 22.4-27.4 22.4-44.8 51.4-47 86.8s8.6 71.6 33.2 102.8c13 16.6 27.4 29.4 43.2 38.8-13.2 37.6-23.4 77-29.4 117.4 11.6-18 44.8-35.4 107-51.4 69.4-15.2 158.4-26.8 267.8-26.8 107 0 196 10.8 265.6 26.8 60 13.8 93.4 31.2 107.8 51.4-13.8-78.8-38.4-152.6-73.8-217z" />
<glyph unicode="&#xe601;" glyph-name="uniE601" d="M430 739.8c0.8-4.4-1.4-8-8.6-11.6-9.4 5-29.6 8-46.4 6.6-18-1.4-33.2-7.2-31.2-19.6 2.8-12.2 20.2-19.6 51.4-16.6 76 6.6 75.2 57.8 186.6 68 86.8 8 135.2-18.8 141.8-51.4 5-25.4-16-50-78.8-55-55.8-5-88.2 10.2-91.2 25.4-1.4 8 2.8 19.6 29.6 22.4 2.8-12.2 18-25.4 54.2-21.8 26 2.2 47.8 11.6 44.8 26-2.8 15.2-30.4 23.8-73.8 20.2-88.2-8-110-56.4-185.2-63-53.6-5-97 14.4-102.8 43.4-2.2 10.8-2.2 36.2 54.2 41.2 29.4 2.4 52.6-2.6 55.4-14.2zM147.8 437.4c-24.6-31.2-35.4-67.2-33.2-102.8 2.2-35.4 19.6-64.4 47-86.8 29-22.4 60-29 95.6-22.4 13.8 2.2 29 9.4 42.6 13.8-29 0-53.6 9.4-78.2 29-26.8 19.6-44.8 47-49.2 80.4-6.6 31.2 0 60 17.4 85.4 19.6 24.6 44.8 38.4 78.2 42.6 33.2 2.2 62.2-6.6 91.2-26.8-6.6 9.4-16 16-24.6 24.6-29 19.6-60 29-98.4 19.6-34.8-7.4-63.8-25.6-88.4-56.6zM535.6 604.6c-93.4 0-176.6 9.4-236.6 22.4-64.4 16-98.4 33.2-98.4 55.8 0 9.4 4.4 17.4 17.4 26.8-40.6-16-62.2-29-62.2-49.2 2.2-22.6 38.4-45 112.2-62.4 69.4-17.4 158.4-26.8 265.6-26.8 109.2 0 196 9.4 265.6 26.8 73.8 17.4 109.2 40.6 109.2 62.2 0 16-16 31.2-44.8 42.6 6.6-4.4 11.6-11.6 11.6-19.6 0-22.4-33.2-40.6-100.6-55.8-62.4-13.4-142-22.8-239-22.8zM802 542.2c-69.4-16-158.4-26.8-265.6-26.8-109.2 0-198.2 11.6-267.8 26.8-62.2 16-95.6 33.2-107 51.4 11.6-78.2 38.4-152 73.8-217 26.8-40.6 53.6-76 80.4-114.4 11.6-22.4 19.6-44.8 24.6-67.2 17.4-24.6 42.6-40.6 73.8-49.2 38.4-13.8 78.2-19.6 118.6-17.4h4.4c40.6-2.2 83.2 4.4 122.2 17.4 29 9.4 53.6 24.6 71.6 49.2h2.2c4.4 22.4 11.6 44.8 22.4 67.2 26.8 38.4 53.6 73.8 80.4 114.4 35.4 64.4 60 138.2 73.8 217-14.6-20.2-47.8-37.6-107.8-51.4z" />
<glyph unicode="&#xe602;" glyph-name="uniE602" d="M509.4 582l-194.8-75.6 9.8-100.4h272.6l-7.4-99.6-80.2-24.6-77.4 24.6-7.6 49.6h-92.4l12.4-124.4 167.6-49.8 167.6 49.6 25 274.6h-192.6l200 75.6 7.4 100.4h-419.8l9.8-100zM0 960v-1024h1024v1024h-1024zM797 109.6l-285-77.6-285 77.6-65 722.4h700l-65-722.4z" />
<glyph unicode="&#xe603;" glyph-name="uniE603" d="M162 832l65-722.4 285-77.6 285 77.6 65 722.4h-700zM712 582l-200-75h192.6l-25-275-167.6-50-167.6 50-12.4 125h92.6l7.4-50 77.6-25 80 25 7.4 100h-272.6l-10 100 195 75h-200l-10 100h420l-7.4-100z" />
<glyph unicode="&#xe604;" glyph-name="uniE604" d="M0 960v-1024h1024v1024h-1024zM720 716h-75.6c-59 0-70.4-28.8-70.4-70v-90h140.6l-18.4-144h-122.2v-364h-146v364h-124v144h124v104c0 121.8 74 188 182.6 188 52 0 95.4-3.8 109.4-5.6v-126.4z" />
<glyph unicode="&#xe605;" glyph-name="uniE605" d="M574 48v365h122.4l18.4 142.2h-140.8v90.8c0 41.2 11.4 69.2 70.4 69.2h75.4v127.2c-13.4 1.8-57.8 5.6-109.8 5.6-108.6 0-182.8-66.2-182.8-188v-104.8h-122.8v-142.2h122.8v-365h146.8z" />
<glyph unicode="&#xe606;" glyph-name="uniE606" d="M0 960v-1024h1024v1024h-1024zM643.2 44.6c-21-4-28.4 8.8-28.4 19.8 0 13.6 0.4 58.2 0.4 113.8 0 38.6-13.2 63.8-28.2 76.8 92.2 10.2 189.2 45.4 189.2 204.6 0 45.2-16 82.2-42.6 111.2 4.4 10.4 18.4 52.6-4 109.6 0 0-34.8 11.2-113.8-42.4-33.2 9.2-68.6 13.8-103.8 14-35.2-0.2-70.6-4.8-103.8-14-79.2 53.6-114 42.4-114 42.4-22.6-57-8.4-99.2-4-109.6-26.6-29-42.8-66-42.8-111.2 0-158.8 96.8-194.4 188.8-204.8-11.8-10.4-22.6-28.6-26.4-55.4-23.6-10.6-83.6-29-120.6 34.4 0 0-22 39.8-63.6 42.8 0 0-40.4 0.6-2.8-25.2 0 0 27.2-12.8 46-60.6 0 0 24.4-74 139.6-49 0.2-34.6 0.6-67.2 0.6-77.2 0-11-7.6-23.8-28.4-20-164.4 54.6-283 210-283 393.2 0 229 185.6 414.4 414.4 414.4 229 0 414.4-185.6 414.4-414.4 0-183-118.6-338.4-283.2-393.2zM398.6 173.4c-4.8-0.8-9.2 1.2-9.8 4.4-0.6 3.4 2.8 6.8 7.6 7.8 4.8 0.8 9.2-1.2 10-4.6 0.6-3.4-2.8-6.8-7.8-7.6zM374.8 175.6c0.2-3.4-3.8-6.2-8.8-6.4s-9 2.6-9 6c0 3.4 3.8 6.2 8.8 6.4s9-2.6 9-6zM341 178c-1-3.2-5.6-4.8-10.4-3.4-4.6 1.4-7.8 5.2-6.8 8.4s5.6 4.8 10.4 3.4c4.6-1.2 7.6-5 6.8-8.4zM310 191.4c-2.2-2.6-7.2-1.8-10.6 1.6-3.6 3.4-4.6 8-2.4 10.6 2.4 2.6 7.2 1.8 10.8-1.6 3.6-3.2 4.6-8 2.2-10.6zM287.6 214.6c-2.6-1.8-6.6-0.2-9.2 3.6-2.6 3.6-2.6 8.2 0 9.8 2.6 1.8 6.6 0.2 9.2-3.4 2.6-3.8 2.6-8.2 0-10zM271.4 238.4c-2-1.8-5.8-1-8.4 2-2.8 2.8-3.2 6.8-1.2 8.6s5.8 1 8.4-2c2.6-2.8 3.2-6.8 1.2-8.6zM254.6 257.2c-1-2-4.2-2.6-7.2-1.2s-4.6 4.2-3.8 6.2c0.8 2.2 4.2 2.8 7.2 1.2 3-1.4 4.8-4.2 3.8-6.2z" />
<glyph unicode="&#xe607;" glyph-name="uniE607" d="M512 852.2c-228.8 0-414.4-185.6-414.4-414.4 0-183.2 118.8-338.4 283.4-393.2 20.8-3.8 28.4 9 28.4 20 0 9.8-0.4 42.6-0.6 77.2-115.4-25-139.6 49-139.6 49-18.8 48-46 60.6-46 60.6-37.6 25.8 2.8 25.2 2.8 25.2 41.6-3 63.6-42.8 63.6-42.8 37-63.4 97-45 120.6-34.4 3.8 26.8 14.4 45 26.4 55.4-92 10.4-188.8 46-188.8 204.8 0 45.2 16.2 82.2 42.8 111.2-4.4 10.4-18.4 52.6 4 109.6 0 0 34.8 11.2 114-42.4 33 9.2 68.6 13.8 103.8 14 35.2-0.2 70.8-4.8 103.8-14 79.2 53.6 113.8 42.4 113.8 42.4 22.6-57 8.4-99.2 4-109.6 26.6-29 42.6-66 42.6-111.2 0-159.2-97-194.2-189.2-204.6 14.8-12.8 28.2-38 28.2-76.8 0-55.4-0.4-100-0.4-113.8 0-11 7.4-24 28.4-19.8 164.6 54.8 283.2 210.2 283.2 393.2-0.4 228.8-185.8 414.4-414.8 414.4zM254.6 257.2c-1-2-4.2-2.6-7.2-1.2s-4.6 4.2-3.8 6.2c0.8 2.2 4.2 2.8 7.2 1.2 3-1.4 4.8-4.2 3.8-6.2v0zM271.4 238.4c-2-1.8-5.8-1-8.4 2-2.8 2.8-3.2 6.8-1.2 8.6s5.8 1 8.4-2c2.6-2.8 3.2-6.8 1.2-8.6v0zM287.6 214.6c-2.6-1.8-6.6-0.2-9.2 3.6-2.6 3.6-2.6 8.2 0 9.8 2.6 1.8 6.6 0.2 9.2-3.4 2.6-3.8 2.6-8.2 0-10v0zM310 191.4c-2.2-2.6-7.2-1.8-10.6 1.6-3.6 3.4-4.6 8-2.4 10.6 2.4 2.6 7.2 1.8 10.8-1.6 3.6-3.2 4.6-8 2.2-10.6v0zM341 178c-1-3.2-5.6-4.8-10.4-3.4-4.6 1.4-7.8 5.2-6.8 8.4s5.6 4.8 10.4 3.4c4.6-1.2 7.6-5 6.8-8.4v0zM374.8 175.6c0.2-3.4-3.8-6.2-8.8-6.4s-9 2.6-9 6c0 3.4 3.8 6.2 8.8 6.4s9-2.6 9-6v0zM406.4 181c0.6-3.4-2.8-6.8-7.8-7.6-4.8-0.8-9.2 1.2-9.8 4.4-0.6 3.4 2.8 6.8 7.6 7.8 5 0.8 9.4-1.2 10-4.6v0z" />
<glyph unicode="&#xe608;" glyph-name="uniE608" d="M437.8 342.2c-8.6 1-13.6 1-24 1-9.4 0-65.6-2.2-109.4-16.8-23-8.6-89.6-33.4-89.6-107.4s71.6-127.2 183.2-127.2c100 0 153 48 153.4 112.6 0 53.4-34.4 81.2-113.6 137.8zM493.4 616c0 75-45 192-131.2 192-27 0-56.2-13.4-72.8-34.4-17.6-21.8-22.8-49.8-22.8-77.2 0-69.8 40.6-185.6 130.2-185.6 26.2 0 54 12.4 70.4 28.8 24 24.2 26.2 57.6 26.2 76.4zM0 960v-1024h1024v1024h-1024zM347 48.2c-151 0-223.8 72-223.8 149.2 0 37.6 18.8 90.8 80.2 127.2 64.4 39.4 152.2 44.6 199 48-14.6 18.6-31.2 38.6-31.2 70.8 0 17.6 5.2 28.2 10.4 40.6-11.6-1.2-23-2.2-33.4-2.2-110.2 0-172.8 82.6-172.8 164 0 48 21.8 101.2 66.6 139.8 59.2 49 140.2 62.4 196.4 62.4h205.2l-67.6-42h-64.4c24-20 73.8-62 73.8-141.2 0-77.2-43.8-114-87.4-148.4-13.6-13.4-29.2-28-29.2-51.2 0-23 15.4-35.6 27-45l37.6-29.2c45.6-38.6 87.4-74.2 87.4-145.8 0-98-94.6-197-273.8-197zM900 460h-104v-104h-52v104h-104v52h104v104h52v-104h104v-52z" />
<glyph unicode="&#xe609;" glyph-name="uniE609" d="M533.319 391.030l-37.655 29.152c-11.539 9.414-27.027 21.864-27.027 44.943s15.487 37.655 29.152 51.016c43.728 34.315 87.457 71.058 87.457 148.19 0 79.258-49.802 121.164-73.791 140.902h64.378l67.718 42.514h-205.28c-56.179 0-137.258-13.361-196.777-62.252-44.639-38.566-66.503-91.708-66.503-139.688 0-81.383 62.556-163.981 172.787-163.981 10.325 0 21.864 0.911 33.404 2.126-5.162-12.45-10.325-23.079-10.325-40.692 0-32.189 16.702-52.231 31.278-70.755-46.765-3.34-134.525-8.503-198.903-47.98-61.341-36.44-80.169-89.582-80.169-127.237 0-77.132 72.88-149.101 223.804-149.101 179.165 0 273.909 98.996 273.909 197.081 0 71.666-41.906 107.195-87.457 145.761v0zM396.668 510.979c-89.582 0-130.274 115.698-130.274 185.542 0 27.33 5.162 55.268 22.775 77.132 16.702 20.953 45.854 34.315 72.88 34.315 86.242 0 131.185-116.912 131.185-191.919 0-18.827-2.126-52.231-26.116-76.221-16.398-16.398-44.336-28.849-70.451-28.849v0zM397.883 91.613c-111.446 0-183.112 53.142-183.112 127.237s66.503 98.996 89.582 107.499c43.728 14.576 99.907 16.702 109.321 16.702 10.325 0 15.487 0 23.99-0.911 79.258-56.482 113.572-84.42 113.572-137.866-0.304-64.681-53.446-112.661-153.353-112.661v0zM795.992 355.501v105.069h104.766v52.231h-104.766v104.158h-51.32v-104.158h-104.158v-52.231h104.158v-105.069z" />
<glyph unicode="&#xe60a;" glyph-name="uniE60A" d="M0 960v-1024h1024v1024h-1024zM797 109.6l-285-77.6-285 77.6-65 722.4h700l-65-722.4zM324.4 406h272.6l-10-99.6-77.6-24.6-77.4 24.6-5 49.6h-95l12.4-124.4 167.6-49.8 167.6 49.6 25 274.6h-287.6l-5 76h300l7.4 100h-419.8l9.8-100.4z" />
<glyph unicode="&#xe60b;" glyph-name="uniE60B" d="M162 832l65-722.4 285-77.6 285 77.6 65 722.4h-700zM712 582h-300l5-75h287.6l-25-275-167.6-50-167.6 50-12.4 125h95l5-50 77.6-25 77.6 25 10 100h-272.8l-15 175-10 100h420l-7.4-100z" />
<glyph unicode="&#xe60c;" glyph-name="uniE60C" d="M0 960v-1024h1024v1024h-1024zM454 518.6c0-132.6-0.2-203-1-209.4-7.8-62.4-37-104.2-87.2-124.6-41.8-16.8-98.8-18.2-143.2-3.4-42 14-77 44.4-97.2 84.6l-3.4 6.8 44.6 27c24.4 14.8 44.8 27 45.4 27.2 0.4 0.2 3.4-4.2 6.6-9.8 20.2-34.6 37.6-46.8 66.6-46.6 20.4 0.2 32.4 4 42 13.6 6.8 6.8 10.6 14 13.8 26.4l2.4 9.4 0.4 199.2 0.2 199h110v-199.4zM860 220.4c-26.4-25.6-60.6-40.8-106.2-47.2-18.2-2.4-53.6-2.6-72.6 0-72.4 9.6-126 43.4-160.2 101.2-4.4 7.2-5.2 9.6-4.2 10.6 1.8 1.6 87.6 51.2 88.6 51.2 0.4 0 3.8-4.2 7.4-9.4 26.4-39 59.2-57 103.2-57 26 0 47 7.2 60.2 20.6 4 4 8.4 9.8 10 13.2 8.6 18 4.8 41.6-9 56.4-11.2 12-28.6 21.6-75.6 41.8-34.6 14.8-54.4 24.4-69.2 33.2-57.6 34.8-83.4 78.8-83.4 141.8 0 42 13 75.2 40.4 102.4 26.6 26.4 62.4 41.8 105 45 16.2 1.2 18.4 1.2 35.6-0.2 35-2.6 61.4-11 86.2-27.6 13.4-9 33-29.2 43.8-45.4 5.2-7.6 9.2-14.2 9.2-14.6 0-0.8-82-53.8-84.8-55-1-0.4-3.6 2.8-7 8.2-3 4.8-9.6 12.8-14.6 17.8-14.4 14.4-28.4 20-50.2 20-19.2 0.2-31.6-4.8-42.2-16.4-7.4-8-10.8-16.2-11.6-28.4-0.8-15.4 3.2-27.6 13-38.2 10.2-11 25.8-19.4 72.2-39.4 61.4-26.4 92.2-44.6 116-68.8 12.4-12.6 19.6-22.6 26.8-37.6 10.4-21.8 15.2-43.8 15.2-72 0-43.8-13.8-79-42-106.2z" />
<glyph unicode="&#xe60d;" glyph-name="uniE60D" d="M886.8 398.8c10.4-21.8 15.2-43.8 15.2-72 0-44.2-13.8-79.2-42-106.4-26.4-25.6-60.6-40.8-106.2-47.2-18.2-2.4-53.6-2.6-72.6 0-72.4 9.6-126 43.4-160.2 101.2-4.4 7.2-5.2 9.6-4.2 10.6 1.8 1.6 87.6 51.2 88.6 51.2 0.4 0 3.8-4.2 7.4-9.4 26.4-39 59.2-57 103.2-57 26 0 47 7.2 60.2 20.6 4 4 8.4 9.8 10 13.2 8.6 18 4.8 41.6-9 56.4-11.2 12-28.6 21.6-75.6 41.8-34.6 14.8-54.4 24.4-69.2 33.2-57.6 34.8-83.4 78.8-83.4 141.8 0 42 13 75.2 40.4 102.4 26.6 26.4 62.4 41.8 105 45 16.2 1.2 18.4 1.2 35.6-0.2 35-2.6 61.4-11 86.2-27.6 13.4-9 33-29.2 43.8-45.4 5.2-7.6 9.2-14.2 9.2-14.6 0-0.8-82-53.8-84.8-55-1-0.4-3.6 2.8-7 8.2-3 4.8-9.6 12.8-14.6 17.8-14.4 14.4-28.4 20-50.2 20-19.2 0.2-31.6-4.8-42.2-16.4-7.4-8-10.8-16.2-11.6-28.4-0.8-15.4 3.2-27.6 13-38.2 10.2-11 25.8-19.4 72.2-39.4 61.4-26.4 92.2-44.6 116-68.8 12.4-12.4 19.6-22.4 26.8-37.4zM399.2 718.4h55.2v-199.8c0-132.6-0.4-203-1.2-209.4-7.8-62.4-37.2-104.2-87.4-124.6-41.8-16.8-98.8-18.2-143.4-3.4-42 14-77 44.4-97.2 84.6l-3.4 6.8 44.6 27c24.4 14.8 44.8 27 45.4 27.2 0.4 0.2 3.2-4.2 6.6-9.8 20.2-34.6 37.6-46.8 66.6-46.6 20.4 0.2 32.4 4 42 13.6 6.8 6.8 10.6 14 13.8 26.4l2.4 9.4 0.4 199.4 0.4 199.2h55.2z" />
<glyph unicode="&#xe60e;" glyph-name="uniE60E" d="M0 960v-1024h1024v1024h-1024zM294 66h-172v516h172v-516zM208 652h-1.2c-57.4 0-94.8 39.8-94.8 89.2 0 50.6 38.2 89.2 97 89.2s94.8-38.6 96-89.2c0-49.4-37.2-89.2-97-89.2zM912 66h-172v275.8c0 69.2-24.6 116.6-86.6 116.6-47.2 0-75.4-32-87.8-62.8-4.4-11.2-5.4-26.4-5.4-42v-287.6h-171.4c0 0 2.2 466 0 516h171.2v-73.6c22 35.2 63.6 85.2 154.6 85.2 112.8 0 197.4-73.6 197.4-231.8v-295.8z" />
<glyph unicode="&#xe60f;" glyph-name="uniE60F" d="M121.929 581.399h171.539v-515.86h-171.539v515.86zM208.942 830.316c-58.733 0-96.957-38.534-96.957-89.188 0-49.411 37.291-89.188 94.781-89.188h1.243c59.666 0 96.957 39.777 96.957 89.188-1.243 50.654-37.291 89.188-96.025 89.188v0zM714.546 593.518c-91.052 0-131.762-50.032-154.447-85.148v73.028h-171.539c2.175-48.478 0-515.86 0-515.86h171.539v288.074c0 15.538 1.243 30.765 5.594 41.952 12.43 30.765 40.709 62.773 87.945 62.773 62.152 0 87.012-47.235 87.012-116.535v-275.954h171.228v295.842c0 158.176-84.526 231.826-197.332 231.826z" />
<glyph unicode="&#xe610;" glyph-name="uniE610" d="M0 960v-1024h1024v1024h-1024zM573.6 269.8c-49.6 0-96.2 26.8-112.2 57.2 0 0-26.8-105.8-32.4-126.2-20-72.2-78.4-144.4-83-150.4-3.2-4.2-10.2-2.8-11 2.6-1.2 9.2-16.2 100.2 1.4 174.6 9 37.4 59.2 250.4 59.2 250.4s-14.6 29.4-14.6 72.8c0 68.2 39.4 119 88.6 119 41.8 0 62-31.4 62-69 0-42-26.8-104.8-40.6-163-11.4-48.8 24.6-88.6 72.6-88.6 87 0 145.6 111.8 145.6 244.4 0 100.6-67.8 176-191.2 176-139.4 0-226.2-103.8-226.2-220 0-40.2 11.8-68.4 30.4-90.2 8.4-10 9.6-14 6.6-25.6-2.2-8.4-7.2-28.8-9.4-36.8-3-11.6-12.4-15.8-23-11.4-64 26.2-94 96.6-94 175.6 0 130.4 110 287 328.4 287 175.4 0 290.8-127 290.8-263.6 0-180.2-100.2-314.8-248-314.8z" />
<glyph unicode="&#xe611;" glyph-name="uniE611" d="M530.8 848.2c-218.4 0-328.4-156.6-328.4-287 0-79 30-149.4 94-175.6 10.6-4.4 20-0.2 23 11.4 2.2 8 7.2 28.4 9.4 36.8 3 11.6 1.8 15.6-6.6 25.6-18.6 21.8-30.4 50-30.4 90.2 0 116.2 86.8 220 226.2 220 123.4 0 191.2-75.4 191.2-176 0-132.6-58.6-244.4-145.6-244.4-48 0-84 39.8-72.6 88.6 13.8 58.2 40.6 121 40.6 163 0 37.6-20.2 69-62 69-49.2 0-88.6-50.8-88.6-119 0-43.4 14.6-72.8 14.6-72.8s-50.2-213-59.2-250.4c-17.6-74.4-2.6-165.4-1.4-174.6 0.8-5.4 7.8-6.8 11-2.6 4.6 6 63 78.2 83 150.4 5.6 20.4 32.4 126.2 32.4 126.2 16-30.4 62.6-57.2 112.2-57.2 147.8 0 248 134.6 248 314.8 0 136.6-115.4 263.6-290.8 263.6z" />
<glyph unicode="&#xe612;" glyph-name="uniE612" d="M0 960v-1024h1024v1024h-1024zM806.8 784l46.8-34-8.6-12.8-39.8 21.4 1.6 25.4zM670.4 825.2l5.6-37-58.2-1.4-8.4 41.2 61-2.8zM490 805.2l34-38.4-46.8-26.8-34 41.2 46.8 24zM330.8 683.2l49.8-32.6-38.4-45.4-51.2 34 39.8 44zM204.4 495.6l65.4-25.6-19.8-55.4-66.8 21.4 21.2 59.6zM124.8 187.4l8.6 71 73.8-5.6-12.8-73.8-69.6 8.4zM602.2 463l-11.4-46.8-48.2 41.2 18.4 37 41.2-31.4zM588 585l29.8 27 28.4-42.6-17-29.8-41.2 45.4zM595 336.4l2.8-46.8-59.6 25.6 2.8 49.8 54-28.6zM620.6 188l27-55-75.2 4-14.2 51h62.4zM694.6 622l-18.4 34 39.8 10 5.6-22.8-27-21.2zM836 649l-38 4.2v21.4l38-8.6v-17zM882 656.2c0 0-42.6 48.4-120.8 39.8s-216-88-237.2-262.8c-21.2-174.8 62.6-365.2 62.6-365.2h-377.8c0 0-10 62.6 14.2 181.8 24.2 119.4 59.6 198.8 120.8 312.6 61 113.6 159 207.4 301 220.2s254.2-100.8 254.2-100.8l-17-25.6z" />
<glyph unicode="&#xe613;" glyph-name="uniE613" d="M208.654 67.909h377.8c0 0-83.8 190.4-62.6 365 21.6 175 159.4 254.4 237.4 263 78.2 8.6 120.8-39.8 120.8-39.8l17 25.6c0 0-112.2 113.6-254.2 100.8s-240-106.6-301.2-220.2c-61-113.6-96.6-193.2-120.8-312.6-24-119.2-14.2-181.8-14.2-181.8zM133.454 258.309l73.8-5.6-12.8-73.8-69.6 8.6 8.6 70.8zM249.854 414.709l19.8 55.4-65.4 25.6-21.2-59.8 66.8-21.2zM342.254 604.909l38.4 45.4-49.8 32.6-39.8-44 51.2-34zM443.054 781.109l34-41.2 46.8 27-34 38.4-46.8-24.2zM609.254 827.909l8.6-41.2 58.2 1.4-5.6 37-61.2 2.8zM806.854 783.909l-1.4-25.6 39.8-21.4 8.6 12.8-47 34.2zM798.254 674.509v-21.4l38.4-4.2v17l-38.4 8.6zM676.054 656.109l18.4-34 27 21.4-5.6 22.8-39.8-10.2zM617.854 612.109l28.4-42.6-17-29.8-41.2 45.4 29.8 27zM561.054 494.109l-18.4-37 48.2-41.2 11.4 46.8-41.2 31.4zM541.054 364.909l-2.8-49.8 59.6-25.6-2.8 46.8-54 28.6zM558.254 188.709l14.2-51.2 75.2-4.2-27 55.4h-62.4z" />
<glyph unicode="&#xe614;" glyph-name="uniE614" d="M0 960v-1024h1024v1024h-1024zM776.6 758l-61.8-173.6-157.2 173.6h219zM673.8 570h-323.6l161.8 178.8 161.8-178.8zM466.4 758l-154.8-171-51.6 171h206.4zM223 748.2l53.8-178.2h-174.8l121 178.2zM112.4 530h178.8l156.8-343.4-335.6 343.4zM333.4 530h358.6l-180-391-178.6 391zM576.6 187.4l157.8 342.6h177.2l-335-342.6zM750.4 570l59 165.8 112.6-165.8h-171.6z" />
<glyph unicode="&#xe615;" glyph-name="uniE615" d="M692.2 529l-180.2-391-178.6 391zM350.2 570.6l161.8 178.8 161.8-178.8zM557.6 758h219l-62-173.6zM311.6 587l-51.6 171h206.4zM291.2 529l156.8-343.4-335.6 343.4zM734.4 529h177.2l-335-342.6zM750.4 570.6l59 165.8 112.6-165.8zM223 749l54-178.4h-175z" />
<glyph unicode="&#xe616;" glyph-name="uniE616" d="M0 960v-1024h1024v1024h-1024zM512 619.8c-23.4 0-42-19-42-42.4v-258.8c0-98.8-80.2-178.8-179-178.8s-179 80-179 178.8v117.4h136v-112.8c0-23.4 19.6-42.4 43-42.4s43 19 43 42.4v254.2c0 98.8 79.2 178.8 178 178.8s178-80 178-178.8v-51.8l-79.8-25.8-56.2 25.8v51.8c0 23.4-18.6 42.4-42 42.4zM912 318.6c0-98.8-80.2-178.8-179-178.8s-179 80-179 178.8v115.2l56.2-25.8 79.8 25.8v-115.2c0-23.4 19.6-42.4 43-42.4s43 19 43 42.4v113.4h136v-113.4z" />
<glyph unicode="&#xe617;" glyph-name="uniE617" d="M512 756.2c-98.8 0-178.8-80-178.8-178.8v-254.2c0-23.4-19-42.4-42.4-42.4s-42.4 19-42.4 42.4v113h-136.4v-117.6c0-98.8 80-178.8 178.8-178.8s178.8 80 178.8 178.8v258.8c0 23.4 19 42.4 42.4 42.4s42.4-19 42.4-42.4v-51.8l56.4-25.8 80 25.8v51.8c0 98.8-80 178.8-178.8 178.8zM554.4 433.8v-115.2c0-98.8 80-178.8 178.8-178.8s178.8 80 178.8 178.8v113h-136.4v-113c0-23.4-19-42.4-42.4-42.4s-42.4 19-42.4 42.4v115.2l-80-25.8-56.4 25.8z" />
<glyph unicode="&#xe618;" glyph-name="uniE618" d="M0 960v-1024h1024v1024h-1024zM604 48c-174.4-3-240 124.2-240 213.8v262.2h-82v102.4c122 43.6 150.6 153.2 157.4 215.6 0.6 4.4 3.8 6 5.8 6 1.6 0 116.8 0 116.8 0v-204h160v-120h-160v-250c0-33.8 13-80.4 77-78.8 21.2 0.6 49.8 6.6 64.6 13.8l38.6-114c-14.4-21.6-79.4-46-138.2-47z" />
<glyph unicode="&#xe619;" glyph-name="uniE619" d="M703.387 208.837c-14.834-7.142-43.403-13.186-64.554-13.735-64.005-1.648-76.367 45.051-76.916 78.839v249.153h160.699v121.143h-160.425v203.827c0 0-115.374 0-117.022 0-1.923 0-5.219-1.648-5.769-6.043-6.867-62.357-35.986-171.962-157.403-215.639v-103.287h81.036v-261.514c0-89.552 65.928-216.738 240.362-213.716 58.786 1.099 124.164 25.547 138.449 46.974l-38.458 114z" />
<glyph unicode="&#xe61a;" glyph-name="uniE61A" d="M0 960v-1024h1024v1024h-1024zM829.8 611c0.2-7 0.6-14.2 0.6-21.2 0-216.8-165.2-467-467-467-92.8 0-179 27.2-251.6 73.8 12.8-1.4 25.8-2.2 39.2-2.2 77.2 0 147.8 26.4 204 70.4-71.8 1.4-132.2 48.8-153.2 114 10-1.8 20.4-2.8 31-2.8 14.8 0 29.2 2 43 5.6-75.2 15-131.8 81.4-131.8 160.8 0 0.6 0 1.4 0 2 22-12.2 47.4-19.6 74.4-20.4-44 29.6-72.8 79.8-72.8 136.8 0 30 8 58.4 22.2 82.6 80.8-99.6 201.8-164.8 338.2-171.6-2.8 12.2-4.2 24.6-4.2 37.4 0 90.8 73.4 164.2 164.2 164.2 47 0 90-19.8 120-51.6 37.2 7.4 72.4 21 104.2 39.8-12.2-38.2-38.2-70.4-72-90.8 33.2 4 64.6 12.8 94.2 25.8-22.4-33.2-50.2-62-82.6-85.6z" />
<glyph unicode="&#xe61b;" glyph-name="uniE61B" d="M912.19 696.372c-29.504-13.050-60.995-21.845-94.187-25.816 33.76 20.426 59.86 52.484 72.059 90.783-31.774-18.724-66.952-32.341-104.117-39.718-30.072 31.774-72.91 51.633-120.004 51.633-90.783 0-164.261-73.478-164.261-164.261 0-12.766 1.418-25.249 4.255-37.448-136.458 6.809-257.313 72.059-338.167 171.637-14.185-24.114-22.128-52.484-22.128-82.556 0-57.023 28.937-107.237 72.91-136.742-26.951 0.851-52.2 8.227-74.329 20.426 0-0.567 0-1.418 0-1.986 0-79.435 56.456-145.82 131.635-160.856-13.901-3.688-28.37-5.674-43.122-5.674-10.497 0-20.994 1.135-30.923 2.837 20.994-65.25 81.421-112.628 153.196-114.046-56.172-43.973-126.813-70.357-203.978-70.357-13.334 0-26.384 0.851-39.15 2.27 72.626-46.526 158.87-73.761 251.639-73.761 301.854 0 466.965 250.221 466.965 466.965 0 7.092-0.284 14.185-0.567 21.277 32.341 23.547 60.144 52.484 82.272 85.393v0 0z" />
<glyph unicode="&#xe61c;" glyph-name="uniE61C" d="M574.309 628.685l-58.957-58.726 24.97-166.235h220.799c-13.41 57.801-45.778 135.023-45.778 135.023-4.855 11.791-16.647 19.19-27.976 23.814l-76.297 35.143-36.761 30.981zM508.648 570.191v0l-58.957 58.726-36.761-30.981-76.297-35.143c-11.329-4.624-22.427-11.56-27.976-23.814 0 0-32.368-76.991-45.778-135.023h220.799l24.97 166.235zM509.572 629.841c58.263 0 136.41 72.829 137.566 194.673 0.925 84.62-39.536 135.254-137.566 135.254-98.261 0-138.491-50.634-137.566-135.254 1.156-121.844 69.361-194.673 137.566-194.673zM481.828 790.528c71.211-7.63 133.173 92.019 132.248 2.774-0.694-53.408-50.171-133.867-104.504-133.867-57.107 0-96.643 67.049-104.504 133.867-8.786 72.598 124.619 56.182 76.76-2.774zM829.096 358.64c-4.855 5.318-11.56 8.323-18.959 8.323h-596.505c-7.167 0-14.103-3.006-18.959-8.323s-7.167-12.485-6.474-19.652l50.865-380.098c1.156-13.179 12.254-23.12 25.432-23.12h494.544c13.179 0 24.045 9.942 25.432 23.12l50.865 380.098c0.925 7.167-1.387 14.335-6.242 19.652zM635.347 283.73l-28.9-80.921-73.291 80.921h102.192zM587.488 196.335h-150.976l75.372 83.233 75.604-83.233zM490.845 283.73l-72.367-79.765-24.045 79.765h96.412zM377.324 279.337l25.201-83.002h-81.615l56.414 83.002zM325.766 176.914h83.464l73.060-159.993-156.525 159.993zM428.651 176.914h167.16l-83.927-182.188-83.233 182.188zM542.172 17.152l73.523 159.762h82.54l-156.062-159.762zM623.093 196.335l27.513 77.222 52.483-77.222h-79.996z" />
<glyph unicode="&#xe61d;" glyph-name="uniE61D" d="M0 960v-1024h1024v1024h-1024zM169.6 734h685c15.4 0 29.2-6 39.4-15.6l-382-327.4-381.8 327.2c10.2 9.8 24 15.8 39.4 15.8zM112 683.6l276.2-240-276.2-234.8v474.8zM854.4 162h-684.8c-15.4 0-29.2 6-39.4 15.6l283 242.6 99-86.6 99 86.6 282.8-242.8c-10.4-9.4-24.2-15.4-39.6-15.4zM912 208.8l-276.2 234.6 276.2 240.4v-475z" />
<glyph unicode="&#xe61e;" glyph-name="uniE61E" d="M512 333.8l-99 86.6-283-242.6c10.2-9.6 24.2-15.4 39.4-15.4h685c15.2 0 29 6 39.4 15.4l-282.8 242.6-99-86.6zM894 718.2c-10.2 9.6-24.2 15.4-39.4 15.4h-685c-15.2 0-29-6-39.4-15.6l381.8-327.2 382 327.4zM112 683.6v-474.8l276.2 234.6zM635.8 443.4l276.2-234.6v475z" />
<glyph unicode="&#xe61f;" glyph-name="uniE61F" d="M412.4 614h-1.6c-8-32-16-72.8-24.8-103.8l-32-114.2h119l-33.6 114.2c-9.4 31.8-18.8 71.8-27 103.8zM0 960v-1024h1024v1024h-1024zM532.2 168l-41.6 138h-154l-38.4-138h-126l164.4 538h159.4l166.8-538h-130.6zM848 168h-122v390h122v-390zM786.2 606c-38.2 0-63.8 27.2-63 60.8-0.8 35.2 24.8 61.4 64 61.4 39 0 63.8-26.2 64.6-61.4-0.2-33.6-25.6-60.8-65.6-60.8z" />
<glyph unicode="&#xe620;" glyph-name="uniE620" d="M496.2 705.6h-159.4l-164.4-537.6h126l38.4 138h154l41.6-138h130.8l-167 537.6zM354.2 397l32 114c8.8 31.2 16.8 71.8 24.8 103.8h1.6c8-32 17.6-71.8 27.2-103.8l33.6-114h-119.2zM726.2 558.2h121.4v-390.2h-121.4v390.2zM786.2 606c-38.2 0-63.8 27.2-63 60.8-0.8 35.2 24.8 61.4 64 61.4 39 0 63.8-26.2 64.6-61.4-0.2-33.6-25.6-60.8-65.6-60.8z" />
<glyph unicode="&#xe621;" glyph-name="uniE621" d="M0 960v-1024h1024v1024h-1024zM504.6 426.6c-43.4-41-108-59.4-183.2-59.4-16.8 0-31.4 0.8-43.4 2.6v-201.8h-126v556.6c38 6.6 94.2 11.6 172.2 11.6 78.6 0 134.6-15 172.2-45.2 36.2-28.4 60.4-75.4 60.4-130.6s-18.6-101.8-52.2-133.8zM695.2 159.6c-53.6 0-101.4 11.6-132.4 28.4l22.6 91.2c23.4-14.2 72-30.8 109.8-30.8 38.4 0 54.4 13.4 54.4 34.4 0 20.8-12.6 30.8-60.2 46.8-84.6 28.4-117.2 74.6-116.4 123 0 76 65.4 134 166.6 134 47.8 0 90.4-11 115.4-23.4l-22.6-88c-18.4 10-53.6 23.4-88.8 23.4-30.8 0-48.4-12.6-48.4-33.4 0-19.2 15.8-29.2 66-46.8 77.8-26.8 110.6-66.2 111.4-126.2 0-76.4-60.4-132.6-177.4-132.6zM330.6 640.2c-26 0-42.6-2.6-52.6-5v-166.6c10-2.4 24.2-3.2 42.6-3.2 67.8 0 109.6 34.2 109.6 92 0 51.8-36 82.8-99.6 82.8z" />
<glyph unicode="&#xe622;" glyph-name="uniE622" d="M496.2 691.2c-37.6 30.2-93.8 45.2-172.4 45.2-78 0-133.2-5-172.4-11.6v-556.8h126.4v201.8c11.8-1.6 26.8-2.6 43.6-2.6 75.2 0 139.8 18.4 183.2 59.4 33.6 31.8 52 78.6 52 133.8s-24.2 102.2-60.4 130.8zM320.6 465.2c-18.4 0-31.8 0.8-42.6 3.2v166.6c9.2 2.6 26.8 5 52.6 5 63.6 0 99.6-31 99.6-82.8 0-57.6-41.8-92-109.6-92zM695.2 159.6c-53.6 0-101.4 11.6-132.4 28.4l22.6 91.2c23.4-14.2 72-30.8 109.8-30.8 38.4 0 54.4 13.4 54.4 34.4 0 20.8-12.6 30.8-60.2 46.8-84.6 28.4-117.2 74.6-116.4 123 0 76 65.4 134 166.6 134 47.8 0 90.4-11 115.4-23.4l-22.6-88c-18.4 10-53.6 23.4-88.8 23.4-30.8 0-48.4-12.6-48.4-33.4 0-19.2 15.8-29.2 66-46.8 77.8-26.8 110.6-66.2 111.4-126.2 0-76.4-60.4-132.6-177.4-132.6z" />
<glyph unicode="&#xe900;" glyph-name="resume-inverted" d="M561.152 464.128h-95.36c-7.936 0-14.208-6.4-14.208-14.208l39.68-82.048h45.696l38.4 82.048c0 7.808-6.272 14.208-14.208 14.208zM512 960c120.192 0 217.6-97.408 217.6-217.6s-97.408-217.6-217.6-217.6-217.6 97.408-217.6 217.6 97.408 217.6 217.6 217.6h-512v-1024h1024v1024h-512zM882.944 5.504h-1.536l-14.592-7.424c-7.296-3.712-126.080-62.080-330.752-62.080-104.832 0-232.192 15.36-378.88 61.056l-15.616 4.864-0.512 3.584v225.792c0 153.6 124.928 278.656 278.528 278.656h184.576c153.6 0 278.656-124.928 278.656-278.656v-225.792zM535.552 356.608c-0.128 1.536-1.408 2.688-2.816 2.688h-38.4c-1.536 0-2.688-1.152-2.816-2.688l-18.56-283.136c0-0.64 0.128-1.28 0.384-1.664l36.992-58.368c0.512-0.768 1.408-1.28 2.304-1.28 0 0 0 0 0.128 0 0.896 0 1.792 0.512 2.304 1.28l39.808 58.368c0.384 0.512 0.512 1.152 0.512 1.792l-19.84 283.008z" />
<glyph unicode="&#xe901;" glyph-name="resume" d="M729.627 742.386c0-120.185-97.429-217.614-217.614-217.614s-217.614 97.429-217.614 217.614c0 120.185 97.429 217.614 217.614 217.614s217.614-97.429 217.614-217.614zM604.306 509.959h-184.638c-153.595 0-278.587-124.979-278.587-278.599v-225.855l0.569-3.526 15.572-4.866c146.593-45.793 273.973-61.099 378.818-61.099 204.747 0 323.444 58.407 330.8 62.11l14.535 7.381h1.529v225.855c0.013 153.62-124.954 278.599-278.599 278.599zM555 71.66l-39.84-58.306c-0.543-0.796-1.403-1.264-2.351-1.264-0.025 0-0.051 0-0.076 0-0.935 0-1.833 0.493-2.351 1.315l-37.008 58.344c-0.316 0.493-0.468 1.087-0.442 1.719l18.517 283.162c0.101 1.504 1.327 2.642 2.844 2.642h38.411c1.504 0 2.743-1.138 2.869-2.642l19.895-283.137c0.076-0.67-0.114-1.289-0.468-1.833zM536.976 367.84h-45.666l-39.701 82.055c0 7.874 6.37 14.219 14.245 14.219h95.34c7.849 0 14.219-6.345 14.219-14.219l-38.437-82.055z" />
</font>
</defs>
</svg>
