<?xml version="1.0" standalone="no"?>
<!DOCTYPE svg PUBLIC "-//W3C//DTD SVG 1.1//EN" "http://www.w3.org/Graphics/SVG/1.1/DTD/svg11.dtd" >
<svg>
<metadata>
Created by FontForge 20090622 at Fri Aug 28 08:18:36 2015
 By deploy user
Copyright &#194;&#169; Sean Johnson 2011. All Rights Reserved.
</metadata>
<defs>
<font id="SeansOtherHand" horiz-adv-x="1074" >
  <font-face 
    font-family="Seans Other Hand"
    font-weight="400"
    font-stretch="normal"
    units-per-em="2048"
    panose-1="3 0 6 0 0 0 0 0 0 0"
    ascent="1638"
    descent="-410"
    x-height="896"
    cap-height="1543"
    bbox="-134 -605 2421 2247"
    underline-thickness="150"
    underline-position="-142"
    unicode-range="U+0020-U+2122"
  />
<missing-glyph horiz-adv-x="1265" 
 />
    <glyph glyph-name=".notdef" horiz-adv-x="1265" 
 />
    <glyph glyph-name="NULL" horiz-adv-x="0" 
 />
    <glyph glyph-name="space" unicode=" " horiz-adv-x="646" 
 />
    <glyph glyph-name="space" unicode="&#xa0;" horiz-adv-x="646" 
 />
    <glyph glyph-name="exclam" unicode="!" horiz-adv-x="466" 
d="M355 172q23 -41 23 -84q0 -9 -1 -18q-6 -52 -43 -66q-11 -4 -23 -4q-35 0 -81 34q-84 63 -87 135v3q0 76 120 76q60 -20 92 -76zM313 1730q42 -31 47 -95q1 -7 1 -16q0 -38 -10 -108q-8 -60 -8 -97q0 -16 1 -28q0 -1 24 -163q22 -145 31 -250q6 -73 6 -131
q0 -206 -75 -220q-6 -1 -13 -1q-73 0 -132 158q-57 149 -84 388q-18 153 -18 283q0 63 4 120q14 187 66 198q110 0 160 -38z" />
    <glyph glyph-name="quotedbl" unicode="&#x22;" horiz-adv-x="726" 
d="M438 1659q59 50 106 50q29 0 54 -20q56 -45 66 -167q2 -24 2 -47q0 -94 -32 -182q-45 -122 -130 -159q-41 72 -75 272q-16 91 -16 154v7q0 75 25 92zM110 1655q59 59 108 59q26 0 49 -17q59 -43 76 -170q6 -42 6 -82q0 -82 -23 -161q-38 -131 -121 -176q-45 73 -90 280
q-22 100 -25 168q-1 11 -1 21q0 60 21 78z" />
    <glyph glyph-name="numbersign" unicode="#" horiz-adv-x="1594" 
d="M726 665h298q44 0 53 17q2 4 2 9q0 12 -12 28q-43 54 -106 59q-133 12 -235 12v-125zM1260 1144q6 -25 6 -168h122q60 0 60 -68q0 -17 -3 -37q-5 -31 -21 -77q-13 -42 -13 -46q3 -20 44 -56q39 -34 39 -89q0 -43 -78 -82q-22 -11 -109 -43q2 -22 4 -63q1 -37 6 -71
q2 -14 2 -29q0 -47 -22 -97q-31 -73 -31 -113q-64 0 -100 98q-16 45 -32 147q-16 101 -40 118q-16 10 -120 10q-31 0 -93 6q-31 3 -52 3q-12 0 -20 -1q-32 -4 -48 -26q-19 -25 -23 -79v-96q0 -35 -1 -63q-9 -137 -52 -137q-25 -11 -45 -11q-36 0 -57 36q-23 39 -33 139
q-13 145 -15 156q-14 73 -52 73q-155 0 -270 21q-123 22 -123 62q0 29 63 67q60 36 165 40h26q27 0 64 -1q67 -2 85 -2q17 0 27 21q6 14 6 30q0 7 -1 15q-5 27 -22 41q-13 10 -32 10q-10 0 -22 -3q-99 -25 -176 -25q-16 0 -30 1q-121 8 -121 89q0 14 3 29q0 54 127 79
q29 5 162 17q69 6 92 34q13 17 14 59q1 43 14 61q22 30 89 39q74 0 107 -104q15 -50 23 -64q8 -15 19 -15h1q1 0 34 9q30 9 64 9q117 -21 124 -21q36 18 51 55q7 19 14 70q7 47 19 70q18 36 62 54q13 2 25 2q75 0 94 -83z" />
    <glyph glyph-name="dollar" unicode="$" horiz-adv-x="1507" 
d="M854 423q73 0 284 87q0 36 -142 105q-99 49 -164 70q21 -213 22 -262zM569 1057q-3 52 -24 175q-19 112 -20 176q-105 -25 -140 -38q-101 -39 -101 -94q118 -155 285 -219zM749 1786q6 -14 29 -84q18 -54 37 -82q9 -13 74 -49q86 -48 121 -72q98 -67 98 -126
q0 -33 -31 -64q-37 -37 -75 -37q-23 0 -46 13q-26 14 -91 82q-27 28 -43 28q-9 0 -15 -10q-20 -37 -20 -221q0 -203 135 -321q90 -79 345 -180q163 -66 172 -148q1 -5 1 -10q0 -65 -93 -136q-173 -133 -428 -187q-40 -33 -52 -127q-15 -119 -38 -165q-24 -50 -50 -50
q-31 0 -65 76q-17 40 -41 116q-21 69 -26 79q-33 60 -206 98q-194 43 -244 85q-131 109 -131 365v4q6 153 13 198q25 153 96 153h9q74 0 77 -90v-7q0 -30 -7 -75q-11 -67 -11 -69q-4 -43 -4 -82q0 -176 87 -244q86 -68 330 -68v30q0 268 -102 421q-55 83 -228 203
q-166 116 -224 214q-34 57 -34 107q0 98 134 167q72 37 345 106q0 2 -4 51q-3 29 -3 52q0 12 1 22q6 93 72 93q23 6 43 6q63 0 93 -65z" />
    <glyph glyph-name="percent" unicode="%" horiz-adv-x="1899" 
d="M1330 480q-21 7 -32 11q0 -103 67 -195q39 -53 80 -53q43 0 89 59t46 108q0 20 -8 38q0 60 -58 60q-14 0 -31 -3q-23 -5 -70 -21q-40 -14 -51 -14zM1724 616q71 -96 71 -228q0 -21 -2 -43q-13 -156 -107 -255q-80 -84 -187 -84q-30 0 -63 7q-142 29 -230 209
q-54 111 -96 311q10 93 44 104q5 2 42 6q33 3 61 15q-1 0 82 40q66 31 106 44q184 0 279 -126zM1467 1540q72 0 72 -79q0 -89 -89 -275q-95 -196 -226 -394q-234 -354 -234 -353q-11 -23 -35 -91q-29 -83 -43 -118q-60 -147 -117 -160q-100 38 -100 157q0 82 48 203
q86 218 220 375q32 47 98 192q88 195 121 259q147 287 261 287q12 0 24 -3zM357 1122q29 -19 66 -19q15 0 31 3q117 24 174 140q-5 72 -44 85q-8 3 -19 3q-28 0 -73 -20q-199 -89 -201 -89q19 -73 66 -103zM402 1537q98 40 174 40q106 0 171 -78q102 -123 102 -261
q0 -10 -1 -20q-7 -154 -139 -267q-83 -72 -193 -72q-48 0 -101 14q-168 43 -244 178q-63 111 -71 182q-1 12 -1 23q0 49 29 87q13 17 245 158q23 14 29 16z" />
    <glyph glyph-name="ampersand" unicode="&#x26;" horiz-adv-x="1355" 
d="M347 1146q32 -26 72 -34q13 -3 26 -3q25 0 43 13q32 21 32 71q0 11 3 39q2 20 2 33v7q-1 43 -37 43q-33 0 -101 -34q-76 -38 -76 -71q3 -35 36 -64zM541 499q0 86 -21 377q-69 -20 -135 -80q-61 -58 -95 -129q68 -168 251 -168zM791 1544q4 -1 12 -1q17 0 52 5q44 5 64 5
h9q91 -17 187 -74q85 -51 85 -99q0 -27 -27 -54q-36 -36 -97 -36q-29 0 -62 8q-164 37 -166 37q-76 0 -85 -83q-1 -9 -1 -18q0 -20 5 -39q8 -26 18 -26q18 0 59 4q57 5 73 6q27 2 49 2q53 0 76 -12q49 0 72 -33q15 -22 15 -55q0 -9 -1 -18q-5 -43 -29 -78q-27 -39 -63 -49
q-56 -17 -126 -25q-66 -8 -82 -14q-34 -11 -50 -43q-18 -34 -29 -114q-20 -156 -20 -282q20 -1 39 -1q92 0 171 28q15 5 130 81q91 60 116 60q2 0 4 -1q67 -25 67 -79q0 -30 -22 -70q-51 -92 -131 -129q-58 -28 -141 -30q-20 0 -66 1h-23q-22 0 -35 -1q-58 -4 -79 -38
q-15 -26 -15 -74q0 -31 6 -71q1 -10 1 -20q0 -37 -20 -72q-23 -39 -63 -63q-32 -19 -59 -19q-6 0 -12 1q-35 5 -42 43q-3 13 -3 29q0 9 1 19l3 33q-2 109 -2 160q0 46 2 45q-6 16 -30 24q-8 3 -33 10q-29 8 -49 15q-178 57 -277 159q-82 86 -82 184q0 51 22 105q19 48 53 93
q46 61 45 60q13 21 13 42q0 8 -2 15q-7 33 -49 83q-36 44 -56 100q-15 41 -15 74q0 22 6 40q17 61 158 134q84 43 172 76q67 26 111 71q49 49 102 74q87 0 146 -105z" />
    <glyph glyph-name="quotesingle" unicode="'" horiz-adv-x="379" 
d="M97 1713q59 50 106 50q29 0 54 -20q56 -45 66 -167q2 -24 2 -47q0 -94 -32 -182q-45 -122 -130 -159q-41 72 -75 272q-16 91 -16 154v7q0 75 25 92z" />
    <glyph glyph-name="parenleft" unicode="(" horiz-adv-x="857" 
d="M454 1676q33 7 58 7q89 0 89 -83q0 -18 -4 -39q-15 -78 -97 -228q-186 -342 -209 -666q-2 -26 -2 -52q0 -236 156 -493q20 -34 90 -110q91 -98 118 -130q83 -101 83 -164q0 -39 -32 -63q-28 -21 -60 -21q-129 0 -318 352q-184 343 -231 546q-17 74 -17 166q0 191 73 460
q116 430 303 518z" />
    <glyph glyph-name="parenright" unicode=")" horiz-adv-x="857" 
d="M192 1722q5 1 10 1q135 0 404 -545q142 -288 142 -622q0 -90 -10 -184q-37 -339 -127 -389q-23 -13 -102 -97q-96 -104 -140 -142q-76 -68 -120 -68q-57 0 -57 119q169 246 230 374q82 171 124 409q7 39 7 80q0 176 -120 406q-14 27 -107 155q-101 139 -149 220
q-81 136 -81 206q0 77 96 77z" />
    <glyph glyph-name="asterisk" unicode="*" horiz-adv-x="1008" 
d="M225 1738q7 1 15 1q45 0 101 -37q60 -41 73 -41h1q71 14 107 14q17 0 26 -3q45 -17 45 -119q24 8 72 54q46 44 72 49q10 2 21 2q22 0 47 -9q35 -13 58 -38q24 -26 24 -54q-1 -32 -33 -58q-65 -53 -81 -78q-6 -9 -6 -17q0 -10 9 -18q5 -4 20 -14l24 -18q30 -27 40 -67
q-25 -65 -81 -82q-22 -7 -53 -7t-71 7q3 -6 33 -74q25 -56 36 -93q11 -39 11 -69q0 -58 -44 -81q-16 -8 -32 -8q-48 0 -101 71q-17 23 -50 77q-27 44 -37 54q-2 -7 -2 -13q0 -4 1 -8l1 -12q0 -7 -31 -7q-47 0 -73 11q-5 2 -30 20q-12 8 -29 8h-7q-27 -2 -86 -24
q-38 -14 -62 -14q-18 0 -28 7q-16 10 -16 36q0 9 2 20q15 77 73 140q-121 0 -121 48q0 12 8 28q28 52 126 118q31 21 31 51q0 8 -2 16q-4 18 -37 77q-26 47 -26 75v4q3 44 62 75z" />
    <glyph glyph-name="plus" unicode="+" horiz-adv-x="1399" 
d="M888 854q25 -91 25 -257q34 3 133 18q64 10 102 10h12q54 -3 88 -30q38 -32 58 -101q2 -8 2 -15q0 -61 -155 -82q-26 -4 -220 -11q22 -173 22 -253q0 -35 -4 -53q-15 -60 -65 -75q-17 -5 -38 -5q-51 0 -125 28q23 193 23 190v10q0 132 -74 140l-574 60q-15 1 -15 14
q0 5 2 12q8 21 36 51q68 71 117 71h239q14 0 44 -2q47 -3 71 -3h11q78 0 78 26q0 29 -11 107q-12 87 -14 129q-1 17 -1 32q0 129 68 153q122 0 165 -164z" />
    <glyph glyph-name="comma" unicode="," horiz-adv-x="531" 
d="M296 354q13 1 25 1q93 0 115 -70q7 -22 7 -47q0 -56 -35 -128q-51 -104 -136 -170q-74 -57 -142 -57q-19 0 -37 4q3 83 73 266q33 88 65 140q37 61 65 61z" />
    <glyph glyph-name="hyphen" unicode="-" horiz-adv-x="1377" 
d="M976 656q95 -8 154 -22q135 -33 135 -108q0 -36 -30 -81q-18 -27 -173 -27q-37 0 -83 2q-66 2 -174 9q-94 6 -109 6h-348q-20 0 -75 -13q-63 -15 -91 -18q-15 -2 -28 -2q-30 0 -49 10q-32 17 -32 65q0 131 361 171q119 13 273 16h176q5 -2 93 -8z" />
    <glyph glyph-name="period" unicode="." horiz-adv-x="379" 
d="M89 278q28 7 53 7q33 0 62 -12q47 -19 67 -61q12 -24 12 -48q0 -20 -8 -41q-19 -50 -76 -85q-9 -1 -17 -1q-37 0 -63 19q-29 21 -41 61q-9 28 -9 60q0 11 1 22q3 43 19 79z" />
    <glyph glyph-name="slash" unicode="/" horiz-adv-x="1355" 
d="M1064 1805q160 0 160 -118q0 -88 -89 -241q-8 -13 -337 -462l-157 -202q-109 -140 -174 -235q-199 -296 -199 -501q-180 0 -180 138q0 41 15 93q3 12 159 333q52 106 434 643q20 27 91 115q81 99 122 154q155 203 155 283z" />
    <glyph glyph-name="zero" unicode="0" horiz-adv-x="1313" 
d="M389 1327q-69 -35 -96 -92q-11 -25 -37 -141q-15 -70 -15 -171q0 -161 39 -402q32 -191 71 -251q52 -81 162 -81q27 0 57 5q176 0 313 168q128 155 128 327v8q0 219 -187 426q-151 170 -379 288q-2 -59 -56 -84zM959 1233q240 -351 240 -691q0 -140 -111 -287
q-103 -134 -259 -227q-157 -93 -294 -99h-16q-137 0 -200 98q-146 230 -159 260q-93 215 -93 600q3 275 48 422q66 222 246 312q334 0 598 -388z" />
    <glyph glyph-name="one" unicode="1" horiz-adv-x="466" 
d="M372 1244q9 -119 10 -294v-205q24 -482 26 -618v-6q0 -103 -70 -134q-16 -7 -32 -7q-15 0 -31 7q-35 16 -58 63q-55 110 -58 356q-3 374 -5 389q0 4 -31 189q-28 174 -37 295q-5 62 -5 114q0 278 130 278q132 -44 161 -427z" />
    <glyph glyph-name="two" unicode="2" horiz-adv-x="1312" 
d="M578 1528q238 0 238 -235q0 -137 -80 -353q-71 -190 -203 -436l-92 -166q-50 -89 -56 -99q27 0 637 37h13q50 0 101 -21q52 -22 77 -55q13 -19 13 -35q0 -14 -10 -26q-25 -29 -106 -35q-3 0 -211 -29q-206 -28 -354 -38q-96 -7 -173 -7q-309 0 -309 109q0 117 149 314
q203 270 221 304q70 134 109 249q36 108 36 178q0 55 -22 86q0 34 -31 34q-6 0 -12 -1q-30 -5 -101 -40q-140 -68 -189 -68q-11 0 -17 3q-80 40 -80 89q0 12 5 24q19 51 120 106q203 111 327 111z" />
    <glyph glyph-name="three" unicode="3" horiz-adv-x="1334" 
d="M1006 1622q19 3 37 3q76 0 137 -44q67 -48 67 -120q0 -18 -5 -39q-30 -133 -176 -273q-71 -69 -257 -207q301 -225 404 -430q40 -79 40 -142q0 -172 -289 -234q-145 -31 -300 -31q-217 0 -456 61q-67 17 -119 60q-36 30 -36 57q0 26 31 49q0 -4 64 -4q132 0 534 18
q220 10 294 58q40 26 40 64q0 51 -73 123q-19 18 -109 81q-105 73 -157 115q-147 119 -147 191q0 24 15 42q54 66 217 212q144 129 200 214q-35 -3 -139 -42q-149 -57 -192 -71q-108 -35 -180 -35q-93 0 -124 60q-14 33 -14 62q0 128 270 176q145 26 423 26z" />
    <glyph glyph-name="four" unicode="4" horiz-adv-x="1290" 
d="M307 1534q26 7 48 7q105 0 105 -156q0 -43 -8 -98q-13 -90 -51 -232q-40 -145 -43 -160q-21 -129 -21 -180q0 -22 4 -29q11 -23 48 -23h6q40 2 127 29q89 27 101 59q2 5 2 19q0 30 -8 105q-14 139 -14 245q0 349 151 349q128 0 128 -282v-22q-1 -96 -17 -232
q-8 -116 -11 -149l80 23q66 21 112 29q33 6 61 6q89 0 117 -63q14 -32 14 -56q0 -27 -17 -45q-25 -26 -97 -38q-23 -4 -66 -9q-49 -5 -66 -7q-76 -11 -106 -34q-69 -51 -72 -280v-38q0 -61 4 -140q7 -130 7 -132q-117 0 -155 179q-8 40 -22 149q-11 87 -23 120
q-13 37 -66 37h-6q-34 0 -127 -23q-93 -22 -156 -22q-74 0 -109 29q-67 54 -67 231q0 115 28 281q69 402 185 553z" />
    <glyph glyph-name="five" unicode="5" horiz-adv-x="1421" 
d="M471 1389q36 25 106 37q58 10 160 12q112 3 130 5q261 30 369 56q122 -52 122 -102q0 -5 -1 -10q-11 -45 -120 -87q-152 -58 -364 -84q-16 -2 -105 -2q-60 0 -153 1h-14q-176 0 -221 -25q-38 -21 -92 -208q354 -89 456 -125q270 -94 405 -233q81 -84 81 -195
q0 -48 -15 -102q-49 -170 -199 -245q-116 -57 -249 -57q-79 0 -164 20q-243 59 -315 247q15 32 75 32q19 0 42 -3q33 -5 98 -19q85 -18 112 -23q85 -16 148 -16q41 0 73 7q112 23 154 126q14 35 14 67q0 100 -140 166q-50 24 -414 129q-270 77 -344 175q-38 49 -38 112
q0 111 120 263q73 93 99 116q45 39 84 39q27 0 50 -19q34 -27 50 -55z" />
    <glyph glyph-name="six" unicode="6" horiz-adv-x="1095" 
d="M404 189v-2q0 -71 87 -81q16 -2 32 -2q58 0 107 26q88 46 147 155q55 102 58 206q-282 -128 -431 -302zM383 1461q143 0 143 -100q0 -18 -5 -40q-19 -87 -111 -217q-89 -124 -115 -268q-12 -69 -12 -163q0 -59 5 -128q6 -84 29 -102q6 -5 15 -5q17 0 42 20q16 13 77 76
q55 57 91 81q135 91 265 115q33 6 61 6q133 0 172 -126q6 -18 6 -45q0 -89 -63 -273q-89 -257 -191 -308q-131 -66 -194 -75q-26 -4 -51 -4q-93 0 -187 51q-116 63 -171 168q-140 264 -140 572q0 62 6 126q39 425 328 639z" />
    <glyph glyph-name="seven" unicode="7" horiz-adv-x="1356" 
d="M1121 1593q134 -20 134 -172q0 -78 -35 -190q-32 -102 -102 -261q-74 -166 -83 -191q-4 -13 -36 -153q-33 -146 -62 -239q-79 -254 -163 -254q-18 0 -37 12q0 32 -23 157q-9 46 -9 87q0 44 10 81q54 209 257 867q-347 -40 -574 -52q2 0 -124 -26q-25 -5 -46 -5
q-41 0 -66 19q-21 17 -85 107q-12 16 -12 34q0 17 10 35q19 37 57 37h540q449 18 449 107z" />
    <glyph glyph-name="eight" unicode="8" horiz-adv-x="1204" 
d="M559 644q-119 -181 -119 -288q0 -23 5 -42q33 -121 286 -163q145 0 176 77q9 21 9 46q0 53 -40 124q-54 95 -147 169q-96 77 -170 77zM670 1485q68 -46 96 -98q13 -25 13 -45q0 -24 -19 -40q-30 -26 -101 -26q-24 0 -53 3q-25 3 -50 3q-75 0 -141 -28q-82 -35 -114 -96
q-15 -29 -15 -57q0 -34 21 -67q43 -69 167 -112q410 429 560 429q40 0 62 -32q29 -43 29 -75q0 -16 -8 -29q-13 -22 -82 -60q-139 -77 -368 -383q237 -173 365 -356q97 -138 97 -245q0 -113 -108 -192q-80 -59 -201 -59q-92 0 -207 34q-118 35 -207 96q-94 66 -126 143
q-27 67 -27 153t27 192q31 119 109 256q-135 82 -215 178q-101 121 -101 226q0 81 60 152q112 134 384 194q80 -11 153 -59z" />
    <glyph glyph-name="nine" unicode="9" horiz-adv-x="1160" 
d="M313 929q128 27 272 140q143 113 201 231q-62 21 -121 21q-90 0 -172 -51q-130 -82 -180 -253v-88zM875 1522q120 -62 164 -117q48 -62 48 -191q0 -49 -7 -108q-7 -64 -27 -172q-20 -109 -24 -144q-1 -14 -20 -207q-13 -135 -26 -224q-42 -265 -132 -407q-33 -52 -82 -52
q-12 0 -24 3q-48 0 -48 97q0 56 16 143q13 73 40 182q28 110 29 120q9 50 9 234v55q0 163 37 238q-63 -15 -184 -97q-148 -101 -196 -125q-69 -33 -122 -33q-32 0 -58 11q-89 39 -138 210q-17 57 -17 117q0 63 19 129q34 118 122 218q86 98 198 147q89 39 176 39q28 0 56 -4
q69 0 191 -62z" />
    <glyph glyph-name="colon" unicode=":" horiz-adv-x="379" 
d="M265 335q34 -44 38 -92v-11q0 -41 -26 -63q-22 -19 -59 -19q-19 0 -42 5q-41 0 -75 40q-32 39 -40 89q-2 12 -2 24q0 37 20 61q26 32 79 32q9 0 18 -1q53 -18 89 -65zM252 905q24 -49 25 -92v-6q0 -44 -25 -64q-19 -14 -51 -14q-21 0 -47 6q-46 12 -68 52q-15 27 -15 60
q0 11 2 23q7 46 38 76q35 34 87 34q31 -27 54 -75z" />
    <glyph glyph-name="semicolon" unicode=";" horiz-adv-x="465" 
d="M211 377q29 7 53 7q51 0 81 -31q38 -39 39 -121v-5q0 -70 -25 -151q-26 -79 -62 -127q-53 -70 -99 -83q-11 -3 -21 -3q-43 0 -75 61q44 302 109 453zM124 897h8q46 0 83 -30q36 -29 51 -75q8 -24 8 -44q0 -18 -6 -33q-15 -35 -57 -35q-25 -13 -47 -13q-19 0 -37 9
q-36 18 -53 62q-11 27 -11 55q0 16 4 33q13 47 57 71z" />
    <glyph glyph-name="less" unicode="&#x3c;" horiz-adv-x="1117" 
d="M630 1122q193 0 193 -91v-4q-4 -76 -136 -209q-94 -96 -243 -210q-124 -95 -130 -95q30 -44 162 -109q14 -7 260 -117q160 -72 226 -118q68 -48 68 -88q0 -13 -7 -25q0 -48 -56 -48q-38 0 -101 22q-49 17 -114 47q-64 30 -64 31q-255 96 -336 139q-170 93 -270 240
q-34 51 -34 96q0 44 33 82q31 35 170 119q107 64 214 147q165 129 165 191z" />
    <glyph glyph-name="equal" unicode="=" horiz-adv-x="1442" 
d="M1193 777q2 -7 2 -13q0 -34 -38 -63q-39 -30 -109 -49q-65 -17 -126 -17q-41 0 -144 11q-110 12 -166 14h-20q-186 0 -261 -90q-60 0 -111 31q-48 29 -68 73q-12 24 -12 45q0 20 10 38q23 42 92 61q174 47 425 56q39 2 430 2q85 -51 96 -99zM1321 418q47 -38 47 -88
q0 -21 -8 -44q-26 -78 -226 -78h-15q-67 1 -165 11q-107 10 -117 10q-284 12 -668 12q-63 0 -85 10q-37 18 -37 78q43 82 227 101q61 6 155 7h135q15 1 34 1q48 0 119 -4q119 -7 164 -7h19q184 0 284 55q97 -32 137 -64z" />
    <glyph glyph-name="greater" unicode="&#x3e;" horiz-adv-x="1313" 
d="M144 1100q11 1 23 1q135 0 388 -123q341 -165 416 -185q18 -4 70 -8q65 -4 90 -7q112 -15 112 -66q11 -23 11 -48q0 -37 -26 -78q-24 -36 -91 -95q-143 -128 -438 -318q-10 -6 -83 -56q-53 -36 -88 -56q-105 -61 -178 -61q-57 0 -79 33q-13 19 -13 47q0 14 3 29
q9 43 37 85q27 42 58 61l142 81q94 54 154 93q180 116 247 218l-487 158l-239 77q-28 9 -54 45q-25 34 -35 73q-5 20 -5 36q0 19 7 33q15 31 58 31z" />
    <glyph glyph-name="question" unicode="?" horiz-adv-x="1225" 
d="M376 104q6 1 12 1q34 0 73 -21q43 -24 69 -60q22 -32 22 -61q0 -8 -1 -15q-8 -42 -60 -68q-19 -9 -39 -9q-26 0 -54 14q-47 23 -76 70q-23 36 -23 67q0 12 3 22q11 46 74 60zM657 1594q302 -26 404 -153q83 -104 83 -211q0 -83 -50 -168q-94 -158 -316 -271
q-11 -5 -66 -28q-59 -23 -93 -40q-109 -53 -109 -98q0 -4 1 -8q12 -59 12 -91q0 -10 -1 -17q-10 -59 -79 -59h-2q-55 1 -157 132q-86 111 -86 170q0 13 4 23q0 37 119 74q37 11 88 23l41 14l39 18q278 163 357 230q67 57 67 101q0 66 -149 106q-152 40 -335 40
q-19 0 -93 -13q-51 -10 -77 -10q-8 0 -13 1q-116 38 -156 136q-8 19 -8 35q0 21 14 36q28 32 106 32q412 0 455 -4z" />
    <glyph glyph-name="at" unicode="@" horiz-adv-x="1617" 
d="M750 648q-1 -12 -1 -24q0 -72 36 -150q39 15 62 72q20 51 22 117v8q0 60 -15 101q-17 48 -47 48q-51 -98 -57 -172zM391 350q113 -144 311 -235q133 -63 276 -63q35 0 70 4q219 23 257 202q-26 -2 -50 -2q-118 0 -195 49q-56 35 -80 39h-5q-16 0 -26 -14q-20 -27 -28 -32
q-24 -19 -71 -19q-121 0 -198 70q-69 61 -96 169q-18 73 -18 145q0 137 64 273q36 78 112 124q69 42 144 42h3q80 -2 129 -54q55 -57 55 -162q10 -6 33 -6q22 0 57 6q18 3 33 3q38 0 55 -18q46 -49 46 -122q0 -32 -8 -67q-42 -171 -42 -205v-3q90 3 133 107q31 75 31 184
q0 23 -1 48q-8 135 -52 247q-47 119 -111 150q-62 26 -148 26q-54 0 -119 -11q-156 -26 -315 -104q-162 -80 -262 -183q-110 -114 -110 -226q0 -202 126 -362zM1467 1192q104 -179 104 -452v-30q-6 -282 -115 -513q-116 -248 -298 -308q-83 -28 -175 -28q-76 0 -157 19
q-165 39 -324 150q-154 106 -264 250q-112 148 -147 297q-14 60 -14 118q0 120 61 231q81 146 257 261q335 219 715 219q233 0 357 -214z" />
    <glyph glyph-name="A" unicode="A" horiz-adv-x="1413" 
d="M554 929l-75 -259h23q132 0 340 21q-11 29 -37 120q-31 107 -48 158q-67 201 -128 219zM837 1547q3 -16 4 -53q0 -52 3 -89q10 -133 81 -343q43 -125 223 -468q156 -297 190 -471q7 -34 7 -60q0 -35 -12 -57q-25 -48 -106 -48h-17q-71 0 -77 31q-1 3 -2 41q-1 32 -12 57
q0 76 -47 202q-54 143 -108 143h-230q-242 0 -291 -31q-36 -23 -60 -82q-11 -27 -51 -160q-6 -21 -15 -81q-9 -65 -17 -95q-28 -112 -98 -112q-34 0 -73 73q-32 62 -32 101v8q19 207 110 502l79 247q51 154 77 243q98 340 115 379q106 239 279 239q72 -80 80 -116z" />
    <glyph glyph-name="B" unicode="B" horiz-adv-x="1377" 
d="M355 286q20 -78 124 -79h3q88 0 218 51q116 45 224 113q103 64 131 105q-114 103 -251 151q-91 31 -175 31q-53 0 -104 -12q-27 -7 -50 -7q-45 0 -72 27q-34 35 -48 128v-508zM355 836q159 87 264 171q153 120 153 205q0 26 -14 48q-21 34 -100 34q-46 0 -114 -12
q-151 -29 -210 -64q21 -73 21 -382zM525 1481q275 -4 336 -26q154 -56 154 -198q0 -46 -16 -100q-28 -96 -178 -342q229 -44 359 -149q116 -94 116 -218q0 -58 -25 -123q-81 -203 -399 -265q-99 -20 -265 -32q-181 -14 -229 -22q-38 -6 -72 -6q-164 0 -215 147q-7 20 -7 47
q0 57 31 147q40 121 40 186q0 13 -1 23q-1 3 -22 432q-1 29 -19 151q-16 116 -18 183v12q0 207 133 207q53 -51 297 -54z" />
    <glyph glyph-name="C" unicode="C" horiz-adv-x="1616" 
d="M1023 1349q76 -51 82 -103q1 -5 1 -10q0 -56 -84 -106q-8 -5 -26 -5q-41 0 -134 28q-152 45 -185 45q-197 0 -302 -198q-81 -150 -102 -335v-21q0 -199 92 -322q90 -138 256 -138q63 0 137 20q23 5 472 172q6 2 61 28q53 25 89 38q52 18 83 18q40 0 46 -31q17 -84 17 -99
v-1q-3 -43 -58 -70q-376 -187 -449 -216q-212 -85 -358 -85q-53 0 -97 11q-257 66 -386 310q-95 179 -95 396q0 51 5 105q27 280 187 467q175 206 444 206q153 0 304 -104z" />
    <glyph glyph-name="D" unicode="D" horiz-adv-x="1507" 
d="M488 619v-13q0 -35 -8 -106q-8 -72 -8 -112v-14q6 -124 124 -124q15 0 32 2q323 41 470 139q69 46 95 123q46 138 50 146q0 190 -309 340q-117 57 -463 166q0 -327 17 -547zM672 1312q70 -28 220 -82q117 -42 143 -56q428 -237 428 -549q0 -297 -264 -453
q-154 -90 -392 -129q-12 -2 -171 -2q-133 0 -165 -21q0 -101 -66 -101q-34 0 -86 27q-98 51 -221 171q-37 36 -37 65q0 28 31 50q44 32 134 48q53 9 55 77q0 21 -4 62q-4 45 -4 63q0 494 -44 648q-51 183 -51 239v8q10 141 205 141q0 -88 289 -206z" />
    <glyph glyph-name="E" unicode="E" horiz-adv-x="1551" 
d="M265 1453q25 -34 25 -91q63 42 162 42q18 0 37 -1q15 -1 105 -12q56 -6 94 -6h10q174 6 496 42q48 -59 54 -130q1 -6 1 -12q0 -74 -85 -74h-551q-187 0 -261 -28q-55 -22 -55 -122q0 -21 2 -46q4 -40 19 -116q13 -72 15 -96q233 42 575 42q95 0 180 -61q39 -29 39 -59v-6
q-5 -39 -77 -74q-42 -21 -108 -21q-31 0 -68 5q-172 23 -176 23h-5q-80 0 -272 -32q-79 -14 -82 -112v-7q0 -46 23 -167q18 -97 121 -103h19q31 0 82 4q76 8 108 8q35 0 188 16q161 17 254 19h30q288 0 288 -132q0 -115 -509 -117h-27q-148 0 -354 10q-229 10 -240 10
q-182 0 -206 312q-5 55 -5 138q0 52 2 115q3 87 3 139q0 41 -2 59q-2 20 -29 167q-25 138 -31 226q-3 35 -3 66q0 220 131 220q55 0 83 -38z" />
    <glyph glyph-name="F" unicode="F" horiz-adv-x="1277" 
d="M695 1528l193 -5q171 -5 284 -20q279 -36 279 -136q0 -29 -23 -63q-31 -46 -130 -46q-69 0 -171 22q-340 74 -350 74h-402q46 -287 59 -409q7 -63 34 -70q0 2 99 2q37 0 161 18q134 19 204 22q20 1 38 1q210 0 210 -129q-14 -101 -194 -114q-29 -2 -67 -2q-37 0 -83 2
q-115 5 -124 5q-8 0 -46 4q-46 4 -72 5q-27 2 -48 2q-52 0 -62 -11q-14 -14 -14 -57q0 -55 23 -159q10 -46 34 -139q19 -75 22 -94q10 -63 10 -116t-10 -95q-17 -78 -67 -78q-35 0 -86 38q-73 55 -96 304q-26 299 -56 368q-12 28 -44 38q-15 4 -65 7q-90 7 -108 70
q6 53 41 74q13 7 69 22q43 11 58 35q11 19 11 53q0 26 -6 59q-2 6 -38 139q-31 113 -40 187q-5 39 -5 71q0 165 127 165q68 -15 451 -44z" />
    <glyph glyph-name="G" unicode="G" horiz-adv-x="1660" 
d="M1226 1340q75 -46 79 -84v-5q0 -42 -91 -66q-57 0 -135 13q-100 17 -120 19q-17 2 -34 2q-115 0 -215 -72q-164 -119 -296 -328q-116 -182 -116 -316q0 -49 16 -92q42 -111 137 -117h11q77 0 180 63q199 121 296 277q-77 -7 -155 -7q-89 0 -180 9q-105 10 -122 32
q-3 4 -3 9q0 26 95 64q233 95 494 139q130 22 231 22q179 0 262 -71q20 -17 20 -64v-4q-2 -49 -29 -58q-32 0 -146 -29q-80 -20 -90 -23q-28 -10 -36 -26q-1 -3 -1 -172q0 -77 42 -184q43 -108 43 -160q0 -64 -55 -69h-8q-42 0 -89 30q-121 78 -167 350q-19 -10 -214 -156
q-132 -99 -252 -119q-42 -4 -80 -4q-137 0 -230 55q-129 84 -178 246q-18 59 -18 123q0 93 37 199q58 167 192 324q133 156 298 250q176 100 339 100q126 0 288 -100z" />
    <glyph glyph-name="H" unicode="H" horiz-adv-x="1551" 
d="M1360 1530q96 0 96 -151q0 -20 -2 -44q-4 -60 -22 -150q-20 -98 -20 -103q-4 -36 -4 -126q0 -151 12 -454q3 -74 3 -279q-25 -62 -72 -91q-31 -20 -64 -20q-12 0 -24 3q-45 10 -71 53q-22 37 -22 89q0 14 2 30q19 189 19 249q0 142 -24 160q-14 11 -93 11q-35 0 -82 -2
q-561 -27 -561 -39q0 -243 32 -514q13 -110 13 -164q0 -17 -1 -28q-10 -83 -58 -83q-27 0 -67 27q-66 44 -98 163q-16 57 -32 192q-15 124 -19 291q-2 81 -55 128q-52 47 -52 115v3q0 70 84 81q4 20 4 52q0 18 -1 41q-2 26 -2 46q0 31 4 49t4 42q0 28 -5 64q-6 46 -6 77
q0 18 2 30q0 65 40 110q35 41 86 50q13 2 24 2q37 0 63 -21q40 -32 40 -99v-443h440q295 30 300 192q6 217 20 285q38 177 151 177q9 0 18 -1z" />
    <glyph glyph-name="I" unicode="I" horiz-adv-x="1182" 
d="M931 1478q85 0 119 -70q13 -26 13 -51q0 -45 -40 -87q-35 -38 -116 -39q-24 0 -67 3q-45 3 -61 3q-28 0 -50 -557q-8 -194 -8 -321q0 -237 28 -237q375 0 375 -100q0 -37 -50 -87q-58 -58 -225 -58q-78 0 -181 13q-84 11 -253 41q-149 26 -199 30q-107 9 -145 48
q-15 15 -15 33q0 37 65 86q43 32 153 32q17 0 37 -1q34 -2 111 -9q66 -5 93 -5q-43 107 -43 281q0 89 11 194q24 230 24 368q0 79 -8 128q-3 18 -3 41q0 14 1 29q1 20 1 33t-1 19q-7 46 -105 59q-6 1 -18 1q-18 0 -47 -2t-50 -2q-16 0 -27 1q-84 8 -84 84v11q29 68 85 94
q41 20 116 21q200 4 257 38q164 -65 307 -65z" />
    <glyph glyph-name="J" unicode="J" horiz-adv-x="1464" 
d="M923 1746q52 2 96 2q56 0 99 -3q240 -16 254 -122q0 -90 -44 -121q-33 -23 -118 -23q-121 0 -131 -181q-1 -18 -1 -45q0 -45 3 -113q3 -64 3 -105q0 -24 -1 -39q-39 -427 -56 -522q-53 -314 -178 -487q-54 -74 -150 -74q-16 0 -34 2q-104 14 -235 99q-269 175 -348 360
q-27 64 -27 94q0 29 24 29q22 0 64 -24q76 -43 204 -158q115 -103 144 -123q84 -61 140 -61q18 0 32 6q126 167 170 546q14 116 25 310q13 205 20 269q-10 41 -10 92q0 63 -1 68q-3 30 -21 42q-21 15 -71 15h-425q-58 0 -101 25q-30 18 -30 41q0 20 21 43q63 69 253 108
q56 12 152 26q97 14 125 19q-5 0 153 5z" />
    <glyph glyph-name="K" unicode="K" horiz-adv-x="1442" 
d="M163 1658q15 2 28 2q138 0 149 -241v-2q0 -32 -28 -376q74 11 208 114l119 97l121 100q143 112 229 137q28 8 53 8q76 0 120 -73q5 -15 5 -30q0 -94 -174 -217q-60 -42 -163 -103q-99 -58 -117 -71q-151 -112 -210 -174v-4q0 -38 107 -137q34 -31 89 -77q53 -44 61 -52
q281 -263 475 -396q17 -11 43 -20q31 -11 38 -15q38 -20 38 -86q-13 -43 -44 -66q-21 -16 -44 -16q-15 0 -30 7q-182 81 -459 328q-297 264 -443 343q33 -346 33 -467q0 -35 -3 -51q-12 -70 -25 -88q-16 -23 -70 -32q-140 0 -151 139q0 5 24 243q-46 319 -63 687
q-6 120 -6 216q0 373 90 373z" />
    <glyph glyph-name="L" unicode="L" horiz-adv-x="1247" 
d="M376 1023q3 -69 3 -151q0 -109 -5 -241l-10 -264q0 -108 6 -136q9 -44 21 -60q9 -14 27 -14h2q6 0 46 9q37 8 68 8q21 0 148 5q63 3 113 3q40 0 72 -2q230 -12 276 -120q12 -27 12 -48q0 -56 -90 -56q-19 0 -43 3q-43 5 -140 25q-70 14 -93 14h-5q-118 -13 -398 -58
q-152 25 -192 90q-11 18 -52 201q-12 53 -12 444q0 55 -22 211q-27 181 -33 266q-3 47 -3 89q0 248 122 292q162 0 182 -510z" />
    <glyph glyph-name="M" unicode="M" horiz-adv-x="1834" 
d="M366 1513q69 -275 121 -384q190 -401 242 -535q22 -59 37 -59t43 60q68 144 243 598q6 16 32 113t49 156q64 168 147 168q13 0 27 -4q63 0 99 -140q8 -30 32 -185q96 -635 147 -827q7 -25 105 -293q68 -187 68 -296q-30 -5 -56 -5q-87 0 -140 52q-52 51 -99 190
q-11 31 -41 186q-39 206 -59 297q-88 397 -163 397q-124 -354 -178 -483q-149 -363 -222 -363q-8 0 -15 4q-79 48 -112 48q-40 0 -79 127q-10 33 -27 102q-15 58 -21 75q-46 126 -75 175q-55 96 -130 122q0 -408 -6 -442q-27 -157 -80 -239q-27 -42 -54 -42q-50 0 -97 143
q11 130 14 349q3 266 7 338q0 29 -18 176q-18 152 -20 244v23q0 288 146 288q100 0 133 -134z" />
    <glyph glyph-name="N" unicode="N" horiz-adv-x="1507" 
d="M356 1592q82 -218 84 -221q38 -53 116 -149q82 -100 117 -148q27 -36 85 -129l101 -158q131 -193 215 -222q0 38 -16 245q-17 241 -23 379q-5 106 -5 189q0 311 65 315h8q162 0 188 -342q5 -67 5 -152q0 -57 -2 -121q-1 -35 -5 -113q-2 -58 -2 -79q0 -330 17 -442
q4 -29 38 -124q38 -110 52 -167q17 -69 17 -120q0 -108 -76 -138q-12 -5 -25 -5q-79 0 -180 197q-26 50 -85 180q-46 101 -65 127q-242 337 -566 639v-468q0 -241 -51 -472q-15 -72 -54 -79q-5 -1 -10 -1q-29 0 -64 35q-39 38 -65 96q-22 50 -22 91q0 8 1 15q34 317 34 567
q0 187 -19 336q-1 13 -32 122q-32 114 -44 189q-10 60 -10 106q0 145 102 145q129 0 176 -123z" />
    <glyph glyph-name="O" unicode="O" horiz-adv-x="1595" 
d="M771 1431q26 -37 26 -64q0 -12 -5 -22q-12 -27 -63 -47q-175 -69 -181 -75q-50 -47 -100 -138l-84 -153q-52 -82 -53 -187v-4q0 -97 43 -191q44 -96 122 -161q82 -69 182 -86q81 -14 153 -14q177 0 303 82q180 117 180 362q0 20 -1 41q-20 324 -174 497q-85 96 -135 134
q-78 60 -137 60q-36 0 -65 -23zM1336 1321q172 -286 172 -631q0 -302 -164 -439q-86 -72 -494 -145q-93 -17 -175 -17q-541 0 -589 738v13q0 86 71 220q71 135 190 273q120 141 240 228q131 95 220 95q327 0 529 -335z" />
    <glyph glyph-name="P" unicode="P" horiz-adv-x="1182" 
d="M392 805q297 100 342 124q156 85 156 210q0 30 -9 63q-57 202 -221 236q-50 10 -104 10q-45 0 -92 -7q-138 -22 -138 -106q0 -225 66 -530zM268 1695q61 -41 77 -41q2 0 3 1q21 10 86 10q37 0 88 -3q494 -33 588 -391q17 -65 17 -131q0 -39 -6 -78q-17 -118 -82 -188
q-50 -54 -355 -174l-292 -115q0 -288 42 -490q12 -56 12 -96q0 -44 -14 -71q-16 -32 -47 -32q-13 0 -27 5q-49 16 -93 77q-48 66 -60 148q-24 160 -32 469q-8 322 -28 472q-4 27 -37 158q-33 133 -45 214q-8 57 -8 103q0 179 116 212q18 -6 97 -59z" />
    <glyph glyph-name="Q" unicode="Q" horiz-adv-x="1834" 
d="M1085 899l28 -43q27 -39 47 -65q66 -87 98 -87q48 17 58 121q3 27 3 55q0 47 -8 98q-46 317 -214 431q-142 96 -467 96q173 -174 455 -606zM427 315q118 -62 252 -62q48 0 99 8q190 31 318 163q31 32 31 82q0 106 -146 293q-47 59 -320 345q-134 142 -134 143
q-39 30 -77 30q-42 0 -81 -35q-150 -135 -150 -383q4 -478 208 -584zM1391 1402q127 -198 127 -442q0 -94 -19 -195q-39 -205 -73 -246q-10 -12 -10 -28q0 -76 208 -256q108 -95 112 -143v-3q0 -34 -51 -34q-8 0 -17 1q-69 4 -156 47q-94 46 -150 110q-42 48 -69 61
q-11 5 -23 5q-13 0 -27 -7q-12 -6 -56 -42t-86 -58q-179 -96 -374 -96q-41 0 -82 4q-244 25 -391 190q-135 153 -171 405q-14 97 -14 187q0 294 148 508q201 290 608 330q376 0 566 -298z" />
    <glyph glyph-name="R" unicode="R" horiz-adv-x="1530" 
d="M315 1279q-3 -92 -3 -161q0 -184 23 -201q20 -14 49 -14q36 0 87 22q81 36 177 117q92 79 154 162q66 88 66 139q-87 37 -302 37q-251 -1 -251 -101zM872 1572q230 -52 230 -208q3 -20 3 -40q0 -136 -152 -293q-85 -88 -298 -242q428 -390 551 -544q5 -5 66 -55
q66 -55 100 -90q50 -52 50 -81q0 -39 -86 -39q-163 0 -356 200q-284 294 -300 305l-70 54q-59 45 -104 73q-96 62 -150 62q-25 0 -41 -13q-5 -3 -5 -56t5 -156q0 -44 13 -151q9 -77 9 -118q0 -11 -1 -20q-4 -63 -40 -72q-7 -2 -15 -2q-43 0 -120 49q-54 33 -63 101
q-2 13 -2 29q0 43 12 110q20 112 22 147v14q0 71 -29 115q-20 31 -21 138q6 8 42 65q0 152 -23 321q-3 26 -19 85q-15 58 -18 88q-2 14 -2 26q0 80 65 117q109 64 402 107q230 0 345 -26z" />
    <glyph glyph-name="S" unicode="S" horiz-adv-x="1642" 
d="M740 1600q318 0 442 -17q303 -41 303 -169q0 -20 -7 -42q-23 -69 -113 -69q-20 0 -44 4q-17 3 -178 52q-104 31 -227 31q-152 0 -332 -47q67 -128 218 -232q86 -60 297 -164q203 -101 296 -168q150 -107 216 -243q26 -54 26 -107q0 -99 -92 -195q-125 -130 -292 -152
q-149 -19 -284 -19q-202 0 -374 42q-371 90 -522 367q-45 83 -45 147q0 23 6 44q18 58 80 58q29 0 68 -13q42 -15 59 -55q10 -22 18 -84q17 -128 97 -176q178 -108 480 -133q65 -6 124 -6q234 0 359 90q78 56 78 125q0 88 -131 197q-89 73 -371 229q-34 19 -124 64
q-79 41 -124 67q-142 82 -219 171q-81 95 -97 120q-33 52 -33 96q0 19 6 37q16 47 134 89q132 47 146 61h156z" />
    <glyph glyph-name="T" unicode="T" horiz-adv-x="1833" 
d="M1076 1706q4 0 175 -17q145 -15 242 -34q263 -50 263 -143q0 -15 -7 -31q0 -72 -158 -72q-37 0 -83 4q-75 7 -183 26q-114 20 -117 20q-65 -430 -65 -910v-15q0 -84 3 -255q3 -168 3 -254q-28 -34 -60 -34q-28 0 -60 27q-43 38 -82 116q-44 86 -44 235v7q2 251 3 251
q-4 52 -4 113q0 126 18 289l26 204q16 127 23 204q-402 1 -750 10h-25q-25 0 -44 1q-92 6 -102 46q-4 17 -4 31q0 40 31 68q35 31 96 38q41 4 100 4q50 0 113 -3q111 -6 173 -6q23 0 40 1q25 1 323 79h156z" />
    <glyph glyph-name="U" unicode="U" horiz-adv-x="1334" 
d="M1034 1729q10 1 20 1q103 0 103 -148q0 -50 -13 -141q-14 -99 -15 -124q-4 -98 -4 -188q0 -373 77 -595q39 -115 41 -169v-4q0 -76 -61 -76q-20 0 -45 8q-117 35 -169 196q-32 100 -40 270q-46 -49 -167 -237q-97 -152 -191 -215q-94 -64 -188 -64q-46 0 -92 16
q-137 47 -190 207q-40 123 -40 293q0 62 5 130q6 80 24 217q20 154 26 209q2 19 2 75v30q0 41 2 66q7 120 52 154q21 16 43 16q33 0 69 -35q49 -46 69 -106q3 -10 3 -37q0 -64 -18 -220q-36 -309 -42 -417q-4 -69 -4 -126q0 -139 26 -201q22 -52 64 -52q47 0 117 64
q212 192 325 572q6 20 67 341q55 290 66 290h78z" />
    <glyph glyph-name="V" unicode="V" horiz-adv-x="1443" 
d="M1167 1726q26 7 48 7q113 0 113 -173q0 -122 -57 -331q-18 -65 -251 -716q-100 -278 -164 -396q-32 -60 -55 -80q-16 -14 -33 -14t-35 14q-39 32 -39 34q-6 -4 -13 -4q-91 0 -319 606q-77 205 -172 484l-61 183l-35 106q-14 39 -14 72q0 28 10 51q20 47 69 58q13 3 25 3
q36 0 72 -24q54 -35 82 -111q48 -129 100 -375q57 -266 93 -378q4 -10 27 -93q20 -72 37 -120q54 -149 120 -179q36 91 139 323q98 221 147 349q166 423 166 704z" />
    <glyph glyph-name="W" unicode="W" horiz-adv-x="1768" 
d="M273 1542q3 -10 17 -229q51 -774 51 -869q106 105 172 356q21 79 46 209q29 148 38 186q35 147 107 222q36 37 72 37q58 0 114 -100q23 -41 127 -522q84 -387 224 -431q283 1192 283 1206q30 69 91 107q24 15 44 15q41 0 61 -63q13 -39 13 -89q0 -67 -23 -154
q-13 -51 -38 -126q-35 -102 -38 -112q-10 -32 -56 -259q-51 -257 -90 -411q-119 -471 -227 -471q-16 0 -31 10q-102 65 -163 201q-35 81 -86 246q-46 127 -113 257q-49 122 -119 279q-156 -640 -233 -798q-48 -100 -107 -135q-30 -17 -60 -17q-24 0 -48 11q-113 53 -144 252
q-24 152 -69 757q-25 344 -25 422v16q2 28 28 73q27 47 31 77q122 -35 151 -153z" />
    <glyph glyph-name="X" unicode="X" horiz-adv-x="1464" 
d="M1228 1677q120 -30 120 -122q0 -58 -47 -141q-40 -69 -119 -165q-98 -119 -99 -119v1q-20 -27 -84 -97q-63 -70 -92 -109q-62 -84 -62 -147q0 -37 22 -67q76 -105 265 -397q150 -233 155 -243q40 -78 40 -120q0 -50 -55 -50q-19 0 -44 6q-36 0 -108 107l-51 81
q-28 47 -32 53q-28 40 -74 121q-55 94 -77 129q-97 152 -193 208q-108 -301 -136 -355q-85 -161 -165 -161q-48 0 -95 59q-12 14 -12 43q0 85 103 296q174 357 179 376q2 6 2 13q0 49 -78 129q-33 33 -196 174q-130 112 -174 176q-35 49 -35 88q0 32 25 57q29 29 67 29
q96 0 253 -187q76 -92 241 -345q12 13 261 390q188 284 295 289z" />
    <glyph glyph-name="Y" unicode="Y" horiz-adv-x="1356" 
d="M1054 1713q187 0 187 -166q0 -122 -101 -333q-73 -153 -217 -386q-150 -243 -162 -266q-148 -294 -158 -364v-1q0 -14 -7 -138q-4 -76 -38 -122q-38 -51 -81 -51q-18 0 -37 9q-58 27 -90 112q24 225 67 391l61 146q40 98 40 128q0 6 -1 9q-42 94 -170 261
q-126 165 -167 261l-107 233q0 75 62 94q17 5 32 5q42 0 75 -36q27 -29 178 -375q125 -285 229 -285q30 57 114 194q90 148 133 226q158 286 158 454z" />
    <glyph glyph-name="Z" unicode="Z" horiz-adv-x="1573" 
d="M1182 1704q225 0 225 -132q0 -139 -250 -425q-153 -175 -416 -420q-289 -270 -290 -270l768 -85q165 -19 192 -30q94 -37 94 -164q-43 -34 -117 -34q-29 0 -63 5t-100 21q-64 16 -91 20q-29 4 -236 13q-216 10 -353 27q-438 54 -438 212q0 7 1 15q73 92 255 231l162 121
l165 126q404 319 406 554q-206 -56 -492 -56q-44 0 -90 1q-428 12 -428 184q16 40 191 41h11q91 0 364 -14q166 -8 270 -8q57 0 95 2q165 10 165 65z" />
    <glyph glyph-name="bracketleft" unicode="[" horiz-adv-x="1290" 
d="M869 1712q55 -28 55 -79q0 -24 -12 -52q-36 -90 -121 -90q-304 25 -336 25h-3q-156 -24 -156 -235v-355q0 -41 51 -662q3 -39 4 -130q0 -99 3 -147q11 -180 71 -262q56 37 256 37h40q196 -4 300 -26q90 -18 160 -117q23 -32 23 -55q0 -9 -4 -17q-16 -32 -93 -32
q-25 0 -173 11q-41 3 -77 3q-54 0 -95 -7q-226 -40 -348 -40q-87 0 -122 20q-125 70 -142 272q-4 42 -4 112q0 28 1 60q1 37 1 67q0 60 -3 90l-71 830q-17 199 -17 333q0 72 5 125q25 286 170 391q500 0 637 -70z" />
    <glyph glyph-name="backslash" unicode="\" horiz-adv-x="1443" 
d="M552 1303q78 -93 206 -259q114 -148 144 -181q275 -309 324 -374q158 -206 158 -289q0 -56 -72 -56q-76 0 -280 250l-155 196q-84 108 -116 142q-400 411 -444 463q-225 264 -225 371q0 57 63 70q118 0 397 -333z" />
    <glyph glyph-name="bracketright" unicode="]" horiz-adv-x="1313" 
d="M316 1768q19 -2 49 -2q45 0 115 4q164 9 211 10h39q231 0 281 -67q97 -130 136 -380q8 -51 37 -406q59 -711 59 -1364q-107 -75 -287 -75h-27q-51 2 -169 13q-108 10 -164 10q-27 2 -66 2q-135 0 -408 -27q-41 60 -41 105q0 119 279 139q59 4 142 4q73 0 164 -3
q101 -4 151 -4q37 0 47 2q147 29 147 447q0 48 -2 102q-3 62 -69 694q-26 249 -68 387q-24 82 -48 102q-11 9 -77 28q-14 4 -51 4q-77 0 -251 -17l-105 -11q-34 5 -72 68q-32 54 -32 114q0 9 1 19q6 82 79 102z" />
    <glyph glyph-name="asciicircum" unicode="^" horiz-adv-x="943" 
d="M646 1157h-4q-17 0 -41 20q-21 18 -56 60q-112 131 -143 160q-27 -28 -123 -167q-33 -48 -53 -69q-23 -23 -39 -23h-4q-94 13 -102 79q-1 7 -1 15q0 55 49 128q52 79 134 145q84 68 154 85q64 -21 148 -89q85 -68 138 -143q53 -73 53 -123q0 -7 -1 -13q-9 -61 -109 -65z
" />
    <glyph glyph-name="underscore" unicode="_" horiz-adv-x="1920" 
d="M211 -104q137 -30 330 -30h13q54 1 164 5q103 4 152 4q380 0 597 -14q224 -14 287 -14q25 0 25 2l-1 1q31 -17 44 -49q7 -18 7 -38q0 -12 -3 -25q-8 -33 -31 -54q-25 -23 -59 -23q-97 0 -222 7q-40 2 -107 6q-77 4 -106 6q-130 8 -241 8q-110 0 -201 -8
q-154 -13 -347 -17q-112 -2 -348 -2q-61 0 -79 32q-8 13 -8 29q0 19 10 43q16 40 52 79q36 38 72 52z" />
    <glyph glyph-name="grave" unicode="`" horiz-adv-x="571" 
d="M97 1602q8 5 21 5q27 0 73 -23q59 -29 140 -91q169 -125 219 -199q-15 -14 -32 -25q-49 -31 -122 -31q-19 0 -39 2q-115 11 -220 76q-75 46 -107 97q-14 23 -20 45q-4 15 -4 28q0 59 69 103q11 7 22 13z" />
    <glyph glyph-name="a" unicode="a" horiz-adv-x="1120" 
d="M279 313q16 -3 32 -3q116 0 205 148q86 144 86 286q-156 0 -246 -142q-77 -120 -77 -285v-4zM834 940q24 -61 37 -173q36 -309 164 -572q7 -14 33 -54q28 -42 39 -64q22 -41 22 -68t-21 -40q-30 -20 -62 -20q-10 0 -19 2q-40 7 -77 39q-52 47 -136 176l-125 190
q-88 -131 -210 -189q-78 -38 -152 -38q-33 0 -66 8q-107 27 -157 127q-36 71 -36 166q0 53 11 113q27 141 103 247q80 112 205 169q-1 0 127 19q13 3 25 3q33 0 63 -22q18 82 107 87q83 0 125 -106z" />
    <glyph glyph-name="b" unicode="b" horiz-adv-x="987" 
d="M439 322q15 -2 29 -2q79 0 131 58q52 57 67 154q5 33 5 63q0 52 -14 95q-21 65 -59 65h-7q-111 -208 -152 -433zM279 1542q37 -32 37 -116q0 -28 -4 -61q-25 -212 -25 -663q0 -16 7 -16q6 0 19 15q17 20 64 93q112 172 153 193q67 34 125 34q76 0 137 -58
q95 -89 118 -274q8 -61 8 -118q0 -101 -25 -191q-51 -176 -187 -229q-73 -29 -182 -29q-61 0 -132 9q-225 29 -271 134q-57 131 -57 404v9q0 71 5 227q4 115 4 177v23q-2 83 -2 153q0 244 22 320q144 0 186 -36z" />
    <glyph glyph-name="c" unicode="c" horiz-adv-x="1207" 
d="M576 962h10q42 0 89 -21q53 -23 87 -60q33 -37 33 -74v-6q-4 -46 -62 -81q-53 -32 -141 -53q-121 -30 -135 -34q-68 -25 -99 -71q-33 -51 -33 -139q0 -12 1 -25q27 -181 240 -181q50 0 112 10q41 7 299 134q93 46 147 57q21 4 38 4q41 0 61 -25q24 -30 24 -61
q0 -30 -21 -61q-37 -54 -135 -110q-168 -95 -319 -124q-79 -15 -156 -15q-66 0 -131 11q-157 27 -260 113q-133 110 -152 249q-4 25 -4 49q0 100 59 201q67 117 191 204q124 86 257 109z" />
    <glyph glyph-name="d" unicode="d" horiz-adv-x="1203" 
d="M363 301q30 -30 63 -30q23 0 47 15q53 32 92 128q8 22 49 153q11 35 11 61q0 38 -25 53q-14 8 -32 8q-31 0 -74 -22q-70 -36 -121 -103q-57 -76 -57 -155q0 -62 47 -108zM864 1570q29 7 53 7q117 0 117 -169v-10q-1 -63 -20 -183q-19 -117 -19 -149q0 -286 153 -920
q-25 -12 -50 -12q-87 0 -160 155q-20 41 -65 161q-35 90 -54 113q-44 -217 -98 -316q-90 -167 -252 -167q-180 0 -299 153q-96 124 -96 269q0 33 5 66q49 340 587 389q51 38 70 135q9 49 16 188q7 124 24 181q25 85 88 109z" />
    <glyph glyph-name="e" unicode="e" horiz-adv-x="1061" 
d="M311 582q1 -54 42 -54h4q40 3 96 50q56 45 94 104q39 60 39 105v6q-108 -2 -185 -52q-90 -59 -90 -159zM822 872q4 -23 4 -47q0 -77 -41 -167q-49 -106 -142 -199q-91 -91 -184 -132q114 -233 308 -233q54 0 151 71q80 58 106 58q4 0 6 -1q65 0 65 -57q0 -23 -10 -54
q-26 -81 -70 -131q-56 -64 -166 -78q-30 -4 -62 -4q-61 0 -129 14q-117 23 -224 127q-27 27 -88 94q-57 63 -92 95q-126 116 -139 171q-5 21 -5 76q0 69 -6 127q-3 24 -3 47q0 190 179 303q152 97 348 97q32 0 64 -2q110 -65 130 -175z" />
    <glyph glyph-name="f" unicode="f" horiz-adv-x="1099" 
d="M671 1707q8 1 15 1q102 0 194 -136q25 -36 133 -251q1 -11 1 -22q0 -78 -50 -141q-23 -29 -47 -29q-4 0 -8 1q-33 6 -61 66q-76 161 -129 199q-21 15 -40 15q-56 0 -101 -125q-43 -122 -58 -223q-6 -39 -6 -68q0 -100 65 -100q25 0 113 6q92 6 146 7h13q174 0 222 -51
q54 -58 54 -99q0 -72 -174 -86q-43 -3 -100 -3t-127 3l-162 9q0 -17 70 -334q27 -121 27 -196q0 -74 -27 -101q-22 -22 -44 -22q-74 0 -148 246q-17 58 -92 407q-20 14 -75 14q-29 0 -69 -4q-48 -5 -83 -5q-51 0 -74 11q-50 25 -50 56q0 34 62 76q94 64 178 79
q101 19 111 163q1 14 1 47t-1 84v18q0 71 7 112q1 10 14 107q9 67 20 107q30 117 109 140q20 6 171 22z" />
    <glyph glyph-name="g" unicode="g" horiz-adv-x="1182" 
d="M286 543q10 -73 57 -73q54 0 160 100q137 130 231 272q-18 1 -35 1q-127 0 -252 -70q-161 -91 -161 -230zM1032 791q103 -261 103 -571q0 -38 -2 -76q-15 -385 -184 -578q-128 -145 -320 -145q-110 0 -240 47q-72 26 -188 127q-65 58 -65 86q0 29 65 29q24 0 269 -66
q53 -14 99 -14q93 0 161 58q167 146 167 387q0 19 -1 40q-4 66 -30 235q-24 151 -24 236q-30 -19 -153 -124q-117 -102 -193 -148q-100 -60 -180 -60q-120 0 -194 135q-53 98 -53 194q0 42 10 84q29 122 141 225q102 95 245 151q140 56 269 56q177 0 298 -308z" />
    <glyph glyph-name="h" unicode="h" horiz-adv-x="1204" 
d="M127 1715q25 5 46 5q106 0 117 -126q2 -17 2 -39q0 -40 -6 -97q-10 -101 -10 -124v-29q0 -109 19 -293q23 -220 23 -291q20 22 59 100q49 100 71 137q88 145 183 145q16 0 32 -4q101 -26 180 -178q32 -63 96 -244q68 -194 135 -475q9 -38 9 -66q0 -49 -27 -67
q-12 -8 -25 -8q-36 0 -84 59q-31 37 -144 399q-96 307 -189 307l-282 -597q-5 -10 -17 -43q-13 -34 -22 -53q-28 -63 -59 -68q-157 54 -165 199v7q0 57 45 281q2 7 2 26q0 109 -48 606q-14 150 -14 258q0 247 73 273z" />
    <glyph glyph-name="i" unicode="i" horiz-adv-x="444" 
d="M240 1404q104 0 104 -74q0 -18 -6 -41q-27 -97 -98 -149q-12 -3 -24 -3q-37 0 -65 30q-34 36 -39 93q-1 8 -1 16q0 48 27 82q34 46 102 46zM301 851q45 -145 62 -348q8 -91 8 -169q0 -100 -13 -178q-26 -156 -96 -156h-1q-93 0 -127 189q-11 61 -21 252q-2 32 -22 152
q-21 121 -24 188q-1 18 -1 34q0 194 130 194q57 0 105 -158z" />
    <glyph glyph-name="j" unicode="j" horiz-adv-x="705" 
d="M552 1417q12 -19 12 -42q0 -24 -13 -53q-51 -119 -182 -173q-64 16 -79 67q-4 14 -4 30q0 32 16 73q22 52 62 98q39 45 70 54q90 -10 118 -54zM434 1021q23 6 43 6q122 0 144 -228q4 -37 4 -94q0 -107 -14 -283q-34 -434 -42 -481q-60 -356 -216 -397q-15 -4 -32 -4
q-60 0 -153 48q-105 54 -105 115q0 15 6 30q0 43 54 43h5q9 0 85 -16q5 -1 9 -1q31 0 53 43q4 9 30 84q22 65 71 315q40 200 40 247q0 14 -4 14q-1 10 -21 119q-20 113 -28 188q-5 52 -5 93q0 159 76 159z" />
    <glyph glyph-name="k" unicode="k" horiz-adv-x="1095" 
d="M213 1657q146 -53 146 -276q0 -29 -3 -62q-5 -69 -33 -232q-24 -141 -24 -201q44 0 126 73q24 21 73 69l75 71q88 78 142 88q8 1 16 1q59 0 92 -83q10 -24 10 -49q0 -58 -54 -120q-45 -50 -179 -145q-125 -90 -159 -136q-23 -33 -23 -64q0 -39 37 -75q20 -19 347 -164
q119 -53 169 -94q44 -37 44 -71q0 -16 -9 -31q0 -43 -62 -43q-78 0 -252 67q-87 34 -226 95q-114 51 -125 53q0 -12 4 -66q5 -54 5 -85q0 -106 -41 -106q-158 0 -188 148q-9 47 -10 140q-1 109 -5 145q-58 541 -60 630v44q0 424 167 479z" />
    <glyph glyph-name="l" unicode="l" horiz-adv-x="444" 
d="M274 1668q85 -102 85 -191q0 -6 -1 -13q-3 -31 -20 -100q-20 -81 -28 -133q-13 -80 -13 -245q0 -58 2 -127q4 -191 15 -544v-12q0 -72 -34 -105q-23 -22 -55 -22q-12 0 -25 3q-47 12 -83 52q-38 44 -38 95q-5 18 -5 47q0 35 7 87q13 102 13 136v5q-15 233 -15 409
q0 384 2 394q30 264 193 264z" />
    <glyph glyph-name="m" unicode="m" horiz-adv-x="1595" 
d="M1328 949q38 -84 61 -264q37 -286 38 -291q27 -149 80 -194q35 -30 35 -69q0 -35 -27 -59q-25 -22 -57 -22q-6 0 -11 1q-44 5 -84 46q-72 75 -128 246q-62 189 -98 241q0 -108 -115 -296q-52 -85 -102 -133q-49 -47 -85 -47q-5 0 -10 1q-136 29 -194 179q-10 25 -63 273
q-74 -37 -128 -185q0 -2 -68 -231q-40 -22 -75 -22q-66 0 -110 84q-39 74 -58 213l-26 191l-26 191q-3 24 -3 44q0 55 24 78q15 14 35 14q21 0 46 -14q50 -27 86 -88q41 -68 41 -144q44 0 72 52q17 31 39 113q23 82 38 112q27 52 69 52q110 0 170 -87q42 -60 73 -192
q57 -246 57 -262q0 -1 -1 -1q4 -6 10 -6q11 0 29 28q25 41 81 171q0 2 34 90q30 77 56 131q81 171 147 171q97 0 148 -115z" />
    <glyph glyph-name="n" unicode="n" horiz-adv-x="1124" 
d="M567 1037h5q201 0 366 -458q0 -103 121 -277q35 -51 101 -136q65 -83 84 -111q-11 -65 -51 -65q-81 0 -283 263q-90 117 -212 297q-105 157 -109 160q-160 -350 -262 -486q-41 -55 -90 -67q-13 -3 -25 -3q-31 0 -59 19q-39 25 -59 74q-15 38 -15 79q0 15 2 31q1 7 1 46
q0 59 -2 191v29q0 151 29 196q0 44 37 61q18 7 39 7q20 0 44 -6q49 -13 82 -46q38 -36 38 -82q6 9 37 62q35 58 59 94q81 124 122 128z" />
    <glyph glyph-name="o" unicode="o" 
d="M306 297q23 -11 71 -11q47 0 85 16q26 11 82 47q102 65 141 113q57 67 57 161q0 -34 -42 -34q-67 0 -240 85q-23 11 -43 11q-65 0 -107 -108q-42 -107 -42 -223q7 -42 38 -57zM959 794q38 -66 38 -146q0 -67 -27 -144q-57 -163 -200 -280q-153 -125 -330 -129
q-104 0 -186 46q-76 43 -122 121q-59 98 -59 214q0 70 22 147q30 107 112 177q78 67 191 92q2 1 4 1q15 0 49 -22q35 -23 51 -23h3q14 53 55 81q39 27 95 27q224 -24 304 -162z" />
    <glyph glyph-name="p" unicode="p" horiz-adv-x="987" 
d="M301 268h-1q0 -1 3 -1q21 0 216 24q52 6 81 37q35 38 50 125q5 28 5 61q0 62 -18 141q-34 147 -110 147q-226 -150 -226 -534zM814 745q58 -162 58 -292q0 -57 -11 -108q-47 -221 -204 -266q-45 -13 -356 -13q-1 -8 -1 -25q0 -51 13 -176q3 -27 3 -51q0 -90 -41 -148
q-11 -16 -30 -16q-25 0 -64 29q-57 41 -76 78q-39 75 -39 207v19q0 45 6 121q7 83 8 112q0 19 1 117q0 82 3 135q12 165 67 239q78 104 173 187q132 116 223 116q171 0 267 -265z" />
    <glyph glyph-name="q" unicode="q" horiz-adv-x="991" 
d="M619 660v8q0 41 -19 50q-9 4 -22 4q-40 0 -123 -43q-91 -48 -126 -82q-53 -53 -53 -131q0 -46 50 -46q9 0 20 2q94 13 113 13h4q17 -4 33 -4q59 0 91 63q32 62 32 166zM702 985q135 -28 135 -312q0 -51 -4 -111q-9 -117 -39 -307q-31 -190 -33 -227q-17 -220 -17 -276
q2 -3 7 -3q13 0 45 20q18 11 99 67q154 108 210 108q3 -13 3 -28q0 -51 -32 -128q-40 -96 -108 -182q-73 -93 -147 -131q-42 -21 -78 -21q-37 0 -69 22q-130 89 -148 382q-3 52 -3 117q0 54 2 118q7 182 7 190q-8 -4 -118 -102q-75 -68 -137 -68q-192 0 -192 198q0 35 6 76
q36 243 209 402q159 147 402 196z" />
    <glyph glyph-name="r" unicode="r" horiz-adv-x="965" 
d="M751 943q73 -58 106 -123q15 -30 15 -50q0 -25 -22 -34q-11 -5 -27 -5q-49 0 -146 49q-19 9 -38 9q-95 0 -182 -243q-46 -129 -101 -390q-14 -67 -25 -90q-10 -21 -24 -21h-2q-9 2 -38 22q-35 24 -62 36q-79 34 -89 101q-2 13 -2 36q0 16 1 36q1 30 1 53t-1 40
q-10 164 -10 265q0 86 7 127q19 108 75 108q55 0 147 -105q104 253 253 253q82 -10 164 -74z" />
    <glyph glyph-name="s" unicode="s" horiz-adv-x="1247" 
d="M724 1088q73 -8 107 -18q123 -37 123 -183q-5 -9 -205 -27q-186 -17 -230 -17q62 -75 317 -220q226 -130 287 -252q49 -98 49 -187q0 -30 -6 -59q-25 -132 -164 -182q-119 -43 -258 -43q-69 0 -143 11q-208 30 -383 131q-75 43 -129 125q-41 64 -41 117q0 31 13 58
q0 35 18 58q17 22 43 26q6 1 12 1q18 0 34 -11q22 -16 29 -51q48 -241 474 -241q140 5 217 49q55 32 55 77q0 43 -51 99q-79 87 -334 190q-234 94 -296 197q-38 64 -38 118q0 85 94 145q88 57 309 106q27 -9 97 -17z" />
    <glyph glyph-name="t" unicode="t" horiz-adv-x="941" 
d="M431 1436h13q92 0 128 -67q26 -47 26 -131q0 -22 -2 -45q-5 -68 -32 -210q-24 -128 -24 -171q24 1 46 1q135 0 227 -26q133 -39 133 -126q0 -30 -16 -65q0 -63 -152 -63h-19q-48 1 -132 10q-63 6 -82 6h-5q0 -31 15 -137q17 -126 22 -185q4 -43 4 -77q0 -154 -69 -154
q-74 0 -94 37q-6 10 -28 116q-22 107 -49 279q-17 112 -63 132q-16 7 -62 13q-57 8 -96 18q-104 28 -104 66v4q4 32 83 81q22 14 74 44q50 28 74 44q81 51 89 88v283q0 192 95 235z" />
    <glyph glyph-name="u" unicode="u" 
d="M355 806q1 -13 1 -27q0 -76 -26 -205q-37 -178 -39 -216q-1 -9 -1 -16q0 -79 55 -79q68 0 110 94q27 63 53 207q30 164 43 207q30 94 79 94q147 0 234 -216q25 -63 60 -186q34 -123 50 -163q21 -52 21 -93q0 -29 -10 -53q-20 -49 -75 -49q-22 0 -50 8q0 60 -63 167
q-44 90 -119 190q-12 -216 -88 -299q-71 -77 -175 -96q-30 -6 -59 -6q-71 0 -132 36q-94 56 -124 180q-27 114 -27 243q0 71 8 147q13 123 52 193q46 83 126 83q86 -29 96 -145z" />
    <glyph glyph-name="v" unicode="v" horiz-adv-x="943" 
d="M132 874q15 3 29 3q108 0 182 -184q27 -68 54 -173q4 -19 18 -77q10 -41 15 -59q58 0 97 97q13 33 59 203q36 130 72 175q30 37 69 37q30 0 66 -22q66 -24 66 -105q0 -65 -43 -167q-30 -70 -86 -170q-58 -102 -62 -111q-15 -35 -42 -121q-24 -76 -42 -109
q-27 -51 -66 -65q-17 -6 -37 -6q-35 0 -80 19q-68 29 -99 94q-11 22 -24 63q-16 51 -22 68q-3 6 -18 41l-32 76q-50 118 -79 208q-46 139 -46 210q0 75 51 75z" />
    <glyph glyph-name="w" unicode="w" horiz-adv-x="1225" 
d="M335 922v-18q0 -56 -10 -143q-13 -117 -14 -141q4 5 99 255q79 209 157 216q116 0 195 -231q62 -182 62 -326q54 0 94 228q12 72 23 167q3 25 7 62q3 29 4 35q18 0 50 24q26 20 49 20q4 0 8 -1q79 0 81 -94q0 -30 -20 -129q-7 -35 -23 -178q-18 -153 -33 -239
q-53 -301 -148 -301q-85 0 -146 110q-20 34 -46 98q-29 70 -40 91q-59 115 -86 149q-18 22 -33 22q-9 0 -16 -7q-14 -14 -43 -88q-40 -98 -70 -156q-30 -57 -74 -90q-43 -33 -89 -36h-6q-44 0 -80 30q-43 35 -66 105q-48 145 -48 384v29q4 306 110 364q145 -22 152 -211z
" />
    <glyph glyph-name="x" unicode="x" horiz-adv-x="1095" 
d="M378 857q16 -27 103 -211q10 10 82 90q63 69 107 111q141 135 233 135q106 -45 106 -114q0 -14 -4 -28q-18 -63 -119 -151q-177 -154 -186 -168q-23 -35 -23 -73q0 -8 1 -15q7 -52 54 -123q8 -11 88 -101q62 -69 62 -96q0 -66 -8 -90q-11 -36 -36 -36q-15 0 -34 12
q-32 19 -168 171q-105 118 -171 118h-4q-115 -109 -148 -131q-71 -50 -131 -50q-23 0 -44 7q-57 19 -57 67q0 20 11 47q26 62 87 120q17 17 52 46q33 28 47 41q48 47 52 92v9q0 53 -53 125q-142 190 -150 204q-27 51 -27 83q0 56 82 56q12 0 26 -1q83 0 170 -146z" />
    <glyph glyph-name="y" unicode="y" horiz-adv-x="1138" 
d="M412 985q97 -46 97 -164q0 -39 -11 -87q-14 -61 -53 -157q-47 -116 -53 -134q50 38 153 177q117 158 166 208q79 80 139 80q12 0 23 -3q83 -22 139 -214q48 -161 48 -339q0 -102 -16 -209q-50 -339 -239 -467q-126 -85 -323 -96q-26 -1 -50 -1q-166 0 -280 64
q-42 23 -64 66q-11 20 -11 36q0 26 28 43q47 28 127 28q20 0 43 -2q18 -1 92 -10q56 -7 87 -7q288 0 347 308q16 90 16 224v43q-1 38 -5 127q-3 75 -3 110q-31 -12 -122 -135q-124 -166 -172 -220q-106 -117 -181 -126q-6 -1 -11 -1q-86 0 -139 149q-16 36 -16 119
q0 21 1 45q5 121 32 243q31 138 81 217q53 86 119 86q5 0 11 -1z" />
    <glyph glyph-name="z" unicode="z" horiz-adv-x="1442" 
d="M614 945q32 2 60 2q153 0 193 -68q14 -24 14 -56q0 -58 -47 -141q-59 -106 -180 -231q-103 -108 -190 -170q305 40 476 40h16q379 -5 403 -171q3 -18 3 -33q0 -73 -62 -73h-4q-34 2 -151 49q-94 37 -227 37q-49 0 -104 -5q-59 -6 -172 -23q-114 -18 -165 -23
q-62 -6 -116 -6q-87 0 -151 16q-139 35 -139 140q0 24 7 52q0 57 78 115q45 34 173 102q125 67 175 106q82 63 88 127q-11 -2 -85 -20q-68 -17 -113 -23q-28 -4 -52 -4q-98 0 -124 60q-13 31 -13 57q0 84 133 119q92 25 276 25z" />
    <glyph glyph-name="braceleft" unicode="{" horiz-adv-x="726" 
d="M430 1781q99 -14 99 -88q0 -45 -37 -112q-28 -49 -95 -141q-62 -85 -74 -110q7 -29 93 -185q49 -88 49 -141q0 -20 -7 -35q-41 -72 -114 -112q0 -65 28 -85q45 -33 66 -80q10 -23 10 -54q0 -59 -37 -144l-51 -104q-31 -61 -42 -92q-10 -28 -10 -60q0 -56 28 -125
q15 -36 90 -174l63 -84q64 -86 98 -145q42 -73 42 -110t-42 -37q-26 0 -68 13q-150 48 -288 251q-123 180 -159 350q-3 16 -3 37q0 83 49 248q33 109 33 170q0 41 -15 60q-46 58 -46 124v6q2 46 33 127q35 92 42 131q4 22 4 43q0 52 -23 99q-37 75 -37 152q0 92 52 189
q92 176 269 218z" />
    <glyph glyph-name="bar" unicode="|" horiz-adv-x="401" 
d="M330 1290v-20q0 -72 -6 -190q-6 -105 -6 -153v-20q12 -417 12 -648v-450q0 -70 -41 -93q-18 -10 -40 -10t-49 10q-53 21 -90 70q-40 54 -40 115q-23 110 -23 264q0 71 5 150t18 213q14 149 17 200v13q0 45 -13 188q-17 191 -18 304v18q0 380 165 380q104 -79 109 -341z
" />
    <glyph glyph-name="braceright" unicode="}" horiz-adv-x="878" 
d="M276 1779q24 4 45 4q107 0 144 -96q12 -31 34 -132q15 -67 57 -128q94 -136 141 -224q53 -98 53 -164q0 -39 -19 -67q-41 -61 -41 -111q0 -29 13 -54q-1 1 45 -71q33 -51 50 -101q9 -26 9 -56q0 -43 -19 -94q-8 -22 -32 -72q-21 -46 -30 -71q-26 -75 -26 -181
q0 -93 20 -211q3 -18 3 -37q0 -72 -44 -152q-52 -95 -147 -171q-96 -78 -197 -105q-46 -12 -87 -12q-58 0 -106 24q-61 30 -61 67q0 8 3 17q14 36 89 82q215 135 219 135q62 124 70 361q8 255 53 373q11 28 11 57q0 65 -53 136q-90 121 -90 204q0 46 61 101q63 56 66 90
q-76 68 -202 353q-76 174 -76 249q0 57 44 57z" />
    <glyph glyph-name="asciitilde" unicode="~" horiz-adv-x="1290" 
d="M391 926h11q87 0 178 -62q50 -34 156 -133q64 -60 106 -73q13 -4 26 -4q24 0 46 15q24 17 65 70q55 71 82 100q37 11 66 11q36 0 57 -18q28 -24 28 -77v-14q-4 -55 -32 -122q-26 -62 -57 -99q-96 -114 -192 -122q-7 -1 -14 -1q-90 0 -188 92q-111 105 -167 140
q-44 27 -79 27q-15 0 -28 -5q-40 -13 -96 -81q-18 -22 -59 -76l-76 -97q-28 -34 -53 -34h-4q-23 2 -42 34q-36 58 -36 140q0 121 88 249q44 63 96 99q58 41 118 41z" />
    <glyph glyph-name="exclamdown" unicode="&#xa1;" horiz-adv-x="466" 
d="M254 1511q-119 0 -119 75v4q2 71 86 133q46 34 81 34q12 0 23 -4q36 -14 42 -65q1 -9 1 -18q0 -43 -23 -83q-32 -56 -91 -76zM145 0q-53 12 -66 197q-4 58 -4 122q0 128 17 278q28 238 84 386q59 157 131 157q7 0 13 -1q75 -14 75 -221q0 -57 -6 -128q-9 -104 -31 -249
q-24 -160 -24 -161q-1 -12 -1 -28q0 -37 8 -97q10 -70 10 -107q0 -9 -1 -16q-5 -63 -46 -94q-50 -38 -159 -38z" />
    <glyph glyph-name="cent" unicode="&#xa2;" horiz-adv-x="1139" 
d="M281 504q-2 -17 -2 -33q0 -157 209 -201q-23 201 -30 412q-67 -4 -106 -39q-48 -42 -71 -139zM1102 233q0 -65 -103 -108q-101 -42 -270 -55v-41q0 -273 -64 -292q-6 -2 -11 -2q-81 0 -139 344q-269 52 -388 226q-78 114 -78 222q0 94 58 182q111 169 349 226
q8 309 59 326q130 0 163 -99q13 -38 13 -111q0 -49 -6 -113q91 -42 121 -125q8 -22 8 -41q0 -58 -81 -81q-21 -5 -49 -9q28 -277 36 -406q197 38 231 41q18 2 35 2q87 0 107 -46q9 -21 9 -40z" />
    <glyph glyph-name="sterling" unicode="&#xa3;" horiz-adv-x="1573" 
d="M1448 360q38 -78 38 -121q0 -31 -21 -49q-29 -25 -170 -51q-323 -61 -332 -63q-188 -51 -293 -159q-71 -75 -90 -77q-35 0 -107 79q-56 62 -72 200q-24 210 -24 226q0 1 1 1q-21 96 -48 196q-13 -2 -25 -2q-71 0 -104 66q3 71 16 92q20 33 92 37q-33 114 -44 332
q0 283 36 375q68 172 308 172q195 -34 247 -55q127 -49 127 -132q0 -23 -10 -49q0 -45 -63 -45h-5q-24 0 -156 24q-77 14 -129 14q-23 0 -41 -3q-85 -13 -110 -86q-28 -84 -28 -152q0 -39 10 -73q1 -12 3 -28q4 -34 9 -95l7 -86q11 -89 35 -108q39 -30 50 -35q19 -8 47 -8
q14 0 31 2q19 2 47 8q172 20 205 20h6q103 -17 103 -164q-3 -84 -148 -84q-26 0 -57 3q-59 5 -151 22q-82 16 -93 16q3 -52 42 -365l220 94q188 59 641 111z" />
    <glyph glyph-name="currency" unicode="&#xa4;" horiz-adv-x="1334" 
d="M581 361q59 0 141 58q87 59 120 103q48 62 48 147q0 71 -66 89q-24 6 -76 6q-23 0 -52 -1q-91 -5 -155 -139q-52 -110 -52 -201q6 -38 32 -52q19 -10 60 -10zM923 322q154 -137 154 -191q0 -6 -2 -11q-21 -62 -62 -78q-13 -6 -29 -6q-25 0 -54 16q-94 50 -147 178
q-89 -42 -176 -42q-26 0 -51 4q-71 11 -125 50q-51 -89 -155 -142q-64 -34 -117 -34q-39 0 -71 19q17 50 96 158q86 118 140 151q-17 56 -17 115q0 92 43 190q10 23 22 43q-84 57 -129 170q-24 58 -24 105q0 51 28 88q41 -20 128 -96q95 -83 137 -144q57 26 121 30l222 -2
q13 -3 35 -10q59 91 117 154q62 67 93 67q4 0 7 -1q64 -14 84 -52q9 -17 9 -37q0 -21 -9 -45q-38 -98 -159 -165q63 -64 63 -154q0 -38 -12 -82q-37 -135 -160 -246z" />
    <glyph glyph-name="yen" unicode="&#xa5;" horiz-adv-x="1356" 
d="M347 942q-126 165 -167 261l-107 233q0 75 62 94q17 5 32 5q42 0 75 -36q27 -29 157 -257q107 -216 250 -403q30 57 114 194q90 148 133 226q158 286 198 382q44 22 76 22q71 0 71 -116q0 -122 -101 -273q-73 -153 -217 -386l-45 -74q21 -1 59 -3q86 -7 139 -18
q122 -26 122 -85q0 -28 -27 -63q-16 -21 -157 -21q-33 0 -75 1q-59 2 -157 7q-8 0 -15 1q-4 -8 -6 -11l4 -165h88q4 -2 84 -6q86 -7 139 -18q122 -26 122 -85q0 -28 -27 -63q-16 -21 -157 -21q-33 0 -75 1q-59 2 -157 7q-6 0 -12 1l6 -214q-4 -76 -38 -122q-38 -51 -81 -51
q-18 0 -37 9q-58 27 -90 112q-3 152 -5 270h-156q-18 0 -68 -10q-57 -12 -82 -14q-14 -2 -26 -2q-27 0 -44 8q-29 13 -29 51q0 103 326 134q36 4 76 7q-3 132 -4 186h-149q-18 0 -68 -10q-57 -12 -82 -14q-14 -2 -26 -2q-27 0 -44 8q-29 13 -29 51q0 103 326 134
q-40 61 -99 138z" />
    <glyph glyph-name="brokenbar" unicode="&#xa6;" horiz-adv-x="346" 
d="M281 1359v-10q0 -33 -5 -87q-5 -49 -5 -71v-9q10 -193 10 -300v-207q0 -33 -34 -43q-15 -5 -33 -5t-40 5q-44 9 -75 32q-33 25 -33 53q-19 51 -19 122q0 33 4 69q4 37 15 99q12 68 14 92v6q0 21 -11 87q-14 88 -15 140v9q0 175 137 175q86 -36 90 -157zM281 190v-9
q0 -31 -5 -84q-5 -46 -5 -67v-9q10 -184 10 -287v-198q0 -31 -34 -42q-15 -4 -33 -4t-40 4q-44 10 -75 31q-33 24 -33 51q-19 49 -19 117q0 31 4 66t15 94q12 66 14 89v6q0 19 -11 83q-14 84 -15 134v8q0 168 137 168q86 -35 90 -151z" />
    <glyph glyph-name="section" unicode="&#xa7;" horiz-adv-x="1058" 
d="M371 460q-108 55 -145 114q-83 101 -83 195q0 74 52 143q0 65 72 112q-15 14 -24 29q-83 98 -83 189q0 71 51 137q0 66 79 113q73 45 257 83q22 -7 81 -13q61 -7 89 -14q102 -29 102 -143q-4 -7 -170 -21q-155 -14 -192 -14q-76 -58 -76 -121q0 -71 96 -147q2 1 4 1v-4
q85 -66 240 -135q188 -101 239 -196q41 -77 41 -146q0 -24 -5 -46q-21 -103 -137 -142q-25 -9 -52 -15q102 -71 137 -139q40 -79 40 -151q0 -24 -5 -48q-20 -106 -136 -146q-99 -35 -215 -35q-58 0 -119 9q-174 24 -319 106q-63 34 -108 100q-34 52 -34 95q0 25 11 47
q0 28 15 46q14 18 36 21q5 1 10 1q15 0 28 -9q18 -13 24 -41q40 -194 395 -194q117 4 181 39q46 26 46 62q0 35 -43 80q-66 70 -278 153q-6 2 -12 5q-46 9 -90 22v18zM476 904q-24 -1 -36 -1q-76 -61 -76 -126q0 -96 165 -201q27 -1 55 -1q116 4 180 38q46 25 46 60
q0 34 -42 78q-66 67 -278 148q-7 3 -14 5z" />
    <glyph glyph-name="dieresis" unicode="&#xa8;" horiz-adv-x="596" 
d="M46 1446q28 7 53 7q33 0 62 -12q47 -19 67 -61q12 -24 12 -48q0 -20 -8 -41q-19 -50 -76 -85q-9 -1 -17 -1q-37 0 -63 19q-29 21 -41 61q-9 28 -9 60q0 11 1 22q3 43 19 79zM383 1446q28 7 53 7q33 0 62 -12q47 -19 67 -61q12 -24 12 -48q0 -20 -8 -41q-19 -50 -76 -85
q-9 -1 -17 -1q-37 0 -63 19q-29 21 -41 61q-9 28 -9 60q0 11 1 22q3 43 19 79z" />
    <glyph glyph-name="copyright" unicode="&#xa9;" horiz-adv-x="1790" 
d="M1265 911q0 1 43 20q21 -31 21 -64q0 -77 -117 -159q-121 -84 -230 -110q-58 -13 -114 -13q-49 0 -97 10q-117 24 -194 103q-95 99 -110 222q-2 22 -2 43q0 89 42 180q48 103 137 181q91 77 193 99h12q82 0 141 -79q26 -37 26 -73v-6q-4 -47 -50 -82q-41 -31 -107 -51
q-82 -24 -91 -28q-38 -17 -56 -51q-21 -38 -21 -108q0 -11 1 -22q17 -136 140 -136q32 0 72 8q361 75 361 116zM1438 622q112 142 112 284v10q0 289 -365 544q-223 155 -522 265q-6 2 -11 2q-9 0 -17 -7q-13 -11 -14 -31q-2 -35 -62 -55q-107 -38 -154 -100
q-29 -40 -59 -139l-11 -36q-31 -99 -31 -218q0 -49 5 -101q11 -107 59 -310l4 -19q46 -194 99 -265q88 -118 284 -118q45 0 90 5q170 0 330 78q159 77 263 211zM525 1873q505 0 899 -414q162 -170 257 -368q92 -191 92 -343q0 -106 -100 -221q-92 -106 -251 -200
q-339 -200 -656 -200q-196 0 -283 96q-18 20 -62 65q-132 136 -177 210q-135 220 -135 622q5 289 70 442q94 221 346 311z" />
    <glyph glyph-name="ordfeminine" unicode="&#xaa;" horiz-adv-x="758" 
d="M272 1196q61 0 111 83q53 88 53 154q-28 8 -51 8q-63 0 -99 -57q-27 -43 -27 -101q0 -40 13 -87zM633 1584q15 -41 24 -114q22 -195 103 -360q4 -8 20 -32q18 -28 26 -43q16 -29 16 -51q0 -27 -23 -41q-27 -17 -55 -17q-9 0 -18 1q-33 7 -62 32q-35 32 -90 116
q-61 92 -62 92l3 -4q-37 -55 -121 -95q-56 -27 -109 -27q-25 0 -49 6q-80 20 -117 93q-24 48 -24 113q0 35 7 75q18 93 69 165q55 76 57 77q85 47 171 52q10 3 22 3q25 0 25 4q0 1 -2 2q6 31 84 35q72 0 105 -82z" />
    <glyph glyph-name="guillemotleft" unicode="&#xab;" horiz-adv-x="1303" 
d="M490 1122q146 0 146 -91v-4q-3 -76 -103 -209q-72 -96 -185 -210q-94 -95 -98 -95q23 -44 123 -109q10 -7 197 -117q121 -72 171 -118q52 -48 52 -88q0 -13 -5 -25q0 -48 -43 -48q-29 0 -76 22q-38 17 -87 47q-48 30 -48 31q-194 96 -255 139q-129 93 -205 240
q-26 51 -26 96q0 44 25 82q24 35 129 119q81 64 162 147q126 129 126 191zM996 1136q146 0 146 -91v-4q-3 -76 -103 -209q-72 -96 -185 -210q-94 -95 -98 -95q23 -44 123 -109q10 -7 197 -117q121 -72 171 -118q52 -48 52 -88q0 -13 -5 -25q0 -48 -43 -48q-29 0 -76 22
q-38 17 -87 47q-48 30 -48 31q-194 96 -255 139q-129 93 -205 240q-26 51 -26 96q0 44 25 82q24 35 129 119q81 64 162 147q126 129 126 191z" />
    <glyph glyph-name="logicalnot" unicode="&#xac;" horiz-adv-x="1377" 
d="M1266 456q6 -40 6 -104q0 -57 -5 -134q-2 -3 -11 -49q-10 -50 -26 -80q-34 -65 -100 -65q-37 0 -85 21q-21 9 -21 67q0 29 5 70q4 34 14 91q9 49 10 57l3 55l3 55h-32q-76 0 -192 7q-148 9 -155 9h-336q-19 0 -72 -13q-62 -15 -88 -18q-15 -2 -27 -2q-30 0 -48 10
q-31 16 -31 63q0 126 349 165q139 16 434 16q6 -2 77 -7q81 -6 133 -16q11 3 26 3q8 0 16 -1q126 -7 153 -200z" />
    <glyph glyph-name="uni00AD" unicode="&#xad;" horiz-adv-x="1377" 
d="M976 656q95 -8 154 -22q135 -33 135 -108q0 -36 -30 -81q-18 -27 -173 -27q-37 0 -83 2q-66 2 -174 9q-94 6 -109 6h-348q-20 0 -75 -13q-63 -15 -91 -18q-15 -2 -28 -2q-30 0 -49 10q-32 17 -32 65q0 131 361 171q119 13 273 16h176q5 -2 93 -8z" />
    <glyph glyph-name="registered" unicode="&#xae;" horiz-adv-x="1790" 
d="M759 1094q-2 -48 -2 -82v-74q42 26 86 62q43 38 72 76l27 27q-7 3 -105 3q-78 0 -78 -12zM1007 1284q155 -36 155 -143q2 -10 2 -23q0 -83 -89 -175q-47 -48 -122 -103q189 -172 253 -252q0 -1 29 -24q36 -30 54 -50q37 -36 37 -65q0 -60 -94 -60q-108 0 -222 118
l-144 149l-40 30q-29 22 -49 73q-6 13 -10 13q-8 0 -8 -70v-32q0 -21 6 -74q5 -42 5 -65q0 -8 -1 -14q-4 -57 -55 -71q-12 -3 -23 -3q-39 0 -91 33q-45 28 -52 78q-2 11 -2 21q0 25 8 62q9 55 10 71v6q0 27 -10 41q-15 25 -16 96q8 14 22 35q0 67 -12 151q-1 12 -9 41
q-8 32 -10 48q-1 9 -1 17q0 61 54 92q65 39 231 63q129 0 194 -14zM1451 442q112 142 112 284v10q0 289 -365 544q-223 155 -522 265q-6 2 -11 2q-9 0 -17 -7q-13 -11 -14 -31q-2 -35 -62 -55q-107 -38 -154 -100q-29 -40 -59 -139l-11 -36q-31 -99 -31 -218q0 -49 5 -101
q11 -107 59 -310l4 -19q46 -194 99 -265q88 -118 284 -118q45 0 90 5q170 0 330 78q159 77 263 211zM538 1693q505 0 899 -414q162 -170 257 -368q92 -191 92 -343q0 -106 -100 -221q-92 -106 -251 -200q-339 -200 -656 -200q-196 0 -283 96q-18 20 -62 65
q-132 136 -177 210q-135 220 -135 622q5 289 70 442q94 221 346 311z" />
    <glyph glyph-name="macron" unicode="&#xaf;" horiz-adv-x="1001" 
d="M684 1697q65 -6 105 -17q91 -25 91 -83q0 -27 -20 -62q-12 -21 -117 -21q-25 0 -57 2q-44 1 -117 7q-64 4 -74 4h-236q-13 0 -51 -10q-42 -11 -61 -13q-10 -2 -19 -2q-20 0 -33 8q-22 13 -22 50q0 100 244 131q81 10 185 12h119q4 -2 63 -6z" />
    <glyph glyph-name="degree" unicode="&#xb0;" horiz-adv-x="770" 
d="M319 1199q21 -19 46 -19q11 0 22 3q129 19 129 99q0 20 -8 43q-2 73 -30 86q-6 3 -17 3q-33 0 -116 -24q-70 -86 -72 -86q13 -75 46 -105zM377 1555q41 12 77 12q87 0 150 -70q81 -93 81 -197v-14q-6 -116 -111 -202q-67 -53 -154 -53q-39 0 -82 10q-134 32 -195 134
q-50 84 -57 137q-1 8 -1 16q0 38 24 67q10 12 151 119q54 31 117 41z" />
    <glyph glyph-name="plusminus" unicode="&#xb1;" horiz-adv-x="1399" 
d="M888 1154q25 -91 25 -257q34 3 133 18q64 10 102 10h12q54 -3 88 -30q38 -32 58 -101q2 -8 2 -15q0 -61 -155 -82q-26 -4 -220 -11q22 -173 22 -253q0 -35 -4 -53q-15 -60 -65 -75q-17 -5 -38 -5q-51 0 -125 28q23 193 23 190v10q0 132 -74 140l-574 60q-15 1 -15 14
q0 5 2 12q8 21 36 51q68 71 117 71h239q14 0 44 -2q47 -3 71 -3h11q78 0 78 26q0 29 -11 107q-12 87 -14 129q-1 17 -1 32q0 129 68 153q122 0 165 -164zM976 156q95 -8 154 -22q135 -33 135 -108q0 -36 -30 -81q-18 -27 -173 -27q-37 0 -83 2q-66 2 -174 9q-94 6 -109 6
h-348q-20 0 -75 -13q-63 -15 -91 -18q-15 -2 -28 -2q-30 0 -49 10q-32 17 -32 65q0 131 361 171q119 13 273 16h176q5 -2 93 -8z" />
    <glyph glyph-name="uni00B2" unicode="&#xb2;" horiz-adv-x="627" 
d="M330 1568q150 0 150 -139q0 -63 -36 -159q-31 -82 -87 -188q-17 -32 -35 -54l192 14h8q33 0 66 -14q33 -15 52 -38q12 -19 12 -35q0 -17 -13 -33q-25 -28 -83 -33l-84 -12q-88 -12 -152 -16q-43 -3 -77 -3q-180 0 -180 86q0 60 70 152q84 112 90 123q27 53 43 100
q14 40 14 64q-65 -35 -100 -35q-14 0 -29 5q-62 31 -62 74q0 14 6 24q12 32 69 63q98 54 166 54z" />
    <glyph glyph-name="uni00B3" unicode="&#xb3;" horiz-adv-x="638" 
d="M416 1664q8 1 19 1l88 -28q44 -31 44 -78q0 -11 -3 -22q-14 -63 -82 -127q-30 -30 -68 -58q90 -67 134 -154q21 -43 21 -75q0 -100 -154 -133q-64 -13 -132 -13q-93 0 -197 26q-39 10 -69 34q-28 25 -28 51q0 28 56 43t70 15t173 7q72 3 86 9q0 7 -18 24q-5 5 -37 28
q-44 30 -66 48q-73 59 -73 104q0 22 14 39q23 28 173 96q-60 7 -95.5 10t-73.5 3q-71 0 -96 20q-9 20 -9 39q0 83 147 109q18 3 40 3q55 0 136 -21z" />
    <glyph glyph-name="acute" unicode="&#xb4;" horiz-adv-x="603" 
d="M457 1622q12 -5 23 -11q75 -41 75 -104q0 -11 -2 -22q-4 -23 -17 -47q-29 -52 -100 -104q-101 -71 -215 -89q-31 -5 -59 -5q-60 0 -104 24q-18 9 -33 23q45 77 206 213q77 66 134 99q47 27 74 27q11 0 18 -4z" />
    <glyph glyph-name="mu" unicode="&#xb5;" horiz-adv-x="1083" 
d="M265 1156q51 -35 51 -177q0 -16 -18 -165q-13 -109 -13 -235q0 -46 2 -93q6 -170 104 -170h10q68 0 110 115q27 77 53 252q80 201 93 253q30 115 79 115q147 0 234 -264q25 -77 36.5 -191t28 -206t16.5 -142q0 -36 -10 -65q-20 -60 -75 -60q-22 0 -50 10q0 73 -63 204
q-4 110 -57 374q-74 -406 -150 -507q-71 -94 -175 -118q-30 -7 -59 -7q-65 0 -121 37q3 -146 3 -247v-354q0 -55 -33 -73q-15 -8 -33 -8q-17 0 -39 8q-43 16 -73 55q-32 42 -32 90q-19 87 -19 208q0 56 4 118t15 167q11 118 13 158v10q0 35 -10 148q-14 150 -15 239v14
q0 231 56.5 369t136.5 138z" />
    <glyph glyph-name="paragraph" unicode="&#xb6;" horiz-adv-x="1460" 
d="M805 1597q1 -3 1 -6q3 -31 3 -67q0 -18 -1 -37q-4 -81 -24 -117q-20 -133 -22 -161q-1 -27 -1 -59q0 -149 19 -413q16 -520 16 -745q0 -82 -2 -125q-4 -83 -45 -153q-38 -65 -85 -86q-14 -6 -27 -8h-5q-27 0 -44 28q-17 25 -21 69q-2 16 -2 35q0 28 4 62q10 90 10 273
q0 234 -16 618l-1 87q-316 89 -371 138q-71 64 -100 179q-9 39 -13 77q-3 26 -3 51q0 41 7 81q59 266 241 359q159 81 235 96q65 24 163 37q97 13 221 16h143q4 -2 75 -8q77 -8 125 -22q109 -33 109 -108q0 -36 -24 -81q-15 -27 -140 -27q-19 0 -42 1q21 -107 23 -267v-45
q0 -117 -8 -276l-12 -223q-5 -826 -11 -975l-1 -6q-6 -112 -77 -142q-15 -6 -29 -6h-4q-15 1 -30 9q-34 20 -54 72q-39 99 -39 291q0 47 2 100q18 672 18 720v5q0 13 -19 206q-18 191 -20 324v33q0 48 2 91q3 58 11 105h-135z" />
    <glyph glyph-name="bullet" unicode="&#xb7;" horiz-adv-x="661" 
d="M143 816q65 15 123 15q76 0 142 -25q109 -41 155 -132q25 -49 25 -101q0 -43 -18 -88q-42 -107 -175 -182q-20 -2 -39 -2q-84 0 -145 41q-65 44 -94 131q-21 61 -21 132q0 21 2 43q8 92 45 168z" />
    <glyph glyph-name="bullet" unicode="&#x2219;" horiz-adv-x="661" 
d="M143 816q65 15 123 15q76 0 142 -25q109 -41 155 -132q25 -49 25 -101q0 -43 -18 -88q-42 -107 -175 -182q-20 -2 -39 -2q-84 0 -145 41q-65 44 -94 131q-21 61 -21 132q0 21 2 43q8 92 45 168z" />
    <glyph glyph-name="bullet" unicode="&#x2022;" horiz-adv-x="661" 
d="M143 816q65 15 123 15q76 0 142 -25q109 -41 155 -132q25 -49 25 -101q0 -43 -18 -88q-42 -107 -175 -182q-20 -2 -39 -2q-84 0 -145 41q-65 44 -94 131q-21 61 -21 132q0 21 2 43q8 92 45 168z" />
    <glyph glyph-name="cedilla" unicode="&#xb8;" horiz-adv-x="585" 
d="M249 -46q-5 -17 -5 -31q0 -26 16 -43q17 -18 64 -34q13 -5 18 -8q170 -84 194 -191q3 -15 3 -30q0 -51 -40 -100q-67 -80 -297 -80q-23 0 -70 1q-31 1 -48 1q-70 0 -78 45q-1 4 -1 8q0 26 26 54q29 31 66 43q8 2 15 2q13 0 45 -6q24 -5 32 -5q61 0 124 12q69 13 76 31v2
q0 8 -22 27q-62 51 -189 103q-2 0 -12 4q-101 31 -105 67q-2 6 -2 14q0 35 32 176l162 -7q-2 -47 -4 -55z" />
    <glyph glyph-name="uni00B9" unicode="&#xb9;" horiz-adv-x="324" 
d="M309 1486q4 -54 5 -133v-89q10 -212 11 -273v-3q0 -68 -57 -94q-19 -8 -38 -8t-38 8q-31 15 -48 49q-27 56 -29 171q-1 162 -2 169q0 1 -14 80q-12 79 -16 133q-2 29 -2 53q0 162 116 162q97 -32 112 -225z" />
    <glyph glyph-name="ordmasculine" unicode="&#xba;" horiz-adv-x="805" 
d="M217 1103q17 -8 52 -8t63 12q20 8 61 35q76 48 105 84q42 49 42 119q0 -25 -31 -25q-50 0 -178 63q-17 8 -32 8q-48 0 -79 -80q-31 -79 -31 -165q5 -31 28 -43zM701 1472q28 -49 28 -108q0 -50 -20 -107q-42 -121 -148 -208q-114 -92 -245 -95q-77 0 -138 34
q-56 32 -90 90q-44 72 -44 158q0 52 16 109q23 79 83 131q58 50 142 69h3q11 0 36 -16q26 -17 38 -17h2q11 39 41 60q29 20 70 20q167 -18 226 -120z" />
    <glyph glyph-name="guillemotright" unicode="&#xbb;" horiz-adv-x="1303" 
d="M983 931q81 -83 162 -147q105 -84 129 -119q25 -38 25 -82q0 -45 -26 -96q-76 -147 -205 -240q-61 -43 -255 -139q0 -1 -48 -31q-49 -30 -87 -47q-47 -22 -76 -22q-43 0 -43 48q-5 12 -5 25q0 40 52 88q50 46 171 118q187 110 197 117q100 65 123 109q-4 0 -98 95
q-113 114 -185 210q-100 133 -103 209v4q0 91 146 91q0 -62 126 -191zM477 945q81 -83 162 -147q105 -84 129 -119q25 -38 25 -82q0 -45 -26 -96q-76 -147 -205 -240q-61 -43 -255 -139q0 -1 -48 -31q-49 -30 -87 -47q-47 -22 -76 -22q-43 0 -43 48q-5 12 -5 25q0 40 52 88
q50 46 171 118q187 110 197 117q100 65 123 109q-4 0 -98 95q-113 114 -185 210q-100 133 -103 209v4q0 91 146 91q0 -62 126 -191z" />
    <glyph glyph-name="onequarter" unicode="&#xbc;" horiz-adv-x="1245" 
d="M908 1675q129 -37 129 -121q0 -31 -10 -71q-24 -89 -99 -231q-6 -13 -248 -414q-16 -29 -111 -181q-78 -124 -126 -209q-150 -262 -212 -502q-134 38 -134 129q0 36 13 84q10 41 30 92q4 12 146 309q48 98 333 580q14 26 64 105l86 135q108 177 139 295zM755 696
q38 9 56 9q103 0 103 -118q0 -24 -4 -54q-8 -46 -27 -120q-20 -70 -20 -76q-3 -19 -3 -32q0 -29 16 -29h2l66 6q12 141 12 232q0 48 -3 83q-2 12 -2 22q0 56 35 56q10 0 25 -6q115 0 115 -181v-11q-1 -51 -9 -120q3 -8 18 -8q5 0 12 1q21 4 41 4q80 0 106 -58q10 -23 10 -41
q0 -26 -18 -47q-26 -25 -81 -34q-12 -3 -35 -5q-24 -3 -31 -4q-23 -2 -27 -6q-19 -14 -21 -111v-20q0 -29 2 -68q4 -66 4 -108q-151 0 -177 124q-2 11 -2 41t2 79l-59 -10q-54 -13 -93 -13q-58 0 -89 26q-49 39 -49 144q0 61 14 146q37 210 111 307zM321 1428q4 -53 5 -132
v-89q10 -212 11 -273v-3q0 -68 -57 -94q-19 -8 -38 -8q-18 0 -36 8q-33 14 -50 49q-27 56 -29 171q-1 162 -2 169q0 2 -13 80t-17 133q-2 29 -2 53q0 162 116 162q98 -31 112 -226z" />
    <glyph glyph-name="onehalf" unicode="&#xbd;" horiz-adv-x="1142" 
d="M908 1645q129 -37 129 -121q0 -31 -10 -71q-24 -89 -99 -231q-6 -13 -248 -414q-16 -29 -111 -181q-78 -124 -126 -209q-150 -262 -212 -502q-134 38 -134 129q0 36 13 84q10 41 30 92q4 12 146 309q48 98 333 580q14 26 64 105l86 135q108 177 139 295zM321 1398
q4 -53 5 -132v-89q10 -212 11 -273v-3q0 -68 -57 -94q-19 -8 -38 -8q-18 0 -36 8q-33 14 -50 49q-27 56 -29 171q-1 162 -2 169q0 2 -13 80t-17 133q-2 29 -2 53q0 162 116 162q98 -31 112 -226zM875 732q150 0 150 -139q0 -63 -36 -159q-31 -82 -87 -188l-39 -70l196 30h8
q33 0 66 -14q33 -15 52 -38q12 -19 12 -35q0 -17 -13 -33q-25 -28 -83 -33l-84 -12q-88 -12 -152 -16q-43 -3 -77 -3q-180 0 -180 86q0 60 70 152q84 112 90 123q28 54 51 93t42 83q-8 -2 -31 -12q-70 -35 -105 -35q-14 0 -30 5q-60 31 -60 74q0 11 4 21q13 35 70 66
q99 54 166 54z" />
    <glyph glyph-name="threequarters" unicode="&#xbe;" horiz-adv-x="1269" 
d="M943 1744q130 -34 130 -119q0 -31 -11 -72q-23 -88 -98 -231q-6 -13 -248 -414q-16 -29 -111 -181q-78 -124 -126 -209q-150 -262 -212 -502q-134 38 -134 129q0 36 13 84q10 41 30 92q4 12 146 309q48 98 332 581l65 104l86 135q108 177 138 294zM376 1664q8 1 19 1
l88 -28q44 -31 44 -78q0 -11 -3 -22q-14 -63 -82 -127q-30 -30 -68 -58q90 -67 134 -154q21 -43 21 -75q0 -100 -154 -133q-64 -13 -132 -13q-93 0 -197 26q-39 10 -69 34q-28 25 -28 51q0 28 56 43t70 15t173 7q72 3 86 9q0 7 -18 24q-5 5 -37 28q-44 30 -66 48
q-73 59 -73 104q0 22 14 39q23 28 173 96q-60 7 -95.5 10t-73.5 3q-71 0 -96 20q-9 20 -9 39q0 83 147 109q18 3 40 3q55 0 136 -21zM751 696q38 9 56 9q103 0 103 -118q0 -24 -4 -54q-8 -46 -27 -120q-20 -70 -20 -76q-3 -19 -3 -32q0 -29 16 -29h2l66 6q12 141 12 232
q0 48 -3 83q-2 12 -2 22q0 56 35 56q10 0 25 -6q115 0 115 -181v-11q-1 -51 -9 -120q3 -8 18 -8q5 0 12 1q21 4 41 4q80 0 106 -58q10 -23 10 -41q0 -26 -18 -47q-26 -25 -81 -34q-12 -3 -35 -5q-24 -3 -31 -4q-23 -2 -27 -6q-19 -14 -21 -111v-20q0 -29 2 -68q4 -66 4 -108
q-151 0 -177 124q-2 11 -2 41t2 79l-59 -10q-54 -13 -93 -13q-58 0 -89 26q-49 39 -49 144q0 61 14 146q37 210 111 307z" />
    <glyph glyph-name="questiondown" unicode="&#xbf;" horiz-adv-x="1225" 
d="M825 1362q-6 -1 -11 -1q-34 0 -72 21q-43 23 -69 59q-21 31 -21 60q0 8 1 15q7 41 59 66q19 10 40 10q24 0 52 -14q46 -23 75 -70q23 -35 23 -67q0 -10 -3 -20q-12 -46 -74 -59zM548 -105q-297 25 -397 150q-82 102 -82 208q0 82 50 166q92 155 310 266q11 6 66 28
q57 23 91 39q107 52 107 96q0 4 -1 8q-11 59 -11 90q0 11 1 18q9 57 78 57h2q54 -1 154 -130q84 -109 84 -167q0 -13 -4 -23q0 -37 -116 -72q-37 -12 -87 -23l-54 -12h1q-300 -180 -378 -246q-66 -56 -66 -100q0 -65 147 -104q149 -40 330 -40q19 0 92 14q49 9 74 9
q8 0 14 -1q114 -37 154 -134q8 -19 8 -34q0 -21 -14 -36q-27 -31 -105 -31q-405 0 -448 4z" />
    <glyph glyph-name="Agrave" unicode="&#xc0;" horiz-adv-x="1413" 
d="M554 929l-75 -259h23q132 0 340 21q-11 29 -37 120q-31 107 -48 158q-67 201 -128 219zM837 1547q3 -16 4 -53q0 -52 3 -89q10 -133 81 -343q43 -125 223 -468q156 -297 190 -471q7 -34 7 -60q0 -35 -12 -57q-25 -48 -106 -48h-17q-71 0 -77 31q-1 3 -2 41q-1 32 -12 57
q0 76 -47 202q-54 143 -108 143h-230q-242 0 -291 -31q-36 -23 -60 -82q-11 -27 -51 -160q-6 -21 -15 -81q-9 -65 -17 -95q-28 -112 -98 -112q-34 0 -73 73q-32 62 -32 101v8q19 207 110 502l79 247q51 154 77 243q98 340 115 379q106 239 279 239q72 -80 80 -116zM551 2098
q7 2 15 2q34 0 93 -32q64 -34 147 -98q174 -133 217 -203q-20 -10 -43 -17q-39 -11 -87 -11q-51 0 -112 13q-136 27 -247 98q-78 51 -105 99q-12 22 -14 42v8q0 62 107 92q14 4 29 7z" />
    <glyph glyph-name="Aacute" unicode="&#xc1;" horiz-adv-x="1413" 
d="M554 929l-75 -259h23q132 0 340 21q-11 29 -37 120q-31 107 -48 158q-67 201 -128 219zM837 1547q3 -16 4 -53q0 -52 3 -89q10 -133 81 -343q43 -125 223 -468q156 -297 190 -471q7 -34 7 -60q0 -35 -12 -57q-25 -48 -106 -48h-17q-71 0 -77 31q-1 3 -2 41q-1 32 -12 57
q0 76 -47 202q-54 143 -108 143h-230q-242 0 -291 -31q-36 -23 -60 -82q-11 -27 -51 -160q-6 -21 -15 -81q-9 -65 -17 -95q-28 -112 -98 -112q-34 0 -73 73q-32 62 -32 101v8q19 207 110 502l79 247q51 154 77 243q98 340 115 379q106 239 279 239q72 -80 80 -116zM816 2061
q107 -30 107 -92v-8q-2 -20 -14 -42q-27 -48 -105 -99q-111 -71 -247 -98q-61 -13 -112 -13q-48 0 -87 11q-23 7 -43 17q43 70 217 203q83 64 146 98q60 32 94 32q8 0 15 -2q15 -3 29 -7z" />
    <glyph glyph-name="Acircumflex" unicode="&#xc2;" horiz-adv-x="1413" 
d="M554 929l-75 -259h23q132 0 340 21q-11 29 -37 120q-31 107 -48 158q-67 201 -128 219zM837 1547q3 -16 4 -53q0 -52 3 -89q10 -133 81 -343q43 -125 223 -468q156 -297 190 -471q7 -34 7 -60q0 -35 -12 -57q-25 -48 -106 -48h-17q-71 0 -77 31q-1 3 -2 41q-1 32 -12 57
q0 76 -47 202q-54 143 -108 143h-230q-242 0 -291 -31q-36 -23 -60 -82q-11 -27 -51 -160q-6 -21 -15 -81q-9 -65 -17 -95q-28 -112 -98 -112q-34 0 -73 73q-32 62 -32 101v8q19 207 110 502l79 247q51 154 77 243q98 340 115 379q106 239 279 239q72 -80 80 -116zM942 1690
h-4q-17 0 -41 20q-21 18 -56 60q-112 131 -143 160q-27 -28 -123 -167q-33 -48 -53 -69q-23 -23 -39 -23h-4q-94 13 -102 79q-1 7 -1 15q0 55 49 128q52 79 134 145q84 68 154 85q64 -21 148 -89q85 -68 138 -143q53 -73 53 -123q0 -7 -1 -13q-9 -61 -109 -65z" />
    <glyph glyph-name="Atilde" unicode="&#xc3;" horiz-adv-x="1413" 
d="M554 929l-75 -259h23q132 0 340 21q-11 29 -37 120q-31 107 -48 158q-67 201 -128 219zM837 1547q3 -16 4 -53q0 -52 3 -89q10 -133 81 -343q43 -125 223 -468q156 -297 190 -471q7 -34 7 -60q0 -35 -12 -57q-25 -48 -106 -48h-17q-71 0 -77 31q-1 3 -2 41q-1 32 -12 57
q0 76 -47 202q-54 143 -108 143h-230q-242 0 -291 -31q-36 -23 -60 -82q-11 -27 -51 -160q-6 -21 -15 -81q-9 -65 -17 -95q-28 -112 -98 -112q-34 0 -73 73q-32 62 -32 101v8q19 207 110 502l79 247q51 154 77 243q98 340 115 379q106 239 279 239q72 -80 80 -116zM523 2150
h9q68 0 140 -48q39 -27 123 -103q50 -47 83 -57q11 -3 21 -3q19 0 36 12q19 13 51 54q44 55 65 77q29 9 52 9q28 0 45 -14q22 -19 22 -60v-11q-3 -42 -25 -94q-21 -48 -45 -77q-76 -89 -151 -95q-6 -1 -11 -1q-71 0 -149 72q-87 81 -131 108q-35 21 -63 21q-11 0 -22 -3
q-31 -11 -75 -63l-47 -59l-60 -76q-22 -26 -41 -26h-4q-18 2 -33 26q-28 45 -28 109q0 94 69 193q35 49 76 77q46 32 93 32z" />
    <glyph glyph-name="Adieresis" unicode="&#xc4;" horiz-adv-x="1413" 
d="M554 929l-75 -259h23q132 0 340 21q-11 29 -37 120q-31 107 -48 158q-67 201 -128 219zM837 1547q3 -16 4 -53q0 -52 3 -89q10 -133 81 -343q43 -125 223 -468q156 -297 190 -471q7 -34 7 -60q0 -35 -12 -57q-25 -48 -106 -48h-17q-71 0 -77 31q-1 3 -2 41q-1 32 -12 57
q0 76 -47 202q-54 143 -108 143h-230q-242 0 -291 -31q-36 -23 -60 -82q-11 -27 -51 -160q-6 -21 -15 -81q-9 -65 -17 -95q-28 -112 -98 -112q-34 0 -73 73q-32 62 -32 101v8q19 207 110 502l79 247q51 154 77 243q98 340 115 379q106 239 279 239q72 -80 80 -116zM446 2076
q28 7 53 7q33 0 62 -12q47 -19 67 -61q12 -24 12 -48q0 -20 -8 -41q-19 -50 -76 -85q-9 -1 -17 -1q-37 0 -63 19q-29 21 -41 61q-9 28 -9 60q0 11 1 22q3 43 19 79zM783 2076q28 7 53 7q33 0 62 -12q47 -19 67 -61q12 -24 12 -48q0 -20 -8 -41q-19 -50 -76 -85q-9 -1 -17 -1
q-37 0 -63 19q-29 21 -41 61q-9 28 -9 60q0 11 1 22q3 43 19 79z" />
    <glyph glyph-name="Aring" unicode="&#xc5;" horiz-adv-x="1413" 
d="M554 929l-75 -259h23q132 0 340 21q-11 29 -37 120q-31 107 -48 158q-67 201 -128 219zM837 1547q3 -16 4 -53q0 -52 3 -89q10 -133 81 -343q43 -125 223 -468q156 -297 190 -471q7 -34 7 -60q0 -35 -12 -57q-25 -48 -106 -48h-17q-71 0 -77 31q-1 3 -2 41q-1 32 -12 57
q0 76 -47 202q-54 143 -108 143h-230q-242 0 -291 -31q-36 -23 -60 -82q-11 -27 -51 -160q-6 -21 -15 -81q-9 -65 -17 -95q-28 -112 -98 -112q-34 0 -73 73q-32 62 -32 101v8q19 207 110 502l79 247q51 154 77 243q98 340 115 379q106 239 279 239q72 -80 80 -116zM631 1863
q15 -13 32 -13q8 0 15 2q90 14 90 69q0 14 -6 30q-1 50 -21 59q-4 3 -11 3q-23 0 -81 -17q-48 -60 -50 -60q9 -52 32 -73zM671 2110q29 9 54 9q60 0 104 -49q56 -64 56 -136v-10q-4 -81 -77 -140q-46 -37 -107 -37q-27 0 -57 7q-92 22 -135 93q-34 58 -39 95q-1 5 -1 11
q0 26 17 46q7 9 104 83q38 21 81 28z" />
    <glyph glyph-name="AE" unicode="&#xc6;" horiz-adv-x="2333" 
d="M483 627h84q130 0 287 4q3 87 3 140q0 41 -2 61q0 -6 -39 224q-36 -59 -179 -215q-125 -135 -154 -214zM1463 232q36 0 198 17q169 18 266 20h34q302 0 302 -139q0 -121 -536 -123h-28q-157 0 -374 10q-240 12 -252 12q-203 0 -220 375q-248 0 -355 -43
q-131 -53 -192 -211q-7 -20 -18 -75q-11 -61 -20 -89q-34 -104 -114 -104h-2q-40 0 -85 68q-38 58 -38 95q0 4 1 8q22 181 177 468q199 367 232 458q158 425 411 542q31 25 76 25q58 0 87 -40q26 -35 26 -96q66 44 172 44q19 0 38 -1q16 -1 111 -12q54 -6 91 -6h18
q182 6 522 43q51 -62 57 -136v-12q0 -78 -88 -78h-581q-196 0 -274 -30q-58 -23 -58 -128q0 -23 3 -49q4 -42 19 -122q14 -75 15 -101q246 45 606 45q100 0 189 -66q41 -30 41 -61v-6q-5 -41 -80 -79q-44 -21 -112 -21q-34 0 -74 5q-181 24 -185 24h-5q-84 0 -286 -34
q-83 -14 -87 -118v-7q0 -48 24 -176q19 -101 128 -108h17q34 0 89 5q80 7 114 7z" />
    <glyph glyph-name="Ccedilla" unicode="&#xc7;" horiz-adv-x="1616" 
d="M1547 336v-2q-3 -43 -59 -70q-507 -252 -672 -288q-1 -16 -7 -36q-5 -17 -5 -31q0 -26 16 -43q17 -18 64 -34q13 -5 18 -8q170 -84 194 -191q3 -15 3 -30q0 -51 -40 -100q-67 -80 -297 -80q-23 0 -70 1q-31 1 -48 1q-70 0 -78 45q-1 4 -1 8q0 26 26 54q29 31 66 43
q8 2 15 2q13 0 45 -6q24 -5 32 -5q61 0 124 12q69 13 76 31v2q0 8 -22 27q-62 51 -189 103q-2 0 -12 4q-101 31 -105 67q-2 6 -2 14q0 45 53 134q-54 0 -97 11q-260 67 -391 313q-96 182 -96 402q0 51 5 105q28 283 189 472q177 208 450 208q154 0 307 -105q76 -52 83 -105
q1 -5 1 -10q0 -56 -85 -107q-9 -5 -27 -5q-42 0 -135 28q-153 47 -187 47q-199 0 -306 -201q-81 -152 -103 -338q-6 -52 -6 -100q0 -148 59 -247q84 -140 274 -140q74 0 164 21q23 5 477 173q6 2 61 28q54 26 91 39q52 19 83 19q41 0 47 -32q17 -85 17 -100z" />
    <glyph glyph-name="Egrave" unicode="&#xc8;" horiz-adv-x="1551" 
d="M265 1453q25 -34 25 -91q63 42 162 42q18 0 37 -1q15 -1 105 -12q56 -6 94 -6h10q174 6 496 42q48 -59 54 -130q1 -6 1 -12q0 -74 -85 -74h-551q-187 0 -261 -28q-55 -22 -55 -122q0 -21 2 -46q4 -40 19 -116q13 -72 15 -96q233 42 575 42q95 0 180 -61q39 -29 39 -59v-6
q-5 -39 -77 -74q-42 -21 -108 -21q-31 0 -68 5q-172 23 -176 23h-5q-80 0 -272 -32q-79 -14 -82 -112v-7q0 -46 23 -167q18 -97 121 -103h19q31 0 82 4q76 8 108 8q35 0 188 16q161 17 254 19h30q288 0 288 -132q0 -115 -509 -117h-27q-148 0 -354 10q-229 10 -240 10
q-182 0 -206 312q-5 55 -5 138q0 52 2 115q3 87 3 139q0 41 -2 59q-2 20 -29 167q-25 138 -31 226q-3 35 -3 66q0 220 131 220q55 0 83 -38zM491 2098q7 2 15 2q34 0 93 -32q64 -34 147 -98q174 -133 217 -203q-20 -10 -43 -17q-39 -11 -87 -11q-51 0 -112 13
q-136 27 -247 98q-78 51 -105 99q-12 22 -14 42v8q0 62 107 92q14 4 29 7z" />
    <glyph glyph-name="Eacute" unicode="&#xc9;" horiz-adv-x="1551" 
d="M265 1453q25 -34 25 -91q63 42 162 42q18 0 37 -1q15 -1 105 -12q56 -6 94 -6h10q174 6 496 42q48 -59 54 -130q1 -6 1 -12q0 -74 -85 -74h-551q-187 0 -261 -28q-55 -22 -55 -122q0 -21 2 -46q4 -40 19 -116q13 -72 15 -96q233 42 575 42q95 0 180 -61q39 -29 39 -59v-6
q-5 -39 -77 -74q-42 -21 -108 -21q-31 0 -68 5q-172 23 -176 23h-5q-80 0 -272 -32q-79 -14 -82 -112v-7q0 -46 23 -167q18 -97 121 -103h19q31 0 82 4q76 8 108 8q35 0 188 16q161 17 254 19h30q288 0 288 -132q0 -115 -509 -117h-27q-148 0 -354 10q-229 10 -240 10
q-182 0 -206 312q-5 55 -5 138q0 52 2 115q3 87 3 139q0 41 -2 59q-2 20 -29 167q-25 138 -31 226q-3 35 -3 66q0 220 131 220q55 0 83 -38zM816 2061q107 -30 107 -92v-8q-2 -20 -14 -42q-27 -48 -105 -99q-111 -71 -247 -98q-61 -13 -112 -13q-48 0 -87 11q-23 7 -43 17
q43 70 217 203q83 64 146 98q60 32 94 32q8 0 15 -2q15 -3 29 -7z" />
    <glyph glyph-name="Ecircumflex" unicode="&#xca;" horiz-adv-x="1551" 
d="M265 1453q25 -34 25 -91q63 42 162 42q18 0 37 -1q15 -1 105 -12q56 -6 94 -6h10q174 6 496 42q48 -59 54 -130q1 -6 1 -12q0 -74 -85 -74h-551q-187 0 -261 -28q-55 -22 -55 -122q0 -21 2 -46q4 -40 19 -116q13 -72 15 -96q233 42 575 42q95 0 180 -61q39 -29 39 -59v-6
q-5 -39 -77 -74q-42 -21 -108 -21q-31 0 -68 5q-172 23 -176 23h-5q-80 0 -272 -32q-79 -14 -82 -112v-7q0 -46 23 -167q18 -97 121 -103h19q31 0 82 4q76 8 108 8q35 0 188 16q161 17 254 19h30q288 0 288 -132q0 -115 -509 -117h-27q-148 0 -354 10q-229 10 -240 10
q-182 0 -206 312q-5 55 -5 138q0 52 2 115q3 87 3 139q0 41 -2 59q-2 20 -29 167q-25 138 -31 226q-3 35 -3 66q0 220 131 220q55 0 83 -38zM942 1690h-4q-17 0 -41 20q-21 18 -56 60q-112 131 -143 160q-27 -28 -123 -167q-33 -48 -53 -69q-23 -23 -39 -23h-4
q-94 13 -102 79q-1 7 -1 15q0 55 49 128q52 79 134 145q84 68 154 85q64 -21 148 -89q85 -68 138 -143q53 -73 53 -123q0 -7 -1 -13q-9 -61 -109 -65z" />
    <glyph glyph-name="Edieresis" unicode="&#xcb;" horiz-adv-x="1551" 
d="M265 1453q25 -34 25 -91q63 42 162 42q18 0 37 -1q15 -1 105 -12q56 -6 94 -6h10q174 6 496 42q48 -59 54 -130q1 -6 1 -12q0 -74 -85 -74h-551q-187 0 -261 -28q-55 -22 -55 -122q0 -21 2 -46q4 -40 19 -116q13 -72 15 -96q233 42 575 42q95 0 180 -61q39 -29 39 -59v-6
q-5 -39 -77 -74q-42 -21 -108 -21q-31 0 -68 5q-172 23 -176 23h-5q-80 0 -272 -32q-79 -14 -82 -112v-7q0 -46 23 -167q18 -97 121 -103h19q31 0 82 4q76 8 108 8q35 0 188 16q161 17 254 19h30q288 0 288 -132q0 -115 -509 -117h-27q-148 0 -354 10q-229 10 -240 10
q-182 0 -206 312q-5 55 -5 138q0 52 2 115q3 87 3 139q0 41 -2 59q-2 20 -29 167q-25 138 -31 226q-3 35 -3 66q0 220 131 220q55 0 83 -38zM446 1976q28 7 53 7q33 0 62 -12q47 -19 67 -61q12 -24 12 -48q0 -20 -8 -41q-19 -50 -76 -85q-9 -1 -17 -1q-37 0 -63 19
q-29 21 -41 61q-9 28 -9 60q0 11 1 22q3 43 19 79zM783 1976q28 7 53 7q33 0 62 -12q47 -19 67 -61q12 -24 12 -48q0 -20 -8 -41q-19 -50 -76 -85q-9 -1 -17 -1q-37 0 -63 19q-29 21 -41 61q-9 28 -9 60q0 11 1 22q3 43 19 79z" />
    <glyph glyph-name="Igrave" unicode="&#xcc;" horiz-adv-x="1182" 
d="M931 1478q85 0 119 -70q13 -26 13 -51q0 -45 -40 -87q-35 -38 -116 -39q-24 0 -67 3q-45 3 -61 3q-28 0 -50 -557q-8 -194 -8 -321q0 -237 28 -237q375 0 375 -100q0 -37 -50 -87q-58 -58 -225 -58q-78 0 -181 13q-84 11 -253 41q-149 26 -199 30q-107 9 -145 48
q-15 15 -15 33q0 37 65 86q43 32 153 32q17 0 37 -1q34 -2 111 -9q66 -5 93 -5q-43 107 -43 281q0 89 11 194q24 230 24 368q0 79 -8 128q-3 18 -3 41q0 14 1 29q1 20 1 33t-1 19q-7 46 -105 59q-6 1 -18 1q-18 0 -47 -2t-50 -2q-16 0 -27 1q-84 8 -84 84v11q29 68 85 94
q41 20 116 21q200 4 257 38q164 -65 307 -65zM521 2098q7 2 15 2q34 0 93 -32q64 -34 147 -98q174 -133 217 -203q-20 -10 -43 -17q-39 -11 -87 -11q-51 0 -112 13q-136 27 -247 98q-78 51 -105 99q-12 22 -14 42v8q0 62 107 92q14 4 29 7z" />
    <glyph glyph-name="Iacute" unicode="&#xcd;" horiz-adv-x="1182" 
d="M931 1478q85 0 119 -70q13 -26 13 -51q0 -45 -40 -87q-35 -38 -116 -39q-24 0 -67 3q-45 3 -61 3q-28 0 -50 -557q-8 -194 -8 -321q0 -237 28 -237q375 0 375 -100q0 -37 -50 -87q-58 -58 -225 -58q-78 0 -181 13q-84 11 -253 41q-149 26 -199 30q-107 9 -145 48
q-15 15 -15 33q0 37 65 86q43 32 153 32q17 0 37 -1q34 -2 111 -9q66 -5 93 -5q-43 107 -43 281q0 89 11 194q24 230 24 368q0 79 -8 128q-3 18 -3 41q0 14 1 29q1 20 1 33t-1 19q-7 46 -105 59q-6 1 -18 1q-18 0 -47 -2t-50 -2q-16 0 -27 1q-84 8 -84 84v11q29 68 85 94
q41 20 116 21q200 4 257 38q164 -65 307 -65zM816 2061q107 -30 107 -92v-8q-2 -20 -14 -42q-27 -48 -105 -99q-111 -71 -247 -98q-61 -13 -112 -13q-48 0 -87 11q-23 7 -43 17q43 70 217 203q83 64 146 98q60 32 94 32q8 0 15 -2q15 -3 29 -7z" />
    <glyph glyph-name="Icircumflex" unicode="&#xce;" horiz-adv-x="1182" 
d="M931 1478q85 0 119 -70q13 -26 13 -51q0 -45 -40 -87q-35 -38 -116 -39q-24 0 -67 3q-45 3 -61 3q-28 0 -50 -557q-8 -194 -8 -321q0 -237 28 -237q375 0 375 -100q0 -37 -50 -87q-58 -58 -225 -58q-78 0 -181 13q-84 11 -253 41q-149 26 -199 30q-107 9 -145 48
q-15 15 -15 33q0 37 65 86q43 32 153 32q17 0 37 -1q34 -2 111 -9q66 -5 93 -5q-43 107 -43 281q0 89 11 194q24 230 24 368q0 79 -8 128q-3 18 -3 41q0 14 1 29q1 20 1 33t-1 19q-7 46 -105 59q-6 1 -18 1q-18 0 -47 -2t-50 -2q-16 0 -27 1q-84 8 -84 84v11q29 68 85 94
q41 20 116 21q200 4 257 38q164 -65 307 -65zM862 1690h-4q-17 0 -41 20q-21 18 -56 60q-112 131 -143 160q-27 -28 -123 -167q-33 -48 -53 -69q-23 -23 -39 -23h-4q-94 13 -102 79q-1 7 -1 15q0 55 49 128q52 79 134 145q84 68 154 85q64 -21 148 -89q85 -68 138 -143
q53 -73 53 -123q0 -7 -1 -13q-9 -61 -109 -65z" />
    <glyph glyph-name="Idieresis" unicode="&#xcf;" horiz-adv-x="1182" 
d="M931 1478q85 0 119 -70q13 -26 13 -51q0 -45 -40 -87q-35 -38 -116 -39q-24 0 -67 3q-45 3 -61 3q-28 0 -50 -557q-8 -194 -8 -321q0 -237 28 -237q375 0 375 -100q0 -37 -50 -87q-58 -58 -225 -58q-78 0 -181 13q-84 11 -253 41q-149 26 -199 30q-107 9 -145 48
q-15 15 -15 33q0 37 65 86q43 32 153 32q17 0 37 -1q34 -2 111 -9q66 -5 93 -5q-43 107 -43 281q0 89 11 194q24 230 24 368q0 79 -8 128q-3 18 -3 41q0 14 1 29q1 20 1 33t-1 19q-7 46 -105 59q-6 1 -18 1q-18 0 -47 -2t-50 -2q-16 0 -27 1q-84 8 -84 84v11q29 68 85 94
q41 20 116 21q200 4 257 38q164 -65 307 -65zM416 2076q28 7 53 7q33 0 62 -12q47 -19 67 -61q12 -24 12 -48q0 -20 -8 -41q-19 -50 -76 -85q-9 -1 -17 -1q-37 0 -63 19q-29 21 -41 61q-9 28 -9 60q0 11 1 22q3 43 19 79zM753 2076q28 7 53 7q33 0 62 -12q47 -19 67 -61
q12 -24 12 -48q0 -20 -8 -41q-19 -50 -76 -85q-9 -1 -17 -1q-37 0 -63 19q-29 21 -41 61q-9 28 -9 60q0 11 1 22q3 43 19 79z" />
    <glyph glyph-name="Eth" unicode="&#xd0;" horiz-adv-x="1507" 
d="M266 830q-11 209 -37 300q-51 183 -51 239v8q10 141 205 141q0 -88 289 -206q70 -28 220 -82q117 -42 143 -56q428 -237 428 -549q0 -297 -264 -453q-154 -90 -392 -129q-12 -2 -171 -2q-133 0 -165 -21q0 -101 -66 -101q-34 0 -86 27q-98 51 -221 171q-37 36 -37 65
q0 28 31 50q44 32 134 48q53 9 55 77q0 21 -4 62q-4 45 -4 63q0 69 -1 131h-101q-15 0 -55 -13q-45 -15 -65 -18q-11 -2 -20 -2q-22 0 -36 10q-23 17 -23 65q0 131 261 171zM476 842h81q4 -2 67 -8q69 -8 111 -22q98 -33 98 -108q0 -36 -22 -81q-13 -27 -125 -27
q-26 0 -60 2q-47 2 -125 9q-7 1 -13 1v-2q0 -35 -8 -106q-8 -72 -8 -112v-14q6 -124 124 -124q15 0 32 2q323 41 470 139q69 46 95 123q46 138 50 146q0 190 -309 340q-117 57 -463 166q0 -178 5 -324z" />
    <glyph glyph-name="Ntilde" unicode="&#xd1;" horiz-adv-x="1507" 
d="M356 1592q82 -218 84 -221q38 -53 116 -149q82 -100 117 -148q27 -36 85 -129l101 -158q131 -193 215 -222q0 38 -16 245q-17 241 -23 379q-5 106 -5 189q0 311 65 315h8q162 0 188 -342q5 -67 5 -152q0 -57 -2 -121q-1 -35 -5 -113q-2 -58 -2 -79q0 -330 17 -442
q4 -29 38 -124q38 -110 52 -167q17 -69 17 -120q0 -108 -76 -138q-12 -5 -25 -5q-79 0 -180 197q-26 50 -85 180q-46 101 -65 127q-242 337 -566 639v-468q0 -241 -51 -472q-15 -72 -54 -79q-5 -1 -10 -1q-29 0 -64 35q-39 38 -65 96q-22 50 -22 91q0 8 1 15q34 317 34 567
q0 187 -19 336q-1 13 -32 122q-32 114 -44 189q-10 60 -10 106q0 145 102 145q129 0 176 -123zM499 2245h9q68 0 140 -48q39 -27 123 -103q50 -47 83 -57q11 -3 21 -3q19 0 36 12q19 13 51 54q44 55 65 77q29 9 52 9q28 0 45 -14q22 -19 22 -60v-11q-3 -42 -25 -94
q-21 -48 -45 -77q-76 -89 -151 -95q-6 -1 -11 -1q-71 0 -149 72q-87 81 -131 108q-35 21 -63 21q-11 0 -22 -3q-31 -11 -75 -63l-47 -59l-60 -76q-22 -26 -41 -26h-4q-18 2 -33 26q-28 45 -28 109q0 94 69 193q35 49 76 77q46 32 93 32z" />
    <glyph glyph-name="Ograve" unicode="&#xd2;" horiz-adv-x="1595" 
d="M771 1431q26 -37 26 -64q0 -12 -5 -22q-12 -27 -63 -47q-175 -69 -181 -75q-50 -47 -100 -138l-84 -153q-52 -82 -53 -187v-4q0 -97 43 -191q44 -96 122 -161q82 -69 182 -86q81 -14 153 -14q177 0 303 82q180 117 180 362q0 20 -1 41q-20 324 -174 497q-85 96 -135 134
q-78 60 -137 60q-36 0 -65 -23zM1336 1321q172 -286 172 -631q0 -302 -164 -439q-86 -72 -494 -145q-93 -17 -175 -17q-541 0 -589 738v13q0 86 71 220q71 135 190 273q120 141 240 228q131 95 220 95q327 0 529 -335zM551 2098q7 2 15 2q34 0 93 -32q64 -34 147 -98
q174 -133 217 -203q-20 -10 -43 -17q-39 -11 -87 -11q-51 0 -112 13q-136 27 -247 98q-78 51 -105 99q-12 22 -14 42v8q0 62 107 92q14 4 29 7z" />
    <glyph glyph-name="Oacute" unicode="&#xd3;" horiz-adv-x="1595" 
d="M771 1431q26 -37 26 -64q0 -12 -5 -22q-12 -27 -63 -47q-175 -69 -181 -75q-50 -47 -100 -138l-84 -153q-52 -82 -53 -187v-4q0 -97 43 -191q44 -96 122 -161q82 -69 182 -86q81 -14 153 -14q177 0 303 82q180 117 180 362q0 20 -1 41q-20 324 -174 497q-85 96 -135 134
q-78 60 -137 60q-36 0 -65 -23zM1336 1321q172 -286 172 -631q0 -302 -164 -439q-86 -72 -494 -145q-93 -17 -175 -17q-541 0 -589 738v13q0 86 71 220q71 135 190 273q120 141 240 228q131 95 220 95q327 0 529 -335zM816 2061q107 -30 107 -92v-8q-2 -20 -14 -42
q-27 -48 -105 -99q-111 -71 -247 -98q-61 -13 -112 -13q-48 0 -87 11q-23 7 -43 17q43 70 217 203q83 64 146 98q60 32 94 32q8 0 15 -2q15 -3 29 -7z" />
    <glyph glyph-name="Ocircumflex" unicode="&#xd4;" horiz-adv-x="1595" 
d="M771 1431q26 -37 26 -64q0 -12 -5 -22q-12 -27 -63 -47q-175 -69 -181 -75q-50 -47 -100 -138l-84 -153q-52 -82 -53 -187v-4q0 -97 43 -191q44 -96 122 -161q82 -69 182 -86q81 -14 153 -14q177 0 303 82q180 117 180 362q0 20 -1 41q-20 324 -174 497q-85 96 -135 134
q-78 60 -137 60q-36 0 -65 -23zM1336 1321q172 -286 172 -631q0 -302 -164 -439q-86 -72 -494 -145q-93 -17 -175 -17q-541 0 -589 738v13q0 86 71 220q71 135 190 273q120 141 240 228q131 95 220 95q327 0 529 -335zM942 1690h-4q-17 0 -41 20q-21 18 -56 60
q-112 131 -143 160q-27 -28 -123 -167q-33 -48 -53 -69q-23 -23 -39 -23h-4q-94 13 -102 79q-1 7 -1 15q0 55 49 128q52 79 134 145q84 68 154 85q64 -21 148 -89q85 -68 138 -143q53 -73 53 -123q0 -7 -1 -13q-9 -61 -109 -65z" />
    <glyph glyph-name="Otilde" unicode="&#xd5;" horiz-adv-x="1595" 
d="M771 1431q26 -37 26 -64q0 -12 -5 -22q-12 -27 -63 -47q-175 -69 -181 -75q-50 -47 -100 -138l-84 -153q-52 -82 -53 -187v-4q0 -97 43 -191q44 -96 122 -161q82 -69 182 -86q81 -14 153 -14q177 0 303 82q180 117 180 362q0 20 -1 41q-20 324 -174 497q-85 96 -135 134
q-78 60 -137 60q-36 0 -65 -23zM1336 1321q172 -286 172 -631q0 -302 -164 -439q-86 -72 -494 -145q-93 -17 -175 -17q-541 0 -589 738v13q0 86 71 220q71 135 190 273q120 141 240 228q131 95 220 95q327 0 529 -335zM523 2150h9q68 0 140 -48q39 -27 123 -103
q50 -47 83 -57q11 -3 21 -3q19 0 36 12q19 13 51 54q44 55 65 77q29 9 52 9q28 0 45 -14q22 -19 22 -60v-11q-3 -42 -25 -94q-21 -48 -45 -77q-76 -89 -151 -95q-6 -1 -11 -1q-71 0 -149 72q-87 81 -131 108q-35 21 -63 21q-11 0 -22 -3q-31 -11 -75 -63l-47 -59l-60 -76
q-22 -26 -41 -26h-4q-18 2 -33 26q-28 45 -28 109q0 94 69 193q35 49 76 77q46 32 93 32z" />
    <glyph glyph-name="Odieresis" unicode="&#xd6;" horiz-adv-x="1595" 
d="M771 1431q26 -37 26 -64q0 -12 -5 -22q-12 -27 -63 -47q-175 -69 -181 -75q-50 -47 -100 -138l-84 -153q-52 -82 -53 -187v-4q0 -97 43 -191q44 -96 122 -161q82 -69 182 -86q81 -14 153 -14q177 0 303 82q180 117 180 362q0 20 -1 41q-20 324 -174 497q-85 96 -135 134
q-78 60 -137 60q-36 0 -65 -23zM1336 1321q172 -286 172 -631q0 -302 -164 -439q-86 -72 -494 -145q-93 -17 -175 -17q-541 0 -589 738v13q0 86 71 220q71 135 190 273q120 141 240 228q131 95 220 95q327 0 529 -335zM446 2076q28 7 53 7q33 0 62 -12q47 -19 67 -61
q12 -24 12 -48q0 -20 -8 -41q-19 -50 -76 -85q-9 -1 -17 -1q-37 0 -63 19q-29 21 -41 61q-9 28 -9 60q0 11 1 22q3 43 19 79zM783 2076q28 7 53 7q33 0 62 -12q47 -19 67 -61q12 -24 12 -48q0 -20 -8 -41q-19 -50 -76 -85q-9 -1 -17 -1q-37 0 -63 19q-29 21 -41 61
q-9 28 -9 60q0 11 1 22q3 43 19 79z" />
    <glyph glyph-name="multiply" unicode="&#xd7;" horiz-adv-x="1095" 
d="M378 857q16 -27 103 -211q10 10 82 90q63 69 107 111q141 135 233 135q106 -45 106 -114q0 -14 -4 -28q-18 -63 -119 -151q-177 -154 -186 -168q-23 -35 -23 -73q0 -8 1 -15q7 -52 54 -123q8 -11 88 -101q62 -69 62 -96q0 -66 -8 -90q-11 -36 -36 -36q-15 0 -34 12
q-32 19 -168 171q-105 118 -171 118h-4q-115 -109 -148 -131q-71 -50 -131 -50q-23 0 -44 7q-57 19 -57 67q0 20 11 47q26 62 87 120q17 17 52 46q33 28 47 41q48 47 52 92v9q0 53 -53 125q-142 190 -150 204q-27 51 -27 83q0 56 82 56q12 0 26 -1q83 0 170 -146z" />
    <glyph glyph-name="Oslash" unicode="&#xd8;" horiz-adv-x="1595" 
d="M665 308q79 -13 150 -13q173 0 297 80q176 114 176 355q0 20 -1 41q-12 198 -77 342q-60 -87 -149 -200q-101 -128 -103 -130q-15 -21 -165 -213q-114 -146 -181 -249q27 -8 53 -13zM376 926q-52 -83 -52 -185q0 -31 5 -64q20 -135 111 -238q47 92 417 612q19 27 89 112
l121 151q-128 136 -216 136q-36 0 -65 -24l-10 -10q25 -36 25 -63q0 -12 -5 -22q-12 -26 -61 -46q-173 -68 -178 -74q-1 0 -181 -285zM1499 688q0 -296 -161 -431q-28 -23 -221 -77q-173 -49 -264 -65q-90 -16 -170 -16q-99 0 -182 25q-70 -152 -70 -274q-170 0 -179 123
q-1 7 -1 15q0 87 74 235q-195 177 -222 600q-1 8 -1 16q0 180 257 480q271 317 452 317q209 0 373 -148q39 72 39 112q159 0 159 -117q0 -68 -53 -174q170 -281 170 -621z" />
    <glyph glyph-name="Ugrave" unicode="&#xd9;" horiz-adv-x="1334" 
d="M1034 1729q10 1 20 1q103 0 103 -148q0 -50 -13 -141q-14 -99 -15 -124q-4 -98 -4 -188q0 -373 77 -595q39 -115 41 -169v-4q0 -76 -61 -76q-20 0 -45 8q-117 35 -169 196q-32 100 -40 270q-46 -49 -167 -237q-97 -152 -191 -215q-94 -64 -188 -64q-46 0 -92 16
q-137 47 -190 207q-40 123 -40 293q0 62 5 130q6 80 24 217q20 154 26 209q2 19 2 75v30q0 41 2 66q7 120 52 154q21 16 43 16q33 0 69 -35q49 -46 69 -106q3 -10 3 -37q0 -64 -18 -220q-36 -309 -42 -417q-4 -69 -4 -126q0 -139 26 -201q22 -52 64 -52q47 0 117 64
q212 192 325 572q6 20 67 341q55 290 66 290h78zM431 2098q7 2 15 2q34 0 93 -32q64 -34 147 -98q174 -133 217 -203q-20 -10 -43 -17q-39 -11 -87 -11q-51 0 -112 13q-136 27 -247 98q-78 51 -105 99q-12 22 -14 42v8q0 62 107 92q14 4 29 7z" />
    <glyph glyph-name="Uacute" unicode="&#xda;" horiz-adv-x="1334" 
d="M1034 1729q10 1 20 1q103 0 103 -148q0 -50 -13 -141q-14 -99 -15 -124q-4 -98 -4 -188q0 -373 77 -595q39 -115 41 -169v-4q0 -76 -61 -76q-20 0 -45 8q-117 35 -169 196q-32 100 -40 270q-46 -49 -167 -237q-97 -152 -191 -215q-94 -64 -188 -64q-46 0 -92 16
q-137 47 -190 207q-40 123 -40 293q0 62 5 130q6 80 24 217q20 154 26 209q2 19 2 75v30q0 41 2 66q7 120 52 154q21 16 43 16q33 0 69 -35q49 -46 69 -106q3 -10 3 -37q0 -64 -18 -220q-36 -309 -42 -417q-4 -69 -4 -126q0 -139 26 -201q22 -52 64 -52q47 0 117 64
q212 192 325 572q6 20 67 341q55 290 66 290h78zM816 2061q107 -30 107 -92v-8q-2 -20 -14 -42q-27 -48 -105 -99q-111 -71 -247 -98q-61 -13 -112 -13q-48 0 -87 11q-23 7 -43 17q43 70 217 203q83 64 146 98q60 32 94 32q8 0 15 -2q15 -3 29 -7z" />
    <glyph glyph-name="Ucircumflex" unicode="&#xdb;" horiz-adv-x="1334" 
d="M1034 1629q10 1 20 1q103 0 103 -148q0 -50 -13 -141q-14 -99 -15 -124q-4 -98 -4 -188q0 -373 77 -595q39 -115 41 -169v-4q0 -76 -61 -76q-20 0 -45 8q-117 35 -169 196q-32 100 -40 270q-46 -49 -167 -237q-97 -152 -191 -215q-94 -64 -188 -64q-46 0 -92 16
q-137 47 -190 207q-40 123 -40 293q0 62 5 130q6 80 24 217q20 154 26 209q2 19 2 75v30q0 41 2 66q7 120 52 154q21 16 43 16q33 0 69 -35q49 -46 69 -106q3 -10 3 -37q0 -64 -18 -220q-36 -309 -42 -417q-4 -69 -4 -126q0 -139 26 -201q22 -52 64 -52q47 0 117 64
q212 192 325 572q6 20 67 341q55 290 66 290h78zM942 1690h-4q-17 0 -41 20q-21 18 -56 60q-112 131 -143 160q-27 -28 -123 -167q-33 -48 -53 -69q-23 -23 -39 -23h-4q-94 13 -102 79q-1 7 -1 15q0 55 49 128q52 79 134 145q84 68 154 85q64 -21 148 -89q85 -68 138 -143
q53 -73 53 -123q0 -7 -1 -13q-9 -61 -109 -65z" />
    <glyph glyph-name="Udieresis" unicode="&#xdc;" horiz-adv-x="1334" 
d="M1034 1729q10 1 20 1q103 0 103 -148q0 -50 -13 -141q-14 -99 -15 -124q-4 -98 -4 -188q0 -373 77 -595q39 -115 41 -169v-4q0 -76 -61 -76q-20 0 -45 8q-117 35 -169 196q-32 100 -40 270q-46 -49 -167 -237q-97 -152 -191 -215q-94 -64 -188 -64q-46 0 -92 16
q-137 47 -190 207q-40 123 -40 293q0 62 5 130q6 80 24 217q20 154 26 209q2 19 2 75v30q0 41 2 66q7 120 52 154q21 16 43 16q33 0 69 -35q49 -46 69 -106q3 -10 3 -37q0 -64 -18 -220q-36 -309 -42 -417q-4 -69 -4 -126q0 -139 26 -201q22 -52 64 -52q47 0 117 64
q212 192 325 572q6 20 67 341q55 290 66 290h78zM446 2076q28 7 53 7q33 0 62 -12q47 -19 67 -61q12 -24 12 -48q0 -20 -8 -41q-19 -50 -76 -85q-9 -1 -17 -1q-37 0 -63 19q-29 21 -41 61q-9 28 -9 60q0 11 1 22q3 43 19 79zM783 2076q28 7 53 7q33 0 62 -12q47 -19 67 -61
q12 -24 12 -48q0 -20 -8 -41q-19 -50 -76 -85q-9 -1 -17 -1q-37 0 -63 19q-29 21 -41 61q-9 28 -9 60q0 11 1 22q3 43 19 79z" />
    <glyph glyph-name="Yacute" unicode="&#xdd;" horiz-adv-x="1356" 
d="M1054 1713q187 0 187 -166q0 -122 -101 -333q-73 -153 -217 -386q-150 -243 -162 -266q-148 -294 -158 -364v-1q0 -14 -7 -138q-4 -76 -38 -122q-38 -51 -81 -51q-18 0 -37 9q-58 27 -90 112q24 225 67 391l61 146q40 98 40 128q0 6 -1 9q-42 94 -170 261
q-126 165 -167 261l-107 233q0 75 62 94q17 5 32 5q42 0 75 -36q27 -29 178 -375q125 -285 229 -285q30 57 114 194q90 148 133 226q158 286 158 454zM816 2061q107 -30 107 -92v-8q-2 -20 -14 -42q-27 -48 -105 -99q-111 -71 -247 -98q-61 -13 -112 -13q-48 0 -87 11
q-23 7 -43 17q43 70 217 203q83 64 146 98q60 32 94 32q8 0 15 -2q15 -3 29 -7z" />
    <glyph glyph-name="Thorn" unicode="&#xde;" horiz-adv-x="1299" 
d="M297 1190q3 -3 13 -3q19 0 61 12q53 15 260 15h73q256 -28 315 -47q206 -92 229 -327q3 -16 3 -38q0 -65 -23 -185l-78 -172q-114 -108 -291 -154q-189 -24 -327 -24q-149 0 -238 28q-19 7 -36 14q-6 -161 -11 -161q-1 0 -1 1v-5q-6 -91 -63 -115q-11 -4 -21 -4h-4
q-12 0 -24 7q-27 16 -42 57q-27 74 -27 118q0 14 3 25l14 232q-8 59 -8 218q0 113 4 278q-2 22 -4 49q-11 152 -11 158q0 55 3 100q17 237 114 237h4q101 -43 101 -279q0 -26 12 -35zM272 498l205 -34q348 7 401 102q7 3 11 3q5 0 5 -4t-4 -12q116 84 122 275v4
q0 169 -423 169q-45 0 -95 -2l-203 -30z" />
    <glyph glyph-name="germandbls" unicode="&#xdf;" horiz-adv-x="1118" 
d="M721 1663q13 1 26 1q164 0 235 -241l-2 -92q-63 -252 -290 -458l-29 -54v-21q0 -80 264 -320q120 -111 120 -234v-28q0 -150 -195 -234l-79 -14h-13q-189 0 -310 163l52 103h5q82 -67 181 -67q76 67 76 131v42q0 50 -160 221q-168 163 -168 255q0 80 189 248
q164 157 164 219v1l12 106q-52 81 -118 81q-59 0 -100 -26q-92 -67 -174 -232q-106 -262 -106 -425v-133q0 -467 92 -848v-35q0 -66 -81 -73h-99q-112 115 -112 756l-7 129v156q21 728 407 902l117 21h103z" />
    <glyph glyph-name="agrave" unicode="&#xe0;" horiz-adv-x="1128" 
d="M279 313q16 -3 32 -3q116 0 205 148q86 144 86 286q-156 0 -246 -142q-77 -120 -77 -285v-4zM834 940q24 -61 37 -173q36 -309 164 -572q7 -14 33 -54q28 -42 39 -64q22 -41 22 -68t-21 -40q-30 -20 -62 -20q-10 0 -19 2q-40 7 -77 39q-52 47 -136 176l-125 190
q-88 -131 -210 -189q-78 -38 -152 -38q-33 0 -66 8q-107 27 -157 127q-36 71 -36 166q0 53 11 113q27 141 103 247q80 112 205 169q-1 0 127 19q13 3 25 3q33 0 63 -22q18 82 107 87q83 0 125 -106zM341 1538q7 2 15 2q34 0 93 -32q64 -34 147 -98q174 -133 217 -203
q-20 -10 -43 -17q-39 -11 -87 -11q-51 0 -112 13q-136 27 -247 98q-78 51 -105 99q-12 22 -14 42v8q0 62 107 92q14 4 29 7z" />
    <glyph glyph-name="aacute" unicode="&#xe1;" horiz-adv-x="1128" 
d="M279 313q16 -3 32 -3q116 0 205 148q86 144 86 286q-156 0 -246 -142q-77 -120 -77 -285v-4zM834 940q24 -61 37 -173q36 -309 164 -572q7 -14 33 -54q28 -42 39 -64q22 -41 22 -68t-21 -40q-30 -20 -62 -20q-10 0 -19 2q-40 7 -77 39q-52 47 -136 176l-125 190
q-88 -131 -210 -189q-78 -38 -152 -38q-33 0 -66 8q-107 27 -157 127q-36 71 -36 166q0 53 11 113q27 141 103 247q80 112 205 169q-1 0 127 19q13 3 25 3q33 0 63 -22q18 82 107 87q83 0 125 -106zM706 1531q107 -30 107 -92v-8q-2 -20 -14 -42q-27 -48 -105 -99
q-111 -71 -247 -98q-61 -13 -112 -13q-48 0 -87 11q-23 7 -43 17q43 70 217 203q83 64 146 98q60 32 94 32q8 0 15 -2q15 -3 29 -7z" />
    <glyph glyph-name="acircumflex" unicode="&#xe2;" horiz-adv-x="1132" 
d="M279 313q16 -3 32 -3q116 0 205 148q86 144 86 286q-156 0 -246 -142q-77 -120 -77 -285v-4zM834 940q24 -61 37 -173q36 -309 164 -572q7 -14 33 -54q28 -42 39 -64q22 -41 22 -68t-21 -40q-30 -20 -62 -20q-10 0 -19 2q-40 7 -77 39q-52 47 -136 176l-125 190
q-88 -131 -210 -189q-78 -38 -152 -38q-33 0 -66 8q-107 27 -157 127q-36 71 -36 166q0 53 11 113q27 141 103 247q80 112 205 169q-1 0 127 19q13 3 25 3q33 0 63 -22q18 82 107 87q83 0 125 -106zM802 1190h-4q-17 0 -41 20q-21 18 -56 60q-112 131 -143 160
q-27 -28 -123 -167q-33 -48 -53 -69q-23 -23 -39 -23h-4q-94 13 -102 79q-1 7 -1 15q0 55 49 128q52 79 134 145q84 68 154 85q64 -21 148 -89q85 -68 138 -143q53 -73 53 -123q0 -7 -1 -13q-9 -61 -109 -65z" />
    <glyph glyph-name="atilde" unicode="&#xe3;" horiz-adv-x="1149" 
d="M279 313q16 -3 32 -3q116 0 205 148q86 144 86 286q-156 0 -246 -142q-77 -120 -77 -285v-4zM834 940q24 -61 37 -173q36 -309 164 -572q7 -14 33 -54q28 -42 39 -64q22 -41 22 -68t-21 -40q-30 -20 -62 -20q-10 0 -19 2q-40 7 -77 39q-52 47 -136 176l-125 190
q-88 -131 -210 -189q-78 -38 -152 -38q-33 0 -66 8q-107 27 -157 127q-36 71 -36 166q0 53 11 113q27 141 103 247q80 112 205 169q-1 0 127 19q13 3 25 3q33 0 63 -22q18 82 107 87q83 0 125 -106zM327 1530h9q68 0 140 -48q39 -27 123 -103q50 -47 83 -57q11 -3 21 -3
q19 0 36 12q19 13 51 54q44 55 65 77q29 9 52 9q28 0 45 -14q22 -19 22 -60v-11q-3 -42 -25 -94q-21 -48 -45 -77q-76 -89 -151 -95q-6 -1 -11 -1q-71 0 -149 72q-87 81 -131 108q-35 21 -63 21q-11 0 -22 -3q-31 -11 -75 -63l-47 -59l-60 -76q-22 -26 -41 -26h-4
q-18 2 -33 26q-28 45 -28 109q0 94 69 193q35 49 76 77q46 32 93 32z" />
    <glyph glyph-name="adieresis" unicode="&#xe4;" horiz-adv-x="1124" 
d="M279 313q16 -3 32 -3q116 0 205 148q86 144 86 286q-156 0 -246 -142q-77 -120 -77 -285v-4zM834 940q24 -61 37 -173q36 -309 164 -572q7 -14 33 -54q28 -42 39 -64q22 -41 22 -68t-21 -40q-30 -20 -62 -20q-10 0 -19 2q-40 7 -77 39q-52 47 -136 176l-125 190
q-88 -131 -210 -189q-78 -38 -152 -38q-33 0 -66 8q-107 27 -157 127q-36 71 -36 166q0 53 11 113q27 141 103 247q80 112 205 169q-1 0 127 19q13 3 25 3q33 0 63 -22q18 82 107 87q83 0 125 -106zM246 1466q28 7 53 7q33 0 62 -12q47 -19 67 -61q12 -24 12 -48
q0 -20 -8 -41q-19 -50 -76 -85q-9 -1 -17 -1q-37 0 -63 19q-29 21 -41 61q-9 28 -9 60q0 11 1 22q3 43 19 79zM583 1466q28 7 53 7q33 0 62 -12q47 -19 67 -61q12 -24 12 -48q0 -20 -8 -41q-19 -50 -76 -85q-9 -1 -17 -1q-37 0 -63 19q-29 21 -41 61q-9 28 -9 60q0 11 1 22
q3 43 19 79z" />
    <glyph glyph-name="aring" unicode="&#xe5;" horiz-adv-x="1124" 
d="M279 313q16 -3 32 -3q116 0 205 148q86 144 86 286q-156 0 -246 -142q-77 -120 -77 -285v-4zM834 940q24 -61 37 -173q36 -309 164 -572q7 -14 33 -54q28 -42 39 -64q22 -41 22 -68t-21 -40q-30 -20 -62 -20q-10 0 -19 2q-40 7 -77 39q-52 47 -136 176l-125 190
q-88 -131 -210 -189q-78 -38 -152 -38q-33 0 -66 8q-107 27 -157 127q-36 71 -36 166q0 53 11 113q27 141 103 247q80 112 205 169q-1 0 127 19q13 3 25 3q33 0 63 -22q18 82 107 87q83 0 125 -106zM491 1213q15 -13 32 -13q8 0 15 2q90 14 90 69q0 14 -6 30q-1 50 -21 59
q-4 3 -11 3q-23 0 -81 -17q-48 -60 -50 -60q9 -52 32 -73zM531 1460q29 9 54 9q60 0 104 -49q56 -64 56 -136v-10q-4 -81 -77 -140q-46 -37 -107 -37q-27 0 -57 7q-92 22 -135 93q-34 58 -39 95q-1 5 -1 11q0 26 17 46q7 9 104 83q38 21 81 28z" />
    <glyph glyph-name="ae" unicode="&#xe6;" horiz-adv-x="1813" 
d="M960 625q1 -54 42 -54h4q41 3 98 50q57 46 95 106q39 61 39 106v6q-109 -2 -187 -53q-91 -59 -91 -161zM270 296q16 -3 32 -3q115 0 204 146q85 143 85 285q-155 0 -244 -141q-77 -122 -77 -287zM1753 204q0 -22 -10 -54q-27 -82 -71 -133q-57 -65 -168 -79
q-30 -4 -63 -4q-61 0 -131 14q-99 20 -187 94q-39 33 -146 149q-2 -58 -39 -82q-29 -20 -61 -20q-10 0 -19 2q-40 7 -76 39q-47 42 -58 97q-13 66 -47 111q-87 -130 -208 -188q-77 -37 -149 -37q-35 0 -68 8q-106 26 -156 126q-35 70 -35 164q0 52 11 113q56 298 306 413
q0 1 126 19q13 3 25 3q32 0 62 -22q19 81 107 86q85 0 127 -115q81 101 231 152q113 38 233 38q28 0 56 -2q112 -66 131 -177q4 -24 4 -49q0 -78 -41 -167q-50 -108 -143 -202q-92 -92 -187 -133q55 -111 122 -168q80 -67 190 -67q55 0 153 71q82 59 108 59q3 0 5 -1
q66 0 66 -58z" />
    <glyph glyph-name="ccedilla" unicode="&#xe7;" horiz-adv-x="1224" 
d="M1177 428q42 -58 42 -109q0 -96 -145 -169q-170 -87 -321 -108q-48 -7 -109 -8q7 -47 90 -76q17 -6 22 -8q194 -97 221 -219q4 -17 4 -34q0 -59 -46 -115q-76 -92 -340 -92q-24 0 -80 1q-40 1 -55 1q-81 0 -89 51q-1 5 -1 10q0 30 30 62q32 36 75 49q9 2 17 2q15 0 51 -7
q29 -5 37 -5q70 0 142 14q79 15 87 35v2q0 9 -25 31q-72 59 -217 117q-1 1 -13 5q-116 36 -120 77q-2 7 -2 15q0 36 32 102q-152 34 -247 121q-126 115 -139 254q-2 16 -2 33q0 106 68 211q72 113 198 193t259 97q45 0 97 -26q52 -25 83 -63q30 -36 30 -70q0 -5 -1 -10
q-6 -45 -64 -77q-54 -30 -143 -47q-121 -24 -135 -28q-68 -21 -101 -65q-39 -55 -39 -161q23 -219 331 -219h14q349 62 504 233z" />
    <glyph glyph-name="egrave" unicode="&#xe8;" horiz-adv-x="1049" 
d="M311 582q1 -54 42 -54h4q40 3 96 50q56 45 94 104q39 60 39 105v6q-108 -2 -185 -52q-90 -59 -90 -159zM822 872q4 -23 4 -47q0 -77 -41 -167q-49 -106 -142 -199q-91 -91 -184 -132q114 -233 308 -233q54 0 151 71q80 58 106 58q4 0 6 -1q65 0 65 -57q0 -23 -10 -54
q-26 -81 -70 -131q-56 -64 -166 -78q-30 -4 -62 -4q-61 0 -129 14q-117 23 -224 127q-27 27 -88 94q-57 63 -92 95q-126 116 -139 171q-5 21 -5 76q0 69 -6 127q-3 24 -3 47q0 190 179 303q152 97 348 97q32 0 64 -2q110 -65 130 -175zM341 1538q7 2 15 2q34 0 93 -32
q64 -34 147 -98q174 -133 217 -203q-20 -10 -43 -17q-39 -11 -87 -11q-51 0 -112 13q-136 27 -247 98q-78 51 -105 99q-12 22 -14 42v8q0 62 107 92q14 4 29 7z" />
    <glyph glyph-name="eacute" unicode="&#xe9;" horiz-adv-x="1061" 
d="M311 582q1 -54 42 -54h4q40 3 96 50q56 45 94 104q39 60 39 105v6q-108 -2 -185 -52q-90 -59 -90 -159zM822 872q4 -23 4 -47q0 -77 -41 -167q-49 -106 -142 -199q-91 -91 -184 -132q114 -233 308 -233q54 0 151 71q80 58 106 58q4 0 6 -1q65 0 65 -57q0 -23 -10 -54
q-26 -81 -70 -131q-56 -64 -166 -78q-30 -4 -62 -4q-61 0 -129 14q-117 23 -224 127q-27 27 -88 94q-57 63 -92 95q-126 116 -139 171q-5 21 -5 76q0 69 -6 127q-3 24 -3 47q0 190 179 303q152 97 348 97q32 0 64 -2q110 -65 130 -175zM706 1531q107 -30 107 -92v-8
q-2 -20 -14 -42q-27 -48 -105 -99q-111 -71 -247 -98q-61 -13 -112 -13q-48 0 -87 11q-23 7 -43 17q43 70 217 203q83 64 146 98q60 32 94 32q8 0 15 -2q15 -3 29 -7z" />
    <glyph glyph-name="ecircumflex" unicode="&#xea;" horiz-adv-x="1049" 
d="M311 582q1 -54 42 -54h4q40 3 96 50q56 45 94 104q39 60 39 105v6q-108 -2 -185 -52q-90 -59 -90 -159zM822 872q4 -23 4 -47q0 -77 -41 -167q-49 -106 -142 -199q-91 -91 -184 -132q114 -233 308 -233q54 0 151 71q80 58 106 58q4 0 6 -1q65 0 65 -57q0 -23 -10 -54
q-26 -81 -70 -131q-56 -64 -166 -78q-30 -4 -62 -4q-61 0 -129 14q-117 23 -224 127q-27 27 -88 94q-57 63 -92 95q-126 116 -139 171q-5 21 -5 76q0 69 -6 127q-3 24 -3 47q0 190 179 303q152 97 348 97q32 0 64 -2q110 -65 130 -175zM802 1190h-4q-17 0 -41 20
q-21 18 -56 60q-112 131 -143 160q-27 -28 -123 -167q-33 -48 -53 -69q-23 -23 -39 -23h-4q-94 13 -102 79q-1 7 -1 15q0 55 49 128q52 79 134 145q84 68 154 85q64 -21 148 -89q85 -68 138 -143q53 -73 53 -123q0 -7 -1 -13q-9 -61 -109 -65z" />
    <glyph glyph-name="edieresis" unicode="&#xeb;" horiz-adv-x="1082" 
d="M311 582q1 -54 42 -54h4q40 3 96 50q56 45 94 104q39 60 39 105v6q-108 -2 -185 -52q-90 -59 -90 -159zM822 872q4 -23 4 -47q0 -77 -41 -167q-49 -106 -142 -199q-91 -91 -184 -132q114 -233 308 -233q54 0 151 71q80 58 106 58q4 0 6 -1q65 0 65 -57q0 -23 -10 -54
q-26 -81 -70 -131q-56 -64 -166 -78q-30 -4 -62 -4q-61 0 -129 14q-117 23 -224 127q-27 27 -88 94q-57 63 -92 95q-126 116 -139 171q-5 21 -5 76q0 69 -6 127q-3 24 -3 47q0 190 179 303q152 97 348 97q32 0 64 -2q110 -65 130 -175zM246 1466q28 7 53 7q33 0 62 -12
q47 -19 67 -61q12 -24 12 -48q0 -20 -8 -41q-19 -50 -76 -85q-9 -1 -17 -1q-37 0 -63 19q-29 21 -41 61q-9 28 -9 60q0 11 1 22q3 43 19 79zM583 1466q28 7 53 7q33 0 62 -12q47 -19 67 -61q12 -24 12 -48q0 -20 -8 -41q-19 -50 -76 -85q-9 -1 -17 -1q-37 0 -63 19
q-29 21 -41 61q-9 28 -9 60q0 11 1 22q3 43 19 79z" />
    <glyph glyph-name="igrave" unicode="&#xec;" horiz-adv-x="444" 
d="M301 851q45 -145 62 -348q8 -91 8 -169q0 -100 -13 -178q-26 -156 -96 -156h-1q-93 0 -127 189q-11 61 -21 252q-2 32 -22 152q-21 121 -24 188q-1 18 -1 34q0 194 130 194q57 0 105 -158zM31 1488q7 2 15 2q34 0 93 -32q64 -34 147 -98q174 -133 217 -203
q-20 -10 -43 -17q-39 -11 -87 -11q-51 0 -112 13q-136 27 -247 98q-78 51 -105 99q-12 22 -14 42v8q0 62 107 92q14 4 29 7z" />
    <glyph glyph-name="iacute" unicode="&#xed;" horiz-adv-x="444" 
d="M301 851q45 -145 62 -348q8 -91 8 -169q0 -100 -13 -178q-26 -156 -96 -156h-1q-93 0 -127 189q-11 61 -21 252q-2 32 -22 152q-21 121 -24 188q-1 18 -1 34q0 194 130 194q57 0 105 -158zM406 1531q107 -30 107 -92v-8q-2 -20 -14 -42q-27 -48 -105 -99
q-111 -71 -247 -98q-61 -13 -112 -13q-48 0 -87 11q-23 7 -43 17q43 70 217 203q83 64 146 98q60 32 94 32q8 0 15 -2q15 -3 29 -7z" />
    <glyph glyph-name="icircumflex" unicode="&#xee;" horiz-adv-x="444" 
d="M301 851q45 -145 62 -348q8 -91 8 -169q0 -100 -13 -178q-26 -156 -96 -156h-1q-93 0 -127 189q-11 61 -21 252q-2 32 -22 152q-21 121 -24 188q-1 18 -1 34q0 194 130 194q57 0 105 -158zM432 1090h-4q-17 0 -41 20q-21 18 -56 60q-112 131 -143 160q-27 -28 -123 -167
q-33 -48 -53 -69q-23 -23 -39 -23h-4q-94 13 -102 79q-1 7 -1 15q0 55 49 128q52 79 134 145q84 68 154 85q64 -21 148 -89q85 -68 138 -143q53 -73 53 -123q0 -7 -1 -13q-9 -61 -109 -65z" />
    <glyph glyph-name="idieresis" unicode="&#xef;" horiz-adv-x="444" 
d="M301 851q45 -145 62 -348q8 -91 8 -169q0 -100 -13 -178q-26 -156 -96 -156h-1q-93 0 -127 189q-11 61 -21 252q-2 32 -22 152q-21 121 -24 188q-1 18 -1 34q0 194 130 194q57 0 105 -158zM-64 1446q28 7 53 7q33 0 62 -12q47 -19 67 -61q12 -24 12 -48q0 -20 -8 -41
q-19 -50 -76 -85q-9 -1 -17 -1q-37 0 -63 19q-29 21 -41 61q-9 28 -9 60q0 11 1 22q3 43 19 79zM273 1446q28 7 53 7q33 0 62 -12q47 -19 67 -61q12 -24 12 -48q0 -20 -8 -41q-19 -50 -76 -85q-9 -1 -17 -1q-37 0 -63 19q-29 21 -41 61q-9 28 -9 60q0 11 1 22q3 43 19 79z
" />
    <glyph glyph-name="eth" unicode="&#xf0;" horiz-adv-x="1151" 
d="M420 289q44 -44 96 -44q23 0 46 7q270 44 270 230q0 46 -16 100q-5 169 -63 199q-13 7 -36 7q-69 0 -242 -56q-147 -199 -151 -199q27 -174 96 -244zM1008 809q82 -139 82 -291v-26q-10 -220 -189 -383q-115 -100 -263 -100q-67 0 -140 19q-229 61 -333 254
q-85 159 -97 259q-2 15 -2 30q0 72 41 127q17 23 258 226q92 58 199 77q40 13 78 19q-37 66 -88 121q-177 -145 -231 -183l-3 -2q-16 -11 -31 -11q-29 0 -57 35q-9 13 -16 27q-7 13 -11 30q-3 15 -3 30q0 20 6 40q24 82 129 156l25 18q-75 37 -165 62q-57 85 -57 139
q0 57 62 82q199 -7 367 -103l2 2q63 76 111 119q25 23 47 38q49 33 87 33q56 0 89 -69q7 -26 7 -51q0 -107 -123 -218l-16 -14q26 -27 52 -57q52 -107 118 -269z" />
    <glyph glyph-name="ntilde" unicode="&#xf1;" horiz-adv-x="1128" 
d="M567 1037h5q201 0 366 -458q0 -103 121 -277q35 -51 101 -136q65 -83 84 -111q-11 -65 -51 -65q-81 0 -283 263q-90 117 -212 297q-105 157 -109 160q-160 -350 -262 -486q-41 -55 -90 -67q-13 -3 -25 -3q-31 0 -59 19q-39 25 -59 74q-15 38 -15 79q0 15 2 31q1 7 1 46
q0 59 -2 191v29q0 151 29 196q0 44 37 61q18 7 39 7q20 0 44 -6q49 -13 82 -46q38 -36 38 -82q6 9 37 62q35 58 59 94q81 124 122 128zM327 1530h9q68 0 140 -48q39 -27 123 -103q50 -47 83 -57q11 -3 21 -3q19 0 36 12q19 13 51 54q44 55 65 77q29 9 52 9q28 0 45 -14
q22 -19 22 -60v-11q-3 -42 -25 -94q-21 -48 -45 -77q-76 -89 -151 -95q-6 -1 -11 -1q-71 0 -149 72q-87 81 -131 108q-35 21 -63 21q-11 0 -22 -3q-31 -11 -75 -63l-47 -59l-60 -76q-22 -26 -41 -26h-4q-18 2 -33 26q-28 45 -28 109q0 94 69 193q35 49 76 77q46 32 93 32z
" />
    <glyph glyph-name="ograve" unicode="&#xf2;" 
d="M306 297q23 -11 71 -11q47 0 85 16q26 11 82 47q102 65 141 113q57 67 57 161q0 -34 -42 -34q-67 0 -240 85q-23 11 -43 11q-65 0 -107 -108q-42 -107 -42 -223q7 -42 38 -57zM959 794q38 -66 38 -146q0 -67 -27 -144q-57 -163 -200 -280q-153 -125 -330 -129
q-104 0 -186 46q-76 43 -122 121q-59 98 -59 214q0 70 22 147q30 107 112 177q78 67 191 92q2 1 4 1q15 0 49 -22q35 -23 51 -23h3q14 53 55 81q39 27 95 27q224 -24 304 -162zM341 1538q7 2 15 2q34 0 93 -32q64 -34 147 -98q174 -133 217 -203q-20 -10 -43 -17
q-39 -11 -87 -11q-51 0 -112 13q-136 27 -247 98q-78 51 -105 99q-12 22 -14 42v8q0 62 107 92q14 4 29 7z" />
    <glyph glyph-name="oacute" unicode="&#xf3;" 
d="M306 297q23 -11 71 -11q47 0 85 16q26 11 82 47q102 65 141 113q57 67 57 161q0 -34 -42 -34q-67 0 -240 85q-23 11 -43 11q-65 0 -107 -108q-42 -107 -42 -223q7 -42 38 -57zM959 794q38 -66 38 -146q0 -67 -27 -144q-57 -163 -200 -280q-153 -125 -330 -129
q-104 0 -186 46q-76 43 -122 121q-59 98 -59 214q0 70 22 147q30 107 112 177q78 67 191 92q2 1 4 1q15 0 49 -22q35 -23 51 -23h3q14 53 55 81q39 27 95 27q224 -24 304 -162zM706 1531q107 -30 107 -92v-8q-2 -20 -14 -42q-27 -48 -105 -99q-111 -71 -247 -98
q-61 -13 -112 -13q-48 0 -87 11q-23 7 -43 17q43 70 217 203q83 64 146 98q60 32 94 32q8 0 15 -2q15 -3 29 -7z" />
    <glyph glyph-name="ocircumflex" unicode="&#xf4;" 
d="M306 297q23 -11 71 -11q47 0 85 16q26 11 82 47q102 65 141 113q57 67 57 161q0 -34 -42 -34q-67 0 -240 85q-23 11 -43 11q-65 0 -107 -108q-42 -107 -42 -223q7 -42 38 -57zM959 794q38 -66 38 -146q0 -67 -27 -144q-57 -163 -200 -280q-153 -125 -330 -129
q-104 0 -186 46q-76 43 -122 121q-59 98 -59 214q0 70 22 147q30 107 112 177q78 67 191 92q2 1 4 1q15 0 49 -22q35 -23 51 -23h3q14 53 55 81q39 27 95 27q224 -24 304 -162zM802 1190h-4q-17 0 -41 20q-21 18 -56 60q-112 131 -143 160q-27 -28 -123 -167
q-33 -48 -53 -69q-23 -23 -39 -23h-4q-94 13 -102 79q-1 7 -1 15q0 55 49 128q52 79 134 145q84 68 154 85q64 -21 148 -89q85 -68 138 -143q53 -73 53 -123q0 -7 -1 -13q-9 -61 -109 -65z" />
    <glyph glyph-name="otilde" unicode="&#xf5;" 
d="M306 297q23 -11 71 -11q47 0 85 16q26 11 82 47q102 65 141 113q57 67 57 161q0 -34 -42 -34q-67 0 -240 85q-23 11 -43 11q-65 0 -107 -108q-42 -107 -42 -223q7 -42 38 -57zM959 794q38 -66 38 -146q0 -67 -27 -144q-57 -163 -200 -280q-153 -125 -330 -129
q-104 0 -186 46q-76 43 -122 121q-59 98 -59 214q0 70 22 147q30 107 112 177q78 67 191 92q2 1 4 1q15 0 49 -22q35 -23 51 -23h3q14 53 55 81q39 27 95 27q224 -24 304 -162zM323 1450h9q68 0 140 -48q39 -27 123 -103q50 -47 83 -57q11 -3 21 -3q19 0 36 12q19 13 51 54
q44 55 65 77q29 9 52 9q28 0 45 -14q22 -19 22 -60v-11q-3 -42 -25 -94q-21 -48 -45 -77q-76 -89 -151 -95q-6 -1 -11 -1q-71 0 -149 72q-87 81 -131 108q-35 21 -63 21q-11 0 -22 -3q-31 -11 -75 -63l-47 -59l-60 -76q-22 -26 -41 -26h-4q-18 2 -33 26q-28 45 -28 109
q0 94 69 193q35 49 76 77q46 32 93 32z" />
    <glyph glyph-name="odieresis" unicode="&#xf6;" 
d="M306 297q23 -11 71 -11q47 0 85 16q26 11 82 47q102 65 141 113q57 67 57 161q0 -34 -42 -34q-67 0 -240 85q-23 11 -43 11q-65 0 -107 -108q-42 -107 -42 -223q7 -42 38 -57zM959 794q38 -66 38 -146q0 -67 -27 -144q-57 -163 -200 -280q-153 -125 -330 -129
q-104 0 -186 46q-76 43 -122 121q-59 98 -59 214q0 70 22 147q30 107 112 177q78 67 191 92q2 1 4 1q15 0 49 -22q35 -23 51 -23h3q14 53 55 81q39 27 95 27q224 -24 304 -162zM246 1466q28 7 53 7q33 0 62 -12q47 -19 67 -61q12 -24 12 -48q0 -20 -8 -41q-19 -50 -76 -85
q-9 -1 -17 -1q-37 0 -63 19q-29 21 -41 61q-9 28 -9 60q0 11 1 22q3 43 19 79zM583 1466q28 7 53 7q33 0 62 -12q47 -19 67 -61q12 -24 12 -48q0 -20 -8 -41q-19 -50 -76 -85q-9 -1 -17 -1q-37 0 -63 19q-29 21 -41 61q-9 28 -9 60q0 11 1 22q3 43 19 79z" />
    <glyph glyph-name="divide" unicode="&#xf7;" horiz-adv-x="1377" 
d="M976 656q95 -8 154 -22q135 -33 135 -108q0 -36 -30 -81q-18 -27 -173 -27q-37 0 -83 2q-66 2 -174 9q-94 6 -109 6h-348q-20 0 -75 -13q-63 -15 -91 -18q-15 -2 -28 -2q-30 0 -49 10q-32 17 -32 65q0 131 361 171q119 13 273 16h176q5 -2 93 -8zM574 1026q28 7 53 7
q33 0 62 -12q47 -19 67 -61q12 -24 12 -48q0 -20 -8 -41q-19 -50 -76 -85q-9 -1 -17 -1q-37 0 -63 19q-29 21 -41 61q-9 28 -9 60q0 11 1 22q3 43 19 79zM574 326q28 7 53 7q33 0 62 -12q47 -19 67 -61q12 -24 12 -48q0 -20 -8 -41q-19 -50 -76 -85q-9 -1 -17 -1
q-37 0 -63 19q-29 21 -41 61q-9 28 -9 60q0 11 1 22q3 43 19 79z" />
    <glyph glyph-name="oslash" unicode="&#xf8;" 
d="M536 343q102 65 141 113q56 67 56 160q0 29 -16 43q-28 -38 -71 -91q-39 -49 -46 -60l-79 -102l-90 -117q38 11 105 54zM452 667q-23 11 -43 11q-64 0 -106 -107q-42 -108 -42 -223q3 -18 12 -32q47 84 234 340q-34 1 -55 11zM985 672q2 -17 2 -35q0 -108 -64 -225
q-74 -136 -201 -224q-138 -95 -289 -98q-62 0 -119 19q-69 -129 -69 -229q-121 0 -121 93v9q4 67 71 192q-85 74 -114 194q-12 53 -12 107q0 69 20 141q30 107 112 177q77 66 190 91q2 1 5 1q15 0 48 -22q34 -23 49 -23q2 0 4 1q30 107 150 107q36 -3 75 -12q56 83 56 123
q107 0 107 -79q0 -40 -27 -99q114 -73 127 -209z" />
    <glyph glyph-name="ugrave" unicode="&#xf9;" 
d="M355 806q1 -13 1 -27q0 -76 -26 -205q-37 -178 -39 -216q-1 -9 -1 -16q0 -79 55 -79q68 0 110 94q27 63 53 207q30 164 43 207q30 94 79 94q147 0 234 -216q25 -63 60 -186q34 -123 50 -163q21 -52 21 -93q0 -29 -10 -53q-20 -49 -75 -49q-22 0 -50 8q0 60 -63 167
q-44 90 -119 190q-12 -216 -88 -299q-71 -77 -175 -96q-30 -6 -59 -6q-71 0 -132 36q-94 56 -124 180q-27 114 -27 243q0 71 8 147q13 123 52 193q46 83 126 83q86 -29 96 -145zM341 1538q7 2 15 2q34 0 93 -32q64 -34 147 -98q174 -133 217 -203q-20 -10 -43 -17
q-39 -11 -87 -11q-51 0 -112 13q-136 27 -247 98q-78 51 -105 99q-12 22 -14 42v8q0 62 107 92q14 4 29 7z" />
    <glyph glyph-name="uacute" unicode="&#xfa;" 
d="M355 806q1 -13 1 -27q0 -76 -26 -205q-37 -178 -39 -216q-1 -9 -1 -16q0 -79 55 -79q68 0 110 94q27 63 53 207q30 164 43 207q30 94 79 94q147 0 234 -216q25 -63 60 -186q34 -123 50 -163q21 -52 21 -93q0 -29 -10 -53q-20 -49 -75 -49q-22 0 -50 8q0 60 -63 167
q-44 90 -119 190q-12 -216 -88 -299q-71 -77 -175 -96q-30 -6 -59 -6q-71 0 -132 36q-94 56 -124 180q-27 114 -27 243q0 71 8 147q13 123 52 193q46 83 126 83q86 -29 96 -145zM706 1531q107 -30 107 -92v-8q-2 -20 -14 -42q-27 -48 -105 -99q-111 -71 -247 -98
q-61 -13 -112 -13q-48 0 -87 11q-23 7 -43 17q43 70 217 203q83 64 146 98q60 32 94 32q8 0 15 -2q15 -3 29 -7z" />
    <glyph glyph-name="ucircumflex" unicode="&#xfb;" 
d="M355 806q1 -13 1 -27q0 -76 -26 -205q-37 -178 -39 -216q-1 -9 -1 -16q0 -79 55 -79q68 0 110 94q27 63 53 207q30 164 43 207q30 94 79 94q147 0 234 -216q25 -63 60 -186q34 -123 50 -163q21 -52 21 -93q0 -29 -10 -53q-20 -49 -75 -49q-22 0 -50 8q0 60 -63 167
q-44 90 -119 190q-12 -216 -88 -299q-71 -77 -175 -96q-30 -6 -59 -6q-71 0 -132 36q-94 56 -124 180q-27 114 -27 243q0 71 8 147q13 123 52 193q46 83 126 83q86 -29 96 -145zM802 1190h-4q-17 0 -41 20q-21 18 -56 60q-112 131 -143 160q-27 -28 -123 -167
q-33 -48 -53 -69q-23 -23 -39 -23h-4q-94 13 -102 79q-1 7 -1 15q0 55 49 128q52 79 134 145q84 68 154 85q64 -21 148 -89q85 -68 138 -143q53 -73 53 -123q0 -7 -1 -13q-9 -61 -109 -65z" />
    <glyph glyph-name="udieresis" unicode="&#xfc;" 
d="M355 806q1 -13 1 -27q0 -76 -26 -205q-37 -178 -39 -216q-1 -9 -1 -16q0 -79 55 -79q68 0 110 94q27 63 53 207q30 164 43 207q30 94 79 94q147 0 234 -216q25 -63 60 -186q34 -123 50 -163q21 -52 21 -93q0 -29 -10 -53q-20 -49 -75 -49q-22 0 -50 8q0 60 -63 167
q-44 90 -119 190q-12 -216 -88 -299q-71 -77 -175 -96q-30 -6 -59 -6q-71 0 -132 36q-94 56 -124 180q-27 114 -27 243q0 71 8 147q13 123 52 193q46 83 126 83q86 -29 96 -145zM246 1466q28 7 53 7q33 0 62 -12q47 -19 67 -61q12 -24 12 -48q0 -20 -8 -41q-19 -50 -76 -85
q-9 -1 -17 -1q-37 0 -63 19q-29 21 -41 61q-9 28 -9 60q0 11 1 22q3 43 19 79zM583 1466q28 7 53 7q33 0 62 -12q47 -19 67 -61q12 -24 12 -48q0 -20 -8 -41q-19 -50 -76 -85q-9 -1 -17 -1q-37 0 -63 19q-29 21 -41 61q-9 28 -9 60q0 11 1 22q3 43 19 79z" />
    <glyph glyph-name="yacute" unicode="&#xfd;" horiz-adv-x="1138" 
d="M412 985q97 -46 97 -164q0 -39 -11 -87q-14 -61 -53 -157q-47 -116 -53 -134q50 38 153 177q117 158 166 208q79 80 139 80q12 0 23 -3q83 -22 139 -214q48 -161 48 -339q0 -102 -16 -209q-50 -339 -239 -467q-126 -85 -323 -96q-26 -1 -50 -1q-166 0 -280 64
q-42 23 -64 66q-11 20 -11 36q0 26 28 43q47 28 127 28q20 0 43 -2q18 -1 92 -10q56 -7 87 -7q288 0 347 308q16 90 16 224v43q-1 38 -5 127q-3 75 -3 110q-31 -12 -122 -135q-124 -166 -172 -220q-106 -117 -181 -126q-6 -1 -11 -1q-86 0 -139 149q-16 36 -16 119
q0 21 1 45q5 121 32 243q31 138 81 217q53 86 119 86q5 0 11 -1zM906 1531q107 -30 107 -92v-8q-2 -20 -14 -42q-27 -48 -105 -99q-111 -71 -247 -98q-61 -13 -112 -13q-48 0 -87 11q-23 7 -43 17q43 70 217 203q83 64 146 98q60 32 94 32q8 0 15 -2q15 -3 29 -7z" />
    <glyph glyph-name="thorn" unicode="&#xfe;" 
d="M284 886q24 11 49 20q63 21 132 21q41 0 84 -7q4 0 10 -2q19 -8 45 -45q55 9 105 20q16 4 34 4q36 0 76 -16q206 -110 229 -272q3 -19 3 -37q0 -56 -23 -111q-24 -61 -78 -121q-114 -130 -291 -185q-93 -29 -181 -29q-95 0 -184 34q-19 8 -36 17q-7 -293 -12 -396v-6
q-6 -108 -63 -137q-11 -5 -22 -5h-3q-12 0 -24 8q-27 19 -42 69q-27 89 -27 255q0 56 3 120l14 278q-14 36 -20 76q-5 33 -5 65q0 66 21 129q-2 27 -4 58q-11 183 -11 310q0 65 3 119q17 284 114 284h4q101 -52 101 -454q0 -30 -1 -64zM268 518l-5 -90q0 -20 -1 -39
q16 -12 46 -24q40 -16 78 -16q27 0 91 13q118 21 171 51q7 4 11 4q5 0 5 -6q0 -5 -4 -14q116 101 137 204q1 6 1 12q0 91 -304 103q-10 4 -22 4q-45 0 -106 -65q-59 -62 -98 -137z" />
    <glyph glyph-name="ydieresis" unicode="&#xff;" horiz-adv-x="1138" 
d="M412 985q97 -46 97 -164q0 -39 -11 -87q-14 -61 -53 -157q-47 -116 -53 -134q50 38 153 177q117 158 166 208q79 80 139 80q12 0 23 -3q83 -22 139 -214q48 -161 48 -339q0 -102 -16 -209q-50 -339 -239 -467q-126 -85 -323 -96q-26 -1 -50 -1q-166 0 -280 64
q-42 23 -64 66q-11 20 -11 36q0 26 28 43q47 28 127 28q20 0 43 -2q18 -1 92 -10q56 -7 87 -7q288 0 347 308q16 90 16 224v43q-1 38 -5 127q-3 75 -3 110q-31 -12 -122 -135q-124 -166 -172 -220q-106 -117 -181 -126q-6 -1 -11 -1q-86 0 -139 149q-16 36 -16 119
q0 21 1 45q5 121 32 243q31 138 81 217q53 86 119 86q5 0 11 -1zM446 1466q28 7 53 7q33 0 62 -12q47 -19 67 -61q12 -24 12 -48q0 -20 -8 -41q-19 -50 -76 -85q-9 -1 -17 -1q-37 0 -63 19q-29 21 -41 61q-9 28 -9 60q0 11 1 22q3 43 19 79zM783 1466q28 7 53 7q33 0 62 -12
q47 -19 67 -61q12 -24 12 -48q0 -20 -8 -41q-19 -50 -76 -85q-9 -1 -17 -1q-37 0 -63 19q-29 21 -41 61q-9 28 -9 60q0 11 1 22q3 43 19 79z" />
    <glyph glyph-name="Amacron" unicode="&#x100;" horiz-adv-x="1413" 
d="M554 929l-75 -259h23q132 0 340 21q-11 29 -37 120q-31 107 -48 158q-67 201 -128 219zM837 1547q3 -16 4 -53q0 -52 3 -89q10 -133 81 -343q43 -125 223 -468q156 -297 190 -471q7 -34 7 -60q0 -35 -12 -57q-25 -48 -106 -48h-17q-71 0 -77 31q-1 3 -2 41q-1 32 -12 57
q0 76 -47 202q-54 143 -108 143h-230q-242 0 -291 -31q-36 -23 -60 -82q-11 -27 -51 -160q-6 -21 -15 -81q-9 -65 -17 -95q-28 -112 -98 -112q-34 0 -73 73q-32 62 -32 101v8q19 207 110 502l79 247q51 154 77 243q98 340 115 379q106 239 279 239q72 -80 80 -116zM927 2081
q65 -6 105 -17q91 -25 91 -83q0 -27 -20 -62q-12 -21 -117 -21q-25 0 -57 2q-44 1 -117 7q-64 4 -74 4h-236q-13 0 -51 -10q-42 -11 -61 -13q-10 -2 -19 -2q-20 0 -33 8q-22 13 -22 50q0 100 244 131q81 10 185 12h119q4 -2 63 -6z" />
    <glyph glyph-name="amacron" unicode="&#x101;" horiz-adv-x="1120" 
d="M279 313q16 -3 32 -3q116 0 205 148q86 144 86 286q-156 0 -246 -142q-77 -120 -77 -285v-4zM834 940q24 -61 37 -173q36 -309 164 -572q7 -14 33 -54q28 -42 39 -64q22 -41 22 -68t-21 -40q-30 -20 -62 -20q-10 0 -19 2q-40 7 -77 39q-52 47 -136 176l-125 190
q-88 -131 -210 -189q-78 -38 -152 -38q-33 0 -66 8q-107 27 -157 127q-36 71 -36 166q0 53 11 113q27 141 103 247q80 112 205 169q-1 0 127 19q13 3 25 3q33 0 63 -22q18 82 107 87q83 0 125 -106zM778 1454q65 -6 105 -17q91 -25 91 -83q0 -27 -20 -62q-12 -21 -117 -21
q-25 0 -57 2q-44 1 -117 7q-64 4 -74 4h-236q-13 0 -51 -10q-42 -11 -61 -13q-10 -2 -19 -2q-20 0 -33 8q-22 13 -22 50q0 100 244 131q81 10 185 12h119q4 -2 63 -6z" />
    <glyph glyph-name="Abreve" unicode="&#x102;" horiz-adv-x="1413" 
d="M554 929l-75 -259h23q132 0 340 21q-11 29 -37 120q-31 107 -48 158q-67 201 -128 219zM837 1547q3 -16 4 -53q0 -52 3 -89q10 -133 81 -343q43 -125 223 -468q156 -297 190 -471q7 -34 7 -60q0 -35 -12 -57q-25 -48 -106 -48h-17q-71 0 -77 31q-1 3 -2 41q-1 32 -12 57
q0 76 -47 202q-54 143 -108 143h-230q-242 0 -291 -31q-36 -23 -60 -82q-11 -27 -51 -160q-6 -21 -15 -81q-9 -65 -17 -95q-28 -112 -98 -112q-34 0 -73 73q-32 62 -32 101v8q19 207 110 502l79 247q51 154 77 243q98 340 115 379q106 239 279 239q72 -80 80 -116z
M1012 2130v-14q-6 -122 -116 -212q-70 -55 -161 -55q-41 0 -86 11q-141 33 -204 140q-53 88 -60 143q-1 6 -1 12q49 42 94 42q55 0 103 -63q13 -78 48 -109q22 -20 48 -20q12 0 24 3q134 20 134 104q0 21 -8 45q60 40 116 40q33 0 64 -13q5 -27 5 -54z" />
    <glyph glyph-name="abreve" unicode="&#x103;" horiz-adv-x="1120" 
d="M279 313q16 -3 32 -3q116 0 205 148q86 144 86 286q-156 0 -246 -142q-77 -120 -77 -285v-4zM834 940q24 -61 37 -173q36 -309 164 -572q7 -14 33 -54q28 -42 39 -64q22 -41 22 -68t-21 -40q-30 -20 -62 -20q-10 0 -19 2q-40 7 -77 39q-52 47 -136 176l-125 190
q-88 -131 -210 -189q-78 -38 -152 -38q-33 0 -66 8q-107 27 -157 127q-36 71 -36 166q0 53 11 113q27 141 103 247q80 112 205 169q-1 0 127 19q13 3 25 3q33 0 63 -22q18 82 107 87q83 0 125 -106zM882 1550v-14q-6 -122 -116 -212q-70 -55 -161 -55q-41 0 -86 11
q-141 33 -204 140q-53 88 -60 143q-1 6 -1 12q49 42 94 42q55 0 103 -63q13 -78 48 -109q22 -20 48 -20q12 0 24 3q134 20 134 104q0 21 -8 45q60 40 116 40q33 0 64 -13q5 -27 5 -54z" />
    <glyph glyph-name="Aogonek" unicode="&#x104;" horiz-adv-x="1413" 
d="M554 929l-75 -259h23q132 0 340 21q-11 29 -37 120q-31 107 -48 158q-67 201 -128 219zM1119 93q-2 75 -47 196q-54 143 -108 143h-230q-242 0 -291 -31q-36 -23 -60 -82q-11 -27 -51 -160q-6 -21 -15 -81q-9 -65 -17 -95q-28 -112 -98 -112q-34 0 -73 73q-32 62 -32 101
v8q19 207 110 502l79 247q51 154 77 243q98 340 115 379q106 239 279 239q72 -80 80 -116q3 -16 4 -53q0 -52 3 -89q10 -133 81 -343q43 -125 223 -468q156 -297 190 -471q7 -34 7 -60q0 -35 -12 -57q-25 -48 -106 -48h-27q-23 -36 -58 -82q-22 -19 -22 -27v-2q7 -18 76 -31
q63 -12 124 -12q8 0 32 5q32 6 45 6q7 0 15 -2q37 -12 66 -43q16 -78 16 -104q0 -4 -1 -8q-8 -45 -78 -45q-17 0 -48 -1q-47 -1 -70 -1q-230 0 -297 80q-40 49 -40 100q0 15 3 30q24 107 117 261z" />
    <glyph glyph-name="aogonek" unicode="&#x105;" horiz-adv-x="1128" 
d="M279 313q16 -3 32 -3q116 0 205 148q86 144 86 286q-156 0 -246 -142q-77 -120 -77 -285v-4zM885 64q-32 42 -71 102l-125 190q-88 -131 -210 -189q-78 -38 -152 -38q-33 0 -66 8q-107 27 -157 127q-36 71 -36 166q0 53 11 113q27 141 103 247q80 112 205 169
q-1 0 127 19q13 3 25 3q33 0 63 -22q18 82 107 87q83 0 125 -106q24 -61 37 -173q36 -309 164 -572q7 -14 33 -54q28 -42 39 -64q22 -41 22 -68t-21 -40q-30 -20 -62 -20q-10 0 -19 2q-14 3 -28 8q-25 -45 -73 -107q-22 -19 -22 -27v-2q7 -18 76 -31q63 -12 124 -12
q8 0 32 5q32 6 45 6q7 0 15 -2q37 -12 66 -43q16 -78 16 -104q0 -4 -1 -8q-8 -45 -78 -45q-17 0 -48 -1q-47 -1 -70 -1q-230 0 -297 80q-40 49 -40 100q0 15 3 30q24 107 117 261z" />
    <glyph glyph-name="Cacute" unicode="&#x106;" horiz-adv-x="1616" 
d="M1023 1349q76 -51 82 -103q1 -5 1 -10q0 -56 -84 -106q-8 -5 -26 -5q-41 0 -134 28q-152 45 -185 45q-197 0 -302 -198q-81 -150 -102 -335v-21q0 -199 92 -322q90 -138 256 -138q63 0 137 20q23 5 472 172q6 2 61 28q53 25 89 38q52 18 83 18q40 0 46 -31q17 -84 17 -99
v-1q-3 -43 -58 -70q-376 -187 -449 -216q-212 -85 -358 -85q-53 0 -97 11q-257 66 -386 310q-95 179 -95 396q0 51 5 105q27 280 187 467q175 206 444 206q153 0 304 -104zM888 2052q12 -5 23 -11q75 -41 75 -104q0 -11 -2 -22q-4 -23 -17 -47q-29 -52 -100 -104
q-101 -71 -215 -89q-31 -5 -59 -5q-60 0 -104 24q-18 9 -33 23q45 77 206 213q77 66 134 99q47 27 74 27q11 0 18 -4z" />
    <glyph glyph-name="cacute" unicode="&#x107;" horiz-adv-x="1207" 
d="M576 962h10q42 0 89 -21q53 -23 87 -60q33 -37 33 -74v-6q-4 -46 -62 -81q-53 -32 -141 -53q-121 -30 -135 -34q-68 -25 -99 -71q-33 -51 -33 -139q0 -12 1 -25q27 -181 240 -181q50 0 112 10q41 7 299 134q93 46 147 57q21 4 38 4q41 0 61 -25q24 -30 24 -61
q0 -30 -21 -61q-37 -54 -135 -110q-168 -95 -319 -124q-79 -15 -156 -15q-66 0 -131 11q-157 27 -260 113q-133 110 -152 249q-4 25 -4 49q0 100 59 201q67 117 191 204q124 86 257 109zM654 1575q12 -5 23 -11q75 -41 75 -104q0 -11 -2 -22q-4 -23 -17 -47
q-29 -52 -100 -104q-101 -71 -215 -89q-31 -5 -59 -5q-60 0 -104 24q-18 9 -33 23q45 77 206 213q77 66 134 99q47 27 74 27q11 0 18 -4z" />
    <glyph glyph-name="Ccircumflex" unicode="&#x108;" horiz-adv-x="1616" 
d="M1023 1349q76 -51 82 -103q1 -5 1 -10q0 -56 -84 -106q-8 -5 -26 -5q-41 0 -134 28q-152 45 -185 45q-197 0 -302 -198q-81 -150 -102 -335v-21q0 -199 92 -322q90 -138 256 -138q63 0 137 20q23 5 472 172q6 2 61 28q53 25 89 38q52 18 83 18q40 0 46 -31q17 -84 17 -99
v-1q-3 -43 -58 -70q-376 -187 -449 -216q-212 -85 -358 -85q-53 0 -97 11q-257 66 -386 310q-95 179 -95 396q0 51 5 105q27 280 187 467q175 206 444 206q153 0 304 -104zM983 1681h-4q-17 0 -41 20q-21 18 -56 60q-112 131 -143 160q-27 -28 -123 -167q-33 -48 -53 -69
q-23 -23 -39 -23h-4q-94 13 -102 79q-1 7 -1 15q0 55 49 128q52 79 134 145q84 68 154 85q64 -21 148 -89q85 -68 138 -143q53 -73 53 -123q0 -7 -1 -13q-9 -61 -109 -65z" />
    <glyph glyph-name="ccircumflex" unicode="&#x109;" horiz-adv-x="1207" 
d="M576 962h10q42 0 89 -21q53 -23 87 -60q33 -37 33 -74v-6q-4 -46 -62 -81q-53 -32 -141 -53q-121 -30 -135 -34q-68 -25 -99 -71q-33 -51 -33 -139q0 -12 1 -25q27 -181 240 -181q50 0 112 10q41 7 299 134q93 46 147 57q21 4 38 4q41 0 61 -25q24 -30 24 -61
q0 -30 -21 -61q-37 -54 -135 -110q-168 -95 -319 -124q-79 -15 -156 -15q-66 0 -131 11q-157 27 -260 113q-133 110 -152 249q-4 25 -4 49q0 100 59 201q67 117 191 204q124 86 257 109zM786 1242h-4q-17 0 -41 20q-21 18 -56 60q-112 131 -143 160q-27 -28 -123 -167
q-33 -48 -53 -69q-23 -23 -39 -23h-4q-94 13 -102 79q-1 7 -1 15q0 55 49 128q52 79 134 145q84 68 154 85q64 -21 148 -89q85 -68 138 -143q53 -73 53 -123q0 -7 -1 -13q-9 -61 -109 -65z" />
    <glyph glyph-name="Cdotaccent" unicode="&#x10a;" horiz-adv-x="1616" 
d="M1023 1349q76 -51 82 -103q1 -5 1 -10q0 -56 -84 -106q-8 -5 -26 -5q-41 0 -134 28q-152 45 -185 45q-197 0 -302 -198q-81 -150 -102 -335v-21q0 -199 92 -322q90 -138 256 -138q63 0 137 20q23 5 472 172q6 2 61 28q53 25 89 38q52 18 83 18q40 0 46 -31q17 -84 17 -99
v-1q-3 -43 -58 -70q-376 -187 -449 -216q-212 -85 -358 -85q-53 0 -97 11q-257 66 -386 310q-95 179 -95 396q0 51 5 105q27 280 187 467q175 206 444 206q153 0 304 -104zM623 1944q28 7 53 7q33 0 62 -12q47 -19 67 -61q12 -24 12 -48q0 -20 -8 -41q-19 -50 -76 -85
q-9 -1 -17 -1q-37 0 -63 19q-29 21 -41 61q-9 28 -9 60q0 11 1 22q3 43 19 79z" />
    <glyph glyph-name="cdotaccent" unicode="&#x10b;" horiz-adv-x="1207" 
d="M576 962h10q42 0 89 -21q53 -23 87 -60q33 -37 33 -74v-6q-4 -46 -62 -81q-53 -32 -141 -53q-121 -30 -135 -34q-68 -25 -99 -71q-33 -51 -33 -139q0 -12 1 -25q27 -181 240 -181q50 0 112 10q41 7 299 134q93 46 147 57q21 4 38 4q41 0 61 -25q24 -30 24 -61
q0 -30 -21 -61q-37 -54 -135 -110q-168 -95 -319 -124q-79 -15 -156 -15q-66 0 -131 11q-157 27 -260 113q-133 110 -152 249q-4 25 -4 49q0 100 59 201q67 117 191 204q124 86 257 109zM473 1522q28 7 53 7q33 0 62 -12q47 -19 67 -61q12 -24 12 -48q0 -20 -8 -41
q-19 -50 -76 -85q-9 -1 -17 -1q-37 0 -63 19q-29 21 -41 61q-9 28 -9 60q0 11 1 22q3 43 19 79z" />
    <glyph glyph-name="Ccaron" unicode="&#x10c;" horiz-adv-x="1616" 
d="M1023 1349q76 -51 82 -103q1 -5 1 -10q0 -56 -84 -106q-8 -5 -26 -5q-41 0 -134 28q-152 45 -185 45q-197 0 -302 -198q-81 -150 -102 -335v-21q0 -199 92 -322q90 -138 256 -138q63 0 137 20q23 5 472 172q6 2 61 28q53 25 89 38q52 18 83 18q40 0 46 -31q17 -84 17 -99
v-1q-3 -43 -58 -70q-376 -187 -449 -216q-212 -85 -358 -85q-53 0 -97 11q-257 66 -386 310q-95 179 -95 396q0 51 5 105q27 280 187 467q175 206 444 206q153 0 304 -104zM1035 1955q1 -6 1 -13q0 -50 -53 -123q-53 -75 -138 -143q-84 -68 -148 -89q-70 17 -154 85
q-82 66 -134 145q-49 73 -49 128q0 8 1 15q8 66 102 79h4q16 0 39 -23q20 -21 53 -69q96 -139 123 -167q31 29 143 160q35 42 56 60q24 20 41 20h4q100 -4 109 -65z" />
    <glyph glyph-name="ccaron" unicode="&#x10d;" horiz-adv-x="1207" 
d="M576 962h10q42 0 89 -21q53 -23 87 -60q33 -37 33 -74v-6q-4 -46 -62 -81q-53 -32 -141 -53q-121 -30 -135 -34q-68 -25 -99 -71q-33 -51 -33 -139q0 -12 1 -25q27 -181 240 -181q50 0 112 10q41 7 299 134q93 46 147 57q21 4 38 4q41 0 61 -25q24 -30 24 -61
q0 -30 -21 -61q-37 -54 -135 -110q-168 -95 -319 -124q-79 -15 -156 -15q-66 0 -131 11q-157 27 -260 113q-133 110 -152 249q-4 25 -4 49q0 100 59 201q67 117 191 204q124 86 257 109zM848 1571q1 -6 1 -13q0 -50 -53 -123q-53 -75 -138 -143q-84 -68 -148 -89
q-70 17 -154 85q-82 66 -134 145q-49 73 -49 128q0 8 1 15q8 66 102 79h4q16 0 39 -23q20 -21 53 -69q96 -139 123 -167q31 29 143 160q35 42 56 60q24 20 41 20h4q100 -4 109 -65z" />
    <glyph glyph-name="Dcaron" unicode="&#x10e;" horiz-adv-x="1507" 
d="M488 619v-13q0 -35 -8 -106q-8 -72 -8 -112v-14q6 -124 124 -124q15 0 32 2q323 41 470 139q69 46 95 123q46 138 50 146q0 190 -309 340q-117 57 -463 166q0 -327 17 -547zM672 1312q70 -28 220 -82q117 -42 143 -56q428 -237 428 -549q0 -297 -264 -453
q-154 -90 -392 -129q-12 -2 -171 -2q-133 0 -165 -21q0 -101 -66 -101q-34 0 -86 27q-98 51 -221 171q-37 36 -37 65q0 28 31 50q44 32 134 48q53 9 55 77q0 21 -4 62q-4 45 -4 63q0 494 -44 648q-51 183 -51 239v8q10 141 205 141q0 -88 289 -206zM1085 2032q1 -6 1 -13
q0 -50 -53 -123q-53 -75 -138 -143q-84 -68 -148 -89q-70 17 -154 85q-82 66 -134 145q-49 73 -49 128q0 8 1 15q8 66 102 79h4q16 0 39 -23q20 -21 53 -69q96 -139 123 -167q31 29 143 160q35 42 56 60q24 20 41 20h4q100 -4 109 -65z" />
    <glyph glyph-name="dcaron" unicode="&#x10f;" horiz-adv-x="1404" 
d="M363 301q30 -30 63 -30q23 0 47 15q53 32 92 128q8 22 49 153q11 35 11 61q0 38 -25 53q-14 8 -32 8q-31 0 -74 -22q-70 -36 -121 -103q-57 -76 -57 -155q0 -62 47 -108zM864 1570q29 7 53 7q117 0 117 -169v-10q-1 -63 -20 -183q-19 -117 -19 -149q0 -286 153 -920
q-25 -12 -50 -12q-87 0 -160 155q-20 41 -65 161q-35 90 -54 113q-44 -217 -98 -316q-90 -167 -252 -167q-180 0 -299 153q-96 124 -96 269q0 33 5 66q49 340 587 389q51 38 70 135q9 49 16 188q7 124 24 181q25 85 88 109zM1311 1599q4 -6 7 -13q7 -20 7 -52q0 -21 -3 -47
q-7 -72 -32 -172q-51 -211 -94 -277q-14 14 -27 33q-22 32 -37 77q-17 47 -26 109q-11 70 -11 137q0 65 10 128q16 92 46 135q14 19 30 28l6 3q10 5 21 5q41 0 88 -70q8 -11 15 -24z" />
    <glyph glyph-name="Dcroat" unicode="&#x110;" horiz-adv-x="1507" 
d="M266 830q-11 209 -37 300q-51 183 -51 239v8q10 141 205 141q0 -88 289 -206q70 -28 220 -82q117 -42 143 -56q428 -237 428 -549q0 -297 -264 -453q-154 -90 -392 -129q-12 -2 -171 -2q-133 0 -165 -21q0 -101 -66 -101q-34 0 -86 27q-98 51 -221 171q-37 36 -37 65
q0 28 31 50q44 32 134 48q53 9 55 77q0 21 -4 62q-4 45 -4 63q0 69 -1 131h-101q-15 0 -55 -13q-45 -15 -65 -18q-11 -2 -20 -2q-22 0 -36 10q-23 17 -23 65q0 131 261 171zM476 842h81q4 -2 67 -8q69 -8 111 -22q98 -33 98 -108q0 -36 -22 -81q-13 -27 -125 -27
q-26 0 -60 2q-47 2 -125 9q-7 1 -13 1v-2q0 -35 -8 -106q-8 -72 -8 -112v-14q6 -124 124 -124q15 0 32 2q323 41 470 139q69 46 95 123q46 138 50 146q0 190 -309 340q-117 57 -463 166q0 -178 5 -324z" />
    <glyph glyph-name="dcroat" unicode="&#x111;" horiz-adv-x="1245" 
d="M363 301q30 -30 63 -30q23 0 47 15q53 32 92 128q8 22 49 153q11 35 11 61q0 38 -25 53q-14 8 -32 8q-31 0 -74 -22q-70 -36 -121 -103q-57 -76 -57 -155q0 -62 47 -108zM762 1394q6 41 14 67q25 85 88 109q29 7 53 7q117 0 117 -169v-23q50 -6 86 -13q108 -25 108 -80
q0 -27 -24 -60q-15 -20 -139 -20q-24 0 -51 1q-19 -115 -19 -147q0 -286 153 -920q-25 -12 -50 -12q-87 0 -160 155q-20 41 -65 161q-35 90 -54 113q-44 -217 -98 -316q-90 -167 -252 -167q-180 0 -299 153q-96 124 -96 269q0 33 5 66q49 340 587 389q51 38 70 135
q7 38 13 132h-257q-16 0 -60 -9q-51 -11 -73 -14q-13 -1 -23 -1q-24 0 -39 7q-26 13 -26 49q0 97 290 126q88 9 201 12z" />
    <glyph glyph-name="Emacron" unicode="&#x112;" horiz-adv-x="1551" 
d="M265 1453q25 -34 25 -91q63 42 162 42q18 0 37 -1q15 -1 105 -12q56 -6 94 -6h10q174 6 496 42q48 -59 54 -130q1 -6 1 -12q0 -74 -85 -74h-551q-187 0 -261 -28q-55 -22 -55 -122q0 -21 2 -46q4 -40 19 -116q13 -72 15 -96q233 42 575 42q95 0 180 -61q39 -29 39 -59v-6
q-5 -39 -77 -74q-42 -21 -108 -21q-31 0 -68 5q-172 23 -176 23h-5q-80 0 -272 -32q-79 -14 -82 -112v-7q0 -46 23 -167q18 -97 121 -103h19q31 0 82 4q76 8 108 8q35 0 188 16q161 17 254 19h30q288 0 288 -132q0 -115 -509 -117h-27q-148 0 -354 10q-229 10 -240 10
q-182 0 -206 312q-5 55 -5 138q0 52 2 115q3 87 3 139q0 41 -2 59q-2 20 -29 167q-25 138 -31 226q-3 35 -3 66q0 220 131 220q55 0 83 -38zM946 1819q65 -6 105 -17q91 -25 91 -83q0 -27 -20 -62q-12 -21 -117 -21q-25 0 -57 2q-44 1 -117 7q-64 4 -74 4h-236
q-13 0 -51 -10q-42 -11 -61 -13q-10 -2 -19 -2q-20 0 -33 8q-22 13 -22 50q0 100 244 131q81 10 185 12h119q4 -2 63 -6z" />
    <glyph glyph-name="emacron" unicode="&#x113;" horiz-adv-x="1061" 
d="M311 582q1 -54 42 -54h4q40 3 96 50q56 45 94 104q39 60 39 105v6q-108 -2 -185 -52q-90 -59 -90 -159zM822 872q4 -23 4 -47q0 -77 -41 -167q-49 -106 -142 -199q-91 -91 -184 -132q114 -233 308 -233q54 0 151 71q80 58 106 58q4 0 6 -1q65 0 65 -57q0 -23 -10 -54
q-26 -81 -70 -131q-56 -64 -166 -78q-30 -4 -62 -4q-61 0 -129 14q-117 23 -224 127q-27 27 -88 94q-57 63 -92 95q-126 116 -139 171q-5 21 -5 76q0 69 -6 127q-3 24 -3 47q0 190 179 303q152 97 348 97q32 0 64 -2q110 -65 130 -175zM684 1491q65 -6 105 -17
q91 -25 91 -83q0 -27 -20 -62q-12 -21 -117 -21q-25 0 -57 2q-44 1 -117 7q-64 4 -74 4h-236q-13 0 -51 -10q-42 -11 -61 -13q-10 -2 -19 -2q-20 0 -33 8q-22 13 -22 50q0 100 244 131q81 10 185 12h119q4 -2 63 -6z" />
    <glyph glyph-name="Ebreve" unicode="&#x114;" horiz-adv-x="1551" 
d="M265 1453q25 -34 25 -91q63 42 162 42q18 0 37 -1q15 -1 105 -12q56 -6 94 -6h10q174 6 496 42q48 -59 54 -130q1 -6 1 -12q0 -74 -85 -74h-551q-187 0 -261 -28q-55 -22 -55 -122q0 -21 2 -46q4 -40 19 -116q13 -72 15 -96q233 42 575 42q95 0 180 -61q39 -29 39 -59v-6
q-5 -39 -77 -74q-42 -21 -108 -21q-31 0 -68 5q-172 23 -176 23h-5q-80 0 -272 -32q-79 -14 -82 -112v-7q0 -46 23 -167q18 -97 121 -103h19q31 0 82 4q76 8 108 8q35 0 188 16q161 17 254 19h30q288 0 288 -132q0 -115 -509 -117h-27q-148 0 -354 10q-229 10 -240 10
q-182 0 -206 312q-5 55 -5 138q0 52 2 115q3 87 3 139q0 41 -2 59q-2 20 -29 167q-25 138 -31 226q-3 35 -3 66q0 220 131 220q55 0 83 -38zM1013 1981v-14q-6 -122 -116 -212q-70 -55 -161 -55q-41 0 -86 11q-141 33 -204 140q-53 88 -60 143q-1 6 -1 12q49 42 94 42
q55 0 103 -63q13 -78 48 -109q22 -20 48 -20q12 0 24 3q134 20 134 104q0 21 -8 45q60 40 116 40q33 0 64 -13q5 -27 5 -54z" />
    <glyph glyph-name="ebreve" unicode="&#x115;" horiz-adv-x="1061" 
d="M311 582q1 -54 42 -54h4q40 3 96 50q56 45 94 104q39 60 39 105v6q-108 -2 -185 -52q-90 -59 -90 -159zM822 872q4 -23 4 -47q0 -77 -41 -167q-49 -106 -142 -199q-91 -91 -184 -132q114 -233 308 -233q54 0 151 71q80 58 106 58q4 0 6 -1q65 0 65 -57q0 -23 -10 -54
q-26 -81 -70 -131q-56 -64 -166 -78q-30 -4 -62 -4q-61 0 -129 14q-117 23 -224 127q-27 27 -88 94q-57 63 -92 95q-126 116 -139 171q-5 21 -5 76q0 69 -6 127q-3 24 -3 47q0 190 179 303q152 97 348 97q32 0 64 -2q110 -65 130 -175zM825 1559v-14q-6 -122 -116 -212
q-70 -55 -161 -55q-41 0 -86 11q-141 33 -204 140q-53 88 -60 143q-1 6 -1 12q49 42 94 42q55 0 103 -63q13 -78 48 -109q22 -20 48 -20q12 0 24 3q134 20 134 104q0 21 -8 45q60 40 116 40q33 0 64 -13q5 -27 5 -54z" />
    <glyph glyph-name="Edotaccent" unicode="&#x116;" horiz-adv-x="1551" 
d="M265 1453q25 -34 25 -91q63 42 162 42q18 0 37 -1q15 -1 105 -12q56 -6 94 -6h10q174 6 496 42q48 -59 54 -130q1 -6 1 -12q0 -74 -85 -74h-551q-187 0 -261 -28q-55 -22 -55 -122q0 -21 2 -46q4 -40 19 -116q13 -72 15 -96q233 42 575 42q95 0 180 -61q39 -29 39 -59v-6
q-5 -39 -77 -74q-42 -21 -108 -21q-31 0 -68 5q-172 23 -176 23h-5q-80 0 -272 -32q-79 -14 -82 -112v-7q0 -46 23 -167q18 -97 121 -103h19q31 0 82 4q76 8 108 8q35 0 188 16q161 17 254 19h30q288 0 288 -132q0 -115 -509 -117h-27q-148 0 -354 10q-229 10 -240 10
q-182 0 -206 312q-5 55 -5 138q0 52 2 115q3 87 3 139q0 41 -2 59q-2 20 -29 167q-25 138 -31 226q-3 35 -3 66q0 220 131 220q55 0 83 -38zM613 1954q28 7 53 7q33 0 62 -12q47 -19 67 -61q12 -24 12 -48q0 -20 -8 -41q-19 -50 -76 -85q-9 -1 -17 -1q-37 0 -63 19
q-29 21 -41 61q-9 28 -9 60q0 11 1 22q3 43 19 79z" />
    <glyph glyph-name="edotaccent" unicode="&#x117;" horiz-adv-x="1061" 
d="M311 582q1 -54 42 -54h4q40 3 96 50q56 45 94 104q39 60 39 105v6q-108 -2 -185 -52q-90 -59 -90 -159zM822 872q4 -23 4 -47q0 -77 -41 -167q-49 -106 -142 -199q-91 -91 -184 -132q114 -233 308 -233q54 0 151 71q80 58 106 58q4 0 6 -1q65 0 65 -57q0 -23 -10 -54
q-26 -81 -70 -131q-56 -64 -166 -78q-30 -4 -62 -4q-61 0 -129 14q-117 23 -224 127q-27 27 -88 94q-57 63 -92 95q-126 116 -139 171q-5 21 -5 76q0 69 -6 127q-3 24 -3 47q0 190 179 303q152 97 348 97q32 0 64 -2q110 -65 130 -175zM436 1542q28 7 53 7q33 0 62 -12
q47 -19 67 -61q12 -24 12 -48q0 -20 -8 -41q-19 -50 -76 -85q-9 -1 -17 -1q-37 0 -63 19q-29 21 -41 61q-9 28 -9 60q0 11 1 22q3 43 19 79z" />
    <glyph glyph-name="Eogonek" unicode="&#x118;" horiz-adv-x="1551" 
d="M1221 42q-112 -12 -278 -13h-27q-148 0 -354 10q-229 10 -240 10q-182 0 -206 312q-5 55 -5 138q0 52 2 115q3 87 3 139q0 41 -2 59q-2 20 -29 167q-25 138 -31 226q-3 35 -3 66q0 220 131 220q55 0 83 -38q25 -34 25 -91q63 42 162 42q18 0 37 -1q15 -1 105 -12
q56 -6 94 -6h10q174 6 496 42q48 -59 54 -130q1 -6 1 -12q0 -74 -85 -74h-551q-187 0 -261 -28q-55 -22 -55 -122q0 -21 2 -46q4 -40 19 -116q13 -72 15 -96q233 42 575 42q95 0 180 -61q39 -29 39 -59v-6q-5 -39 -77 -74q-42 -21 -108 -21q-31 0 -68 5q-172 23 -176 23h-5
q-80 0 -272 -32q-79 -14 -82 -112v-7q0 -46 23 -167q18 -97 121 -103h19q31 0 82 4q76 8 108 8q35 0 188 16q161 17 254 19h30q288 0 288 -132q0 -30 -34 -52q1 -4 1 -10q0 -55 -100 -185q-22 -19 -22 -27v-2q7 -18 76 -31q63 -12 124 -12q8 0 32 5q32 6 45 6q7 0 15 -2
q37 -12 66 -43q16 -78 16 -104q0 -4 -1 -8q-8 -45 -78 -45q-17 0 -48 -1q-47 -1 -70 -1q-230 0 -297 80q-40 49 -40 100q0 15 3 30q19 85 81 198z" />
    <glyph glyph-name="eogonek" unicode="&#x119;" horiz-adv-x="1179" 
d="M311 582q1 -54 42 -54h4q40 3 96 50q56 45 94 104q39 60 39 105v6q-108 -2 -185 -52q-90 -59 -90 -159zM817 -101q-15 -1 -30 -1q-61 0 -129 14q-117 23 -224 127q-27 27 -88 94q-57 63 -92 95q-126 116 -139 171q-5 21 -5 76q0 69 -6 127q-3 24 -3 47q0 190 179 303
q152 97 348 97q32 0 64 -2q110 -65 130 -175q4 -23 4 -47q0 -77 -41 -167q-49 -106 -142 -199q-91 -91 -184 -132q114 -233 308 -233q54 0 151 71q80 58 106 58q4 0 6 -1q65 0 65 -57q0 -23 -10 -54q-17 -54 -43 -94q3 -7 3 -16q0 -56 -100 -186q-22 -19 -22 -27v-2
q7 -18 76 -31q63 -12 124 -12q8 0 32 5q32 6 45 6q7 0 15 -2q37 -12 66 -43q16 -78 16 -104q0 -4 -1 -8q-8 -45 -78 -45q-17 0 -48 -1q-47 -1 -70 -1q-230 0 -297 80q-40 49 -40 100q0 15 3 30q14 62 51 139z" />
    <glyph glyph-name="Ecaron" unicode="&#x11a;" horiz-adv-x="1551" 
d="M265 1453q25 -34 25 -91q63 42 162 42q18 0 37 -1q15 -1 105 -12q56 -6 94 -6h10q174 6 496 42q48 -59 54 -130q1 -6 1 -12q0 -74 -85 -74h-551q-187 0 -261 -28q-55 -22 -55 -122q0 -21 2 -46q4 -40 19 -116q13 -72 15 -96q233 42 575 42q95 0 180 -61q39 -29 39 -59v-6
q-5 -39 -77 -74q-42 -21 -108 -21q-31 0 -68 5q-172 23 -176 23h-5q-80 0 -272 -32q-79 -14 -82 -112v-7q0 -46 23 -167q18 -97 121 -103h19q31 0 82 4q76 8 108 8q35 0 188 16q161 17 254 19h30q288 0 288 -132q0 -115 -509 -117h-27q-148 0 -354 10q-229 10 -240 10
q-182 0 -206 312q-5 55 -5 138q0 52 2 115q3 87 3 139q0 41 -2 59q-2 20 -29 167q-25 138 -31 226q-3 35 -3 66q0 220 131 220q55 0 83 -38zM1017 1973q1 -6 1 -13q0 -50 -53 -123q-53 -75 -138 -143q-84 -68 -148 -89q-70 17 -154 85q-82 66 -134 145q-49 73 -49 128
q0 8 1 15q8 66 102 79h4q16 0 39 -23q20 -21 53 -69q96 -139 123 -167q31 29 143 160q35 42 56 60q24 20 41 20h4q100 -4 109 -65z" />
    <glyph glyph-name="ecaron" unicode="&#x11b;" horiz-adv-x="1061" 
d="M311 582q1 -54 42 -54h4q40 3 96 50q56 45 94 104q39 60 39 105v6q-108 -2 -185 -52q-90 -59 -90 -159zM822 872q4 -23 4 -47q0 -77 -41 -167q-49 -106 -142 -199q-91 -91 -184 -132q114 -233 308 -233q54 0 151 71q80 58 106 58q4 0 6 -1q65 0 65 -57q0 -23 -10 -54
q-26 -81 -70 -131q-56 -64 -166 -78q-30 -4 -62 -4q-61 0 -129 14q-117 23 -224 127q-27 27 -88 94q-57 63 -92 95q-126 116 -139 171q-5 21 -5 76q0 69 -6 127q-3 24 -3 47q0 190 179 303q152 97 348 97q32 0 64 -2q110 -65 130 -175zM839 1552q1 -6 1 -13q0 -50 -53 -123
q-53 -75 -138 -143q-84 -68 -148 -89q-70 17 -154 85q-82 66 -134 145q-49 73 -49 128q0 8 1 15q8 66 102 79h4q16 0 39 -23q20 -21 53 -69q96 -139 123 -167q31 29 143 160q35 42 56 60q24 20 41 20h4q100 -4 109 -65z" />
    <glyph glyph-name="Gcircumflex" unicode="&#x11c;" horiz-adv-x="1660" 
d="M1226 1340q75 -46 79 -84v-5q0 -42 -91 -66q-57 0 -135 13q-100 17 -120 19q-17 2 -34 2q-115 0 -215 -72q-164 -119 -296 -328q-116 -182 -116 -316q0 -49 16 -92q42 -111 137 -117h11q77 0 180 63q199 121 296 277q-77 -7 -155 -7q-89 0 -180 9q-105 10 -122 32
q-3 4 -3 9q0 26 95 64q233 95 494 139q130 22 231 22q179 0 262 -71q20 -17 20 -64v-4q-2 -49 -29 -58q-32 0 -146 -29q-80 -20 -90 -23q-28 -10 -36 -26q-1 -3 -1 -172q0 -77 42 -184q43 -108 43 -160q0 -64 -55 -69h-8q-42 0 -89 30q-121 78 -167 350q-19 -10 -214 -156
q-132 -99 -252 -119q-42 -4 -80 -4q-137 0 -230 55q-129 84 -178 246q-18 59 -18 123q0 93 37 199q58 167 192 324q133 156 298 250q176 100 339 100q126 0 288 -100zM1039 1615h-4q-17 0 -41 20q-21 18 -56 60q-112 131 -143 160q-27 -28 -123 -167q-33 -48 -53 -69
q-23 -23 -39 -23h-4q-94 13 -102 79q-1 7 -1 15q0 55 49 128q52 79 134 145q84 68 154 85q64 -21 148 -89q85 -68 138 -143q53 -73 53 -123q0 -7 -1 -13q-9 -61 -109 -65z" />
    <glyph glyph-name="gcircumflex" unicode="&#x11d;" horiz-adv-x="1182" 
d="M286 543q10 -73 57 -73q54 0 160 100q137 130 231 272q-18 1 -35 1q-127 0 -252 -70q-161 -91 -161 -230zM1032 791q103 -261 103 -571q0 -38 -2 -76q-15 -385 -184 -578q-128 -145 -320 -145q-110 0 -240 47q-72 26 -188 127q-65 58 -65 86q0 29 65 29q24 0 269 -66
q53 -14 99 -14q93 0 161 58q167 146 167 387q0 19 -1 40q-4 66 -30 235q-24 151 -24 236q-30 -19 -153 -124q-117 -102 -193 -148q-100 -60 -180 -60q-120 0 -194 135q-53 98 -53 194q0 42 10 84q29 122 141 225q102 95 245 151q140 56 269 56q177 0 298 -308zM806 1269h-4
q-17 0 -41 20q-21 18 -56 60q-112 131 -143 160q-27 -28 -123 -167q-33 -48 -53 -69q-23 -23 -39 -23h-4q-94 13 -102 79q-1 7 -1 15q0 55 49 128q52 79 134 145q84 68 154 85q64 -21 148 -89q85 -68 138 -143q53 -73 53 -123q0 -7 -1 -13q-9 -61 -109 -65z" />
    <glyph glyph-name="Gbreve" unicode="&#x11e;" horiz-adv-x="1660" 
d="M1226 1340q75 -46 79 -84v-5q0 -42 -91 -66q-57 0 -135 13q-100 17 -120 19q-17 2 -34 2q-115 0 -215 -72q-164 -119 -296 -328q-116 -182 -116 -316q0 -49 16 -92q42 -111 137 -117h11q77 0 180 63q199 121 296 277q-77 -7 -155 -7q-89 0 -180 9q-105 10 -122 32
q-3 4 -3 9q0 26 95 64q233 95 494 139q130 22 231 22q179 0 262 -71q20 -17 20 -64v-4q-2 -49 -29 -58q-32 0 -146 -29q-80 -20 -90 -23q-28 -10 -36 -26q-1 -3 -1 -172q0 -77 42 -184q43 -108 43 -160q0 -64 -55 -69h-8q-42 0 -89 30q-121 78 -167 350q-19 -10 -214 -156
q-132 -99 -252 -119q-42 -4 -80 -4q-137 0 -230 55q-129 84 -178 246q-18 59 -18 123q0 93 37 199q58 167 192 324q133 156 298 250q176 100 339 100q126 0 288 -100zM1060 1868v-14q-6 -122 -116 -212q-70 -55 -161 -55q-41 0 -86 11q-141 33 -204 140q-53 88 -60 143
q-1 6 -1 12q49 42 94 42q55 0 103 -63q13 -78 48 -109q22 -20 48 -20q12 0 24 3q134 20 134 104q0 21 -8 45q60 40 116 40q33 0 64 -13q5 -27 5 -54z" />
    <glyph glyph-name="gbreve" unicode="&#x11f;" horiz-adv-x="1182" 
d="M286 543q10 -73 57 -73q54 0 160 100q137 130 231 272q-18 1 -35 1q-127 0 -252 -70q-161 -91 -161 -230zM1032 791q103 -261 103 -571q0 -38 -2 -76q-15 -385 -184 -578q-128 -145 -320 -145q-110 0 -240 47q-72 26 -188 127q-65 58 -65 86q0 29 65 29q24 0 269 -66
q53 -14 99 -14q93 0 161 58q167 146 167 387q0 19 -1 40q-4 66 -30 235q-24 151 -24 236q-30 -19 -153 -124q-117 -102 -193 -148q-100 -60 -180 -60q-120 0 -194 135q-53 98 -53 194q0 42 10 84q29 122 141 225q102 95 245 151q140 56 269 56q177 0 298 -308zM900 1578v-14
q-6 -122 -116 -212q-70 -55 -161 -55q-41 0 -86 11q-141 33 -204 140q-53 88 -60 143q-1 6 -1 12q49 42 94 42q55 0 103 -63q13 -78 48 -109q22 -20 48 -20q12 0 24 3q134 20 134 104q0 21 -8 45q60 40 116 40q33 0 64 -13q5 -27 5 -54z" />
    <glyph glyph-name="Gdotaccent" unicode="&#x120;" horiz-adv-x="1660" 
d="M1226 1340q75 -46 79 -84v-5q0 -42 -91 -66q-57 0 -135 13q-100 17 -120 19q-17 2 -34 2q-115 0 -215 -72q-164 -119 -296 -328q-116 -182 -116 -316q0 -49 16 -92q42 -111 137 -117h11q77 0 180 63q199 121 296 277q-77 -7 -155 -7q-89 0 -180 9q-105 10 -122 32
q-3 4 -3 9q0 26 95 64q233 95 494 139q130 22 231 22q179 0 262 -71q20 -17 20 -64v-4q-2 -49 -29 -58q-32 0 -146 -29q-80 -20 -90 -23q-28 -10 -36 -26q-1 -3 -1 -172q0 -77 42 -184q43 -108 43 -160q0 -64 -55 -69h-8q-42 0 -89 30q-121 78 -167 350q-19 -10 -214 -156
q-132 -99 -252 -119q-42 -4 -80 -4q-137 0 -230 55q-129 84 -178 246q-18 59 -18 123q0 93 37 199q58 167 192 324q133 156 298 250q176 100 339 100q126 0 288 -100zM744 1897q28 7 53 7q33 0 62 -12q47 -19 67 -61q12 -24 12 -48q0 -20 -8 -41q-19 -50 -76 -85
q-9 -1 -17 -1q-37 0 -63 19q-29 21 -41 61q-9 28 -9 60q0 11 1 22q3 43 19 79z" />
    <glyph glyph-name="gdotaccent" unicode="&#x121;" horiz-adv-x="1182" 
d="M286 543q10 -73 57 -73q54 0 160 100q137 130 231 272q-18 1 -35 1q-127 0 -252 -70q-161 -91 -161 -230zM1032 791q103 -261 103 -571q0 -38 -2 -76q-15 -385 -184 -578q-128 -145 -320 -145q-110 0 -240 47q-72 26 -188 127q-65 58 -65 86q0 29 65 29q24 0 269 -66
q53 -14 99 -14q93 0 161 58q167 146 167 387q0 19 -1 40q-4 66 -30 235q-24 151 -24 236q-30 -19 -153 -124q-117 -102 -193 -148q-100 -60 -180 -60q-120 0 -194 135q-53 98 -53 194q0 42 10 84q29 122 141 225q102 95 245 151q140 56 269 56q177 0 298 -308zM483 1569
q28 7 53 7q33 0 62 -12q47 -19 67 -61q12 -24 12 -48q0 -20 -8 -41q-19 -50 -76 -85q-9 -1 -17 -1q-37 0 -63 19q-29 21 -41 61q-9 28 -9 60q0 11 1 22q3 43 19 79z" />
    <glyph glyph-name="Gcommaaccent" unicode="&#x122;" horiz-adv-x="1660" 
d="M1226 1340q75 -46 79 -84v-5q0 -42 -91 -66q-57 0 -135 13q-100 17 -120 19q-17 2 -34 2q-115 0 -215 -72q-164 -119 -296 -328q-116 -182 -116 -316q0 -49 16 -92q42 -111 137 -117h11q77 0 180 63q199 121 296 277q-77 -7 -155 -7q-89 0 -180 9q-105 10 -122 32
q-3 4 -3 9q0 26 95 64q233 95 494 139q130 22 231 22q179 0 262 -71q20 -17 20 -64v-4q-2 -49 -29 -58q-32 0 -146 -29q-80 -20 -90 -23q-28 -10 -36 -26q-1 -3 -1 -172q0 -77 42 -184q43 -108 43 -160q0 -64 -55 -69h-8q-42 0 -89 30q-121 78 -167 350q-19 -10 -214 -156
q-132 -99 -252 -119q-42 -4 -80 -4q-137 0 -230 55q-129 84 -178 246q-18 59 -18 123q0 93 37 199q58 167 192 324q133 156 298 250q176 100 339 100q126 0 288 -100zM859 59q12 -5 23 -11q75 -41 75 -104q0 -11 -2 -22q-4 -23 -17 -47q-29 -52 -100 -104q-101 -71 -215 -89
q-31 -5 -59 -5q-60 0 -104 24q-18 9 -33 23q45 77 206 213q77 66 134 99q47 27 74 27q11 0 18 -4z" />
    <glyph glyph-name="gcommaaccent" unicode="&#x123;" horiz-adv-x="1182" 
d="M286 543q10 -73 57 -73q54 0 160 100q137 130 231 272q-18 1 -35 1q-127 0 -252 -70q-161 -91 -161 -230zM1032 791q103 -261 103 -571q0 -38 -2 -76q-15 -385 -184 -578q-128 -145 -320 -145q-110 0 -240 47q-72 26 -188 127q-65 58 -65 86q0 29 65 29q24 0 269 -66
q53 -14 99 -14q93 0 161 58q167 146 167 387q0 19 -1 40q-4 66 -30 235q-24 151 -24 236q-30 -19 -153 -124q-117 -102 -193 -148q-100 -60 -180 -60q-120 0 -194 135q-53 98 -53 194q0 42 10 84q29 122 141 225q102 95 245 151q140 56 269 56q177 0 298 -308zM665 1236
q-11 -6 -23 -11q-36 -16 -66 -16q-35 0 -62 22q-9 6 -16 15q-16 17 -26 42q-20 49 -20 123v20q7 123 63 224q16 27 33 49q37 48 83 67q18 9 39 12q32 -83 39 -294q1 -31 1 -59q0 -62 -6 -107q-8 -54 -25 -75q-6 -9 -14 -12z" />
    <glyph glyph-name="Hcircumflex" unicode="&#x124;" horiz-adv-x="1551" 
d="M1360 1530q96 0 96 -151q0 -20 -2 -44q-4 -60 -22 -150q-20 -98 -20 -103q-4 -36 -4 -126q0 -151 12 -454q3 -74 3 -279q-25 -62 -72 -91q-31 -20 -64 -20q-12 0 -24 3q-45 10 -71 53q-22 37 -22 89q0 14 2 30q19 189 19 249q0 142 -24 160q-14 11 -93 11q-35 0 -82 -2
q-561 -27 -561 -39q0 -243 32 -514q13 -110 13 -164q0 -17 -1 -28q-10 -83 -58 -83q-27 0 -67 27q-66 44 -98 163q-16 57 -32 192q-15 124 -19 291q-2 81 -55 128q-52 47 -52 115v3q0 70 84 81q4 20 4 52q0 18 -1 41q-2 26 -2 46q0 31 4 49t4 42q0 28 -5 64q-6 46 -6 77
q0 18 2 30q0 65 40 110q35 41 86 50q13 2 24 2q37 0 63 -21q40 -32 40 -99v-443h440q295 30 300 192q6 217 20 285q38 177 151 177q9 0 18 -1zM1039 1597h-4q-17 0 -41 20q-21 18 -56 60q-112 131 -143 160q-27 -28 -123 -167q-33 -48 -53 -69q-23 -23 -39 -23h-4
q-94 13 -102 79q-1 7 -1 15q0 55 49 128q52 79 134 145q84 68 154 85q64 -21 148 -89q85 -68 138 -143q53 -73 53 -123q0 -7 -1 -13q-9 -61 -109 -65z" />
    <glyph glyph-name="hcircumflex" unicode="&#x125;" horiz-adv-x="1204" 
d="M127 1515q25 5 46 5q106 0 117 -126q2 -17 2 -39l3 -343q23 -220 23 -291q20 22 59 100q49 100 71 137q88 145 183 145q16 0 32 -4q101 -26 180 -178q32 -63 96 -244q68 -194 135 -475q9 -38 9 -66q0 -49 -27 -67q-12 -8 -25 -8q-36 0 -84 59q-31 37 -144 399
q-96 307 -189 307l-282 -597q-5 -10 -17 -43q-13 -34 -22 -53q-28 -63 -59 -68q-157 54 -165 199v7q0 57 45 281q2 7 2 26q0 109 -31 510q-9 120 -9 206q0 203 51 221zM775 1673h-4q-17 0 -41 20q-21 18 -56 60q-112 131 -143 160q-27 -28 -123 -167q-33 -48 -53 -69
q-23 -23 -39 -23h-4q-94 13 -102 79q-1 7 -1 15q0 55 49 128q52 79 134 145q84 68 154 85q64 -21 148 -89q85 -68 138 -143q53 -73 53 -123q0 -7 -1 -13q-9 -61 -109 -65z" />
    <glyph glyph-name="Hbar" unicode="&#x126;" horiz-adv-x="1656" 
d="M1203 1024q-51 -3 -55 -4h-243q-213 3 -378 16q-40 3 -76 7v-166h440q40 -3 75 -3q239 0 239 128q0 10 -2 22zM1200 1262q5 61 11 92q38 177 151 177q9 0 18 -1q96 0 96 -151q0 -20 -2 -44q-2 -31 -8 -70q148 -4 169 -26q41 -45 41 -81q0 -75 -187 -108q-27 -5 -60 -9
q-1 -33 -1 -85q0 -151 12 -454q3 -74 3 -479q-25 -62 -72 -91q-31 -20 -64 -20q-12 0 -24 3q-45 10 -71 53q-22 37 -22 89q0 14 2 30q19 389 19 449q0 142 -24 160q-14 11 -93 11q-35 0 -82 -2q-561 -27 -561 -39q0 -243 32 -514q13 -110 13 -164q0 -17 -1 -28
q-10 -83 -58 -83q-27 0 -67 27q-66 44 -98 163q-16 57 -32 192q-15 124 -19 291q-2 81 -55 128q-52 47 -52 115v3q0 70 84 81q4 20 4 52q0 18 -1 41q-2 26 -2 46q0 31 4 49q2 8 3 18q-178 46 -178 124q0 48 44 65q27 10 68 10q18 0 39 -2q8 -1 19 -2q0 65 40 110
q35 41 86 50q13 2 24 2q37 0 63 -21q40 -32 40 -99v-71h438q21 0 151 6z" />
    <glyph glyph-name="hbar" unicode="&#x127;" horiz-adv-x="1204" 
d="M55 1399q-1 22 -1 43q0 247 73 273q25 5 46 5q106 0 117 -126q2 -17 2 -39q0 -40 -6 -97l-2 -21q45 3 96 4h119q4 -2 63 -6q65 -6 105 -17q91 -25 91 -83q0 -27 -20 -62q-12 -21 -117 -21q-25 0 -57 2q-44 1 -117 7q-64 4 -74 4h-96q2 -101 18 -253q23 -220 23 -291
q20 22 59 100q49 100 71 137q88 145 183 145q16 0 32 -4q101 -26 180 -178q32 -63 96 -244q68 -194 135 -475q9 -38 9 -66q0 -49 -27 -67q-12 -8 -25 -8q-36 0 -84 59q-31 37 -144 399q-96 307 -189 307l-282 -597q-5 -10 -17 -43q-13 -34 -22 -53q-28 -63 -59 -68
q-157 54 -165 199v7q0 57 45 281q2 7 2 26q0 109 -48 606l-6 65q-24 -6 -37 -7q-10 -2 -19 -2q-20 0 -33 8q-22 13 -22 50q0 65 104 101z" />
    <glyph glyph-name="Itilde" unicode="&#x128;" horiz-adv-x="1182" 
d="M931 1478q85 0 119 -70q13 -26 13 -51q0 -45 -40 -87q-35 -38 -116 -39q-24 0 -67 3q-45 3 -61 3q-28 0 -50 -557q-8 -194 -8 -321q0 -237 28 -237q375 0 375 -100q0 -37 -50 -87q-58 -58 -225 -58q-78 0 -181 13q-84 11 -253 41q-149 26 -199 30q-107 9 -145 48
q-15 15 -15 33q0 37 65 86q43 32 153 32q17 0 37 -1q34 -2 111 -9q66 -5 93 -5q-43 107 -43 281q0 89 11 194q24 230 24 368q0 79 -8 128q-3 18 -3 41q0 14 1 29q1 20 1 33t-1 19q-7 46 -105 59q-6 1 -18 1q-18 0 -47 -2t-50 -2q-16 0 -27 1q-84 8 -84 84v11q29 68 85 94
q41 20 116 21q200 4 257 38q164 -65 307 -65zM488 2075h7q58 0 120 -41q33 -23 105 -88q42 -40 70 -48q10 -3 18 -3q16 0 31 10q16 12 43 46q38 47 56 66q24 8 44 8q24 0 38 -12q19 -16 19 -51v-10q-3 -35 -21 -80q-18 -41 -39 -65q-64 -76 -128 -81q-5 -1 -10 -1
q-60 0 -127 61q-74 69 -111 92q-30 18 -54 18q-9 0 -19 -2q-26 -10 -64 -54q-11 -15 -40 -50l-51 -65q-18 -22 -35 -22h-3q-15 1 -28 22q-24 38 -24 93q0 80 59 164q30 42 65 66q39 27 79 27z" />
    <glyph glyph-name="itilde" unicode="&#x129;" horiz-adv-x="814" 
d="M460 851q45 -145 62 -348q8 -91 8 -169q0 -100 -13 -178q-26 -156 -96 -156h-1q-93 0 -127 189q-11 61 -21 252q-2 32 -22 152q-21 121 -24 188q-1 18 -1 34q0 194 130 194q57 0 105 -158zM217 1507h7q50 0 103 -44q28 -24 90 -94q37 -43 61 -52q8 -3 16 -3q14 0 26 11
q14 12 38 50q32 50 47 70q22 8 39 8q20 0 33 -13q16 -17 16 -54v-11q-2 -38 -18 -86q-16 -43 -33 -70q-56 -81 -112 -87q-4 -1 -8 -1q-52 0 -109 66q-64 74 -97 99q-25 19 -46 19q-8 0 -16 -3q-23 -10 -55 -57q-11 -16 -35 -54l-44 -70q-16 -23 -30 -23h-3q-13 1 -24 23
q-21 41 -21 100q0 86 51 176q26 45 56 71q33 29 68 29z" />
    <glyph glyph-name="Imacron" unicode="&#x12a;" horiz-adv-x="1182" 
d="M931 1478q85 0 119 -70q13 -26 13 -51q0 -45 -40 -87q-35 -38 -116 -39q-24 0 -67 3q-45 3 -61 3q-28 0 -50 -557q-8 -194 -8 -321q0 -237 28 -237q375 0 375 -100q0 -37 -50 -87q-58 -58 -225 -58q-78 0 -181 13q-84 11 -253 41q-149 26 -199 30q-107 9 -145 48
q-15 15 -15 33q0 37 65 86q43 32 153 32q17 0 37 -1q34 -2 111 -9q66 -5 93 -5q-43 107 -43 281q0 89 11 194q24 230 24 368q0 79 -8 128q-3 18 -3 41q0 14 1 29q1 20 1 33t-1 19q-7 46 -105 59q-6 1 -18 1q-18 0 -47 -2t-50 -2q-16 0 -27 1q-84 8 -84 84v11q29 68 85 94
q41 20 116 21q200 4 257 38q164 -65 307 -65zM833 1847q65 -6 105 -17q91 -25 91 -83q0 -27 -20 -62q-12 -21 -117 -21q-25 0 -57 2q-44 1 -117 7q-64 4 -74 4h-236q-13 0 -51 -10q-42 -11 -61 -13q-10 -2 -19 -2q-20 0 -33 8q-22 13 -22 50q0 100 244 131q81 10 185 12h119
q4 -2 63 -6z" />
    <glyph glyph-name="imacron" unicode="&#x12b;" horiz-adv-x="767" 
d="M414 860q45 -145 62 -348q8 -91 8 -169q0 -100 -13 -178q-26 -156 -96 -156h-1q-93 0 -127 189q-11 61 -21 252q-2 32 -22 152q-21 121 -24 188q-1 18 -1 34q0 194 130 194q57 0 105 -158zM572 1304q65 -6 105 -17q91 -25 91 -83q0 -27 -20 -62q-12 -21 -117 -21
q-25 0 -57 2q-44 1 -117 7q-64 4 -74 4h-236q-13 0 -51 -10q-42 -11 -61 -13q-10 -2 -19 -2q-20 0 -33 8q-22 13 -22 50q0 100 244 131q81 10 185 12h119q4 -2 63 -6z" />
    <glyph glyph-name="Ibreve" unicode="&#x12c;" horiz-adv-x="1182" 
d="M931 1478q85 0 119 -70q13 -26 13 -51q0 -45 -40 -87q-35 -38 -116 -39q-24 0 -67 3q-45 3 -61 3q-28 0 -50 -557q-8 -194 -8 -321q0 -237 28 -237q375 0 375 -100q0 -37 -50 -87q-58 -58 -225 -58q-78 0 -181 13q-84 11 -253 41q-149 26 -199 30q-107 9 -145 48
q-15 15 -15 33q0 37 65 86q43 32 153 32q17 0 37 -1q34 -2 111 -9q66 -5 93 -5q-43 107 -43 281q0 89 11 194q24 230 24 368q0 79 -8 128q-3 18 -3 41q0 14 1 29q1 20 1 33t-1 19q-7 46 -105 59q-6 1 -18 1q-18 0 -47 -2t-50 -2q-16 0 -27 1q-84 8 -84 84v11q29 68 85 94
q41 20 116 21q200 4 257 38q164 -65 307 -65zM947 1961v-14q-6 -122 -116 -212q-70 -55 -161 -55q-41 0 -86 11q-141 33 -204 140q-53 88 -60 143q-1 6 -1 12q49 42 94 42q55 0 103 -63q13 -78 48 -109q22 -20 48 -20q12 0 24 3q134 20 134 104q0 21 -8 45q60 40 116 40
q33 0 64 -13q5 -27 5 -54z" />
    <glyph glyph-name="ibreve" unicode="&#x12d;" horiz-adv-x="749" 
d="M432 851q45 -145 62 -348q8 -91 8 -169q0 -100 -13 -178q-26 -156 -96 -156h-1q-93 0 -127 189q-11 61 -21 252q-2 32 -22 152q-21 121 -24 188q-1 18 -1 34q0 194 130 194q57 0 105 -158zM713 1381v-14q-6 -122 -116 -212q-70 -55 -161 -55q-41 0 -86 11
q-141 33 -204 140q-53 88 -60 143q-1 6 -1 12q49 42 94 42q55 0 103 -63q13 -78 48 -109q22 -20 48 -20q12 0 24 3q134 20 134 104q0 21 -8 45q60 40 116 40q33 0 64 -13q5 -27 5 -54z" />
    <glyph glyph-name="Iogonek" unicode="&#x12e;" horiz-adv-x="1182" 
d="M521 -87l-106 18q-149 26 -199 30q-107 9 -145 48q-15 15 -15 33q0 37 65 86q43 32 153 32q17 0 37 -1q34 -2 111 -9q66 -5 93 -5q-43 107 -43 281q0 89 11 194q24 230 24 368q0 79 -8 128q-3 18 -3 41q0 14 1 29q1 20 1 33t-1 19q-7 46 -105 59q-6 1 -18 1q-18 0 -47 -2
t-50 -2q-16 0 -27 1q-84 8 -84 84v11q29 68 85 94q41 20 116 21q200 4 257 38q164 -65 307 -65q85 0 119 -70q13 -26 13 -51q0 -45 -40 -87q-35 -38 -116 -39q-24 0 -67 3q-45 3 -61 3q-28 0 -50 -557q-8 -194 -8 -321q0 -237 28 -237q375 0 375 -100q0 -37 -50 -87
q-58 -58 -225 -58q-67 0 -152 10q-25 -49 -79 -120q-22 -19 -22 -27v-2q7 -18 76 -31q63 -12 124 -12q8 0 32 5q32 6 45 6q7 0 15 -2q37 -12 66 -43q16 -78 16 -104q0 -4 -1 -8q-8 -45 -78 -45q-17 0 -48 -1q-47 -1 -70 -1q-230 0 -297 80q-40 49 -40 100q0 15 3 30
q19 85 82 201z" />
    <glyph glyph-name="iogonek" unicode="&#x12f;" horiz-adv-x="444" 
d="M240 1404q104 0 104 -74q0 -18 -6 -41q-27 -97 -98 -149q-12 -3 -24 -3q-37 0 -65 30q-34 36 -39 93q-1 8 -1 16q0 48 27 82q34 46 102 46zM166 78q-20 43 -32 111q-11 61 -21 252q-2 32 -22 152q-21 121 -24 188q-1 18 -1 34q0 194 130 194q57 0 105 -158
q45 -145 62 -348q8 -91 8 -169q0 -100 -13 -178q-12 -74 -34 -113q-10 -56 -99 -172q-22 -19 -22 -27v-2q7 -18 76 -31q63 -12 124 -12q8 0 32 5q32 6 45 6q7 0 15 -2q37 -12 66 -43q16 -78 16 -104q0 -4 -1 -8q-8 -45 -78 -45q-17 0 -48 -1q-47 -1 -70 -1q-230 0 -297 80
q-40 49 -40 100q0 15 3 30q24 107 117 261q1 0 3 1z" />
    <glyph glyph-name="Idotaccent" unicode="&#x130;" horiz-adv-x="444" 
d="M212 1922q104 0 104 -74q0 -18 -6 -41q-27 -97 -98 -149q-12 -3 -24 -3q-37 0 -65 30q-34 36 -39 93q-1 8 -1 16q0 48 27 82q34 46 102 46zM301 1255q45 -214 62 -513q8 -134 8 -249q0 -148 -13 -263q-26 -230 -96 -230h-1q-93 0 -127 279q-11 90 -21 371q-2 48 -22 225
q-21 178 -24 277q-1 26 -1 50q0 286 130 286q57 0 105 -233z" />
    <glyph glyph-name="dotlessi" unicode="&#x131;" horiz-adv-x="444" 
d="M323 849q45 -144 62 -347q8 -90 8 -168q0 -99 -13 -178q-26 -158 -107 -158h-1q-104 0 -138 192q-11 61 -21 251q-2 33 -22 153q-21 121 -24 187q-1 18 -1 34q0 196 141 196q67 0 116 -162z" />
    <glyph glyph-name="IJ" unicode="&#x132;" horiz-adv-x="2358" 
d="M955 201q-1 2 -2 5q-27 64 -27 94q0 29 24 29q22 0 64 -24q76 -43 204 -158q115 -103 144 -123q84 -61 140 -61q18 0 32 6q126 167 170 546q14 116 25 310q13 205 20 269q-10 41 -10 92q0 63 -1 68q-3 30 -21 42q-21 15 -71 15l-125 50q-58 0 -101 25q-30 18 -30 41
q0 20 21 43q63 69 230 103q-5 0 153 5q52 2 96 2q56 0 99 -3q240 -16 254 -122q0 -90 -44 -121q-33 -23 -118 -23q-121 0 -131 -181q-1 -18 -1 -45q0 -45 3 -113q3 -64 3 -105q0 -24 -1 -39q-39 -427 -56 -522q-53 -314 -178 -487q-54 -74 -150 -74q-16 0 -34 2
q-104 14 -235 99q-150 98 -241 198q-6 -7 -14 -15q-58 -58 -225 -58q-78 0 -181 13q-84 11 -253 41q-149 26 -199 30q-107 9 -145 48q-15 15 -15 33q0 37 65 86q43 32 153 32q17 0 37 -1q34 -2 111 -9q66 -5 93 -5q-43 107 -43 281q0 89 11 194q24 230 24 368q0 79 -8 128
q-3 18 -3 41q0 14 1 29q1 20 1 33t-1 19q-7 46 -105 59q-6 1 -18 1q-18 0 -47 -2t-50 -2q-16 0 -27 1q-84 8 -84 84v11q29 68 85 94q41 20 116 21q200 4 257 38q164 -65 307 -65q85 0 119 -70q13 -26 13 -51q0 -45 -40 -87q-35 -38 -116 -39q-24 0 -67 3q-45 3 -61 3
q-28 0 -50 -557q-8 -194 -8 -321q0 -237 28 -237q145 0 234 -15z" />
    <glyph glyph-name="ij" unicode="&#x133;" horiz-adv-x="936" 
d="M752 1417q12 -19 12 -42q0 -24 -13 -53q-51 -119 -182 -173q-64 16 -79 67q-4 14 -4 30q0 32 16 73q22 52 62 98q39 45 70 54q90 -10 118 -54zM634 1021q23 6 43 6q122 0 144 -228q4 -37 4 -94q0 -107 -14 -283q-34 -434 -42 -481q-60 -356 -216 -397q-15 -4 -32 -4
q-60 0 -153 48q-105 54 -105 115q0 15 6 30q0 43 54 43h5q9 0 85 -16q5 -1 9 -1q31 0 53 43q4 9 30 84q22 65 71 315q40 200 40 247q0 14 -4 14q-1 10 -21 119q-20 113 -28 188q-5 52 -5 93q0 159 76 159zM240 1404q104 0 104 -74q0 -18 -6 -41q-27 -97 -98 -149
q-12 -3 -24 -3q-37 0 -65 30q-34 36 -39 93q-1 8 -1 16q0 48 27 82q34 46 102 46zM301 851q45 -145 62 -348q8 -91 8 -169q0 -100 -13 -178q-26 -156 -96 -156h-1q-93 0 -127 189q-11 61 -21 252q-2 32 -22 152q-21 121 -24 188q-1 18 -1 34q0 194 130 194q57 0 105 -158z
" />
    <glyph glyph-name="Jcircumflex" unicode="&#x134;" horiz-adv-x="1464" 
d="M923 1746q52 2 96 2q56 0 99 -3q240 -16 254 -122q0 -90 -44 -121q-33 -23 -118 -23q-121 0 -131 -181q-1 -18 -1 -45q0 -45 3 -113q3 -64 3 -105q0 -24 -1 -39q-39 -427 -56 -522q-53 -314 -178 -487q-54 -74 -150 -74q-16 0 -34 2q-104 14 -235 99q-269 175 -348 360
q-27 64 -27 94q0 29 24 29q22 0 64 -24q76 -43 204 -158q115 -103 144 -123q84 -61 140 -61q18 0 32 6q126 167 170 546q14 116 25 310q13 205 20 269q-10 41 -10 92q0 63 -1 68q-3 30 -21 42q-21 15 -71 15h-425q-58 0 -101 25q-30 18 -30 41q0 20 21 43q63 69 253 108
q56 12 152 26q97 14 125 19q-5 0 153 5zM1058 1902h-4q-17 0 -41 15q-21 14 -56 46q-112 102 -143 124q-27 -22 -123 -129q-33 -37 -53 -53q-23 -18 -39 -18h-4q-94 10 -102 61q-1 5 -1 12q0 42 49 98q52 61 134 112q84 53 154 66q64 -16 148 -69q85 -52 138 -110
q53 -56 53 -95q0 -6 -1 -10q-9 -47 -109 -50z" />
    <glyph glyph-name="jcircumflex" unicode="&#x135;" horiz-adv-x="705" 
d="M434 1021q23 6 43 6q122 0 144 -228q4 -37 4 -94q0 -107 -14 -283q-34 -434 -42 -481q-60 -356 -216 -397q-15 -4 -32 -4q-60 0 -153 48q-105 54 -105 115q0 15 6 30q0 43 54 43h5q9 0 85 -16q5 -1 9 -1q31 0 53 43q4 9 30 84q22 65 71 315q40 200 40 247q0 14 -4 14
q-1 10 -21 119q-20 113 -28 188q-5 52 -5 93q0 159 76 159zM665 1157h-4q-17 0 -41 20q-21 18 -56 60q-112 131 -143 160q-27 -28 -123 -167q-33 -48 -53 -69q-23 -23 -39 -23h-4q-94 13 -102 79q-1 7 -1 15q0 55 49 128q52 79 134 145q84 68 154 85q64 -21 148 -89
q85 -68 138 -143q53 -73 53 -123q0 -7 -1 -13q-9 -61 -109 -65z" />
    <glyph glyph-name="Kcommaaccent" unicode="&#x136;" horiz-adv-x="1442" 
d="M163 1658q15 2 28 2q138 0 149 -241v-2q0 -32 -28 -376q74 11 208 114l119 97l121 100q143 112 229 137q28 8 53 8q76 0 120 -73q5 -15 5 -30q0 -94 -174 -217q-60 -42 -163 -103q-99 -58 -117 -71q-151 -112 -210 -174v-4q0 -38 107 -137q34 -31 89 -77q53 -44 61 -52
q281 -263 475 -396q17 -11 43 -20q31 -11 38 -15q38 -20 38 -86q-13 -43 -44 -66q-21 -16 -44 -16q-15 0 -30 7q-182 81 -459 328q-297 264 -443 343q33 -346 33 -467q0 -35 -3 -51q-12 -70 -25 -88q-16 -23 -70 -32q-140 0 -151 139q0 5 24 243q-46 319 -63 687
q-6 120 -6 216q0 373 90 373zM616 44q29 5 52 5q64 0 85 -40l3 -7q7 -17 7 -39v-5q-3 -55 -50 -135q-68 -113 -178 -198q-49 -39 -95 -62q-42 -21 -82 -28q-24 -4 -46 -4q7 81 104 278q45 94 87 153q39 55 70 70q7 4 14 5q15 4 29 7z" />
    <glyph glyph-name="kcommaaccent" unicode="&#x137;" horiz-adv-x="1095" 
d="M213 1657q146 -53 146 -276q0 -29 -3 -62q-5 -69 -33 -232q-24 -141 -24 -201q44 0 126 73q24 21 73 69l75 71q88 78 142 88q8 1 16 1q59 0 92 -83q10 -24 10 -49q0 -58 -54 -120q-45 -50 -179 -145q-125 -90 -159 -136q-23 -33 -23 -64q0 -39 37 -75q20 -19 347 -164
q119 -53 169 -94q44 -37 44 -71q0 -16 -9 -31q0 -43 -62 -43q-78 0 -252 67q-87 34 -226 95q-114 51 -125 53q0 -12 4 -66q5 -54 5 -85q0 -106 -41 -106q-158 0 -188 148q-9 47 -10 140q-1 109 -5 145q-58 541 -60 630v44q0 424 167 479zM616 44q29 5 52 5q64 0 85 -40l3 -7
q7 -17 7 -39v-5q-3 -55 -50 -135q-68 -113 -178 -198q-49 -39 -95 -62q-42 -21 -82 -28q-24 -4 -46 -4q7 81 104 278q45 94 87 153q39 55 70 70q7 4 14 5q15 4 29 7z" />
    <glyph glyph-name="kgreenlandic" unicode="&#x138;" horiz-adv-x="1017" 
d="M155 1087q9 1 20 1q114 0 122 -177v-1q0 -22 -16 -221q9 1 91 64q26 20 77 63l79 66q98 76 159 94q22 6 43 6q65 0 101 -61q5 -14 5 -26q0 -70 -122 -157q-40 -28 -108 -68q-64 -37 -74 -45q-97 -72 -129 -101q0 -18 64 -76l57 -50q35 -29 41 -35q182 -170 306 -255
q8 -6 22 -10q23 -8 29 -12q36 -19 36 -75q-11 -36 -37 -55q-21 -16 -45 -16q-17 0 -32 7q-122 55 -306 218q-191 170 -241 197q18 -185 18 -264q0 -25 -3 -36q-8 -50 -19 -65q-16 -23 -65 -31q-117 0 -126 110q0 5 16 159q-30 207 -41 447q-4 79 -4 142q0 263 82 263z" />
    <glyph glyph-name="Lacute" unicode="&#x139;" horiz-adv-x="1247" 
d="M376 1023q3 -69 3 -151q0 -109 -5 -241l-10 -264q0 -108 6 -136q9 -44 21 -60q9 -14 27 -14h2q6 0 46 9q37 8 68 8q21 0 148 5q63 3 113 3q40 0 72 -2q230 -12 276 -120q12 -27 12 -48q0 -56 -90 -56q-19 0 -43 3q-43 5 -140 25q-70 14 -93 14h-5q-118 -13 -398 -58
q-152 25 -192 90q-11 18 -52 201q-12 53 -12 444q0 55 -22 211q-27 181 -33 266q-3 47 -3 89q0 248 122 292q162 0 182 -510zM669 2027l29 -12q87 -44 87 -102v-8q-1 -11 -5 -22q-8 -22 -27 -45q-43 -50 -141 -96q-139 -63 -289 -72q-20 -1 -40 -1q-19 0 -37 1
q-78 4 -133 32q-23 10 -41 25q67 73 290 196q107 60 185 89q59 21 93 21h6q14 -1 23 -6z" />
    <glyph glyph-name="lacute" unicode="&#x13a;" horiz-adv-x="646" 
d="M358 1668q85 -102 85 -191q0 -6 -1 -13q-3 -31 -20 -100q-20 -81 -28 -133q-13 -80 -13 -245q0 -58 2 -127q4 -191 15 -544v-12q0 -72 -34 -105q-23 -22 -55 -22q-12 0 -25 3q-47 12 -83 52q-38 44 -38 95q-5 18 -5 47q0 35 7 87q13 102 13 136v5q-15 233 -15 409
q0 384 2 394q30 264 193 264zM560 2028q12 -4 23 -10q72 -36 72 -84v-6q-1 -9 -4 -17q-7 -19 -22 -38q-36 -40 -116 -78q-113 -51 -236 -59q-16 -1 -32 -1t-31 1q-64 4 -109 26q-18 8 -33 21q54 60 237 160q87 49 151 73q47 17 75 17h6q12 -1 19 -5z" />
    <glyph glyph-name="Lcommaaccent" unicode="&#x13b;" horiz-adv-x="1247" 
d="M376 1023q3 -69 3 -151q0 -109 -5 -241l-10 -264q0 -108 6 -136q9 -44 21 -60q9 -14 27 -14h2q6 0 46 9q37 8 68 8q21 0 148 5q63 3 113 3q40 0 72 -2q230 -12 276 -120q12 -27 12 -48q0 -56 -90 -56q-19 0 -43 3q-43 5 -140 25q-70 14 -93 14h-5q-118 -13 -398 -58
q-152 25 -192 90q-11 18 -52 201q-12 53 -12 444q0 55 -22 211q-27 181 -33 266q-3 47 -3 89q0 248 122 292q162 0 182 -510zM640 -127q13 0 25 -2q85 -12 107 -71q4 -10 6 -21q3 -13 3 -27q0 -11 -2 -23q-8 -59 -56 -133q-69 -102 -170 -159q-27 -16 -53 -26
q-44 -16 -83 -16q-12 0 -23 1q-20 3 -39 10q15 88 117 273q48 89 90 140q34 42 60 51q8 3 15 3h3z" />
    <glyph glyph-name="lcommaaccent" unicode="&#x13c;" horiz-adv-x="444" 
d="M274 1668q85 -102 85 -191q0 -6 -1 -13q-3 -31 -20 -100q-20 -81 -28 -133q-13 -80 -13 -245q0 -58 2 -127q4 -191 15 -544v-12q0 -72 -34 -105q-23 -22 -55 -22q-12 0 -25 3q-47 12 -83 52q-38 44 -38 95q-5 18 -5 47q0 35 7 87q13 102 13 136v5q-15 233 -15 409
q0 384 2 394q30 264 193 264zM293 69q13 0 26 -2q85 -12 107 -71q4 -10 6 -21q2 -13 2 -28q0 -10 -1 -22q-9 -59 -57 -133q-69 -102 -169 -159q-27 -16 -53 -26q-44 -16 -83 -16q-12 0 -23 1q-20 3 -39 10q15 88 117 273q48 89 90 140q34 42 59 51q9 3 15 3h3z" />
    <glyph glyph-name="Lcaron" unicode="&#x13d;" horiz-adv-x="1247" 
d="M376 1023q3 -69 3 -151q0 -109 -5 -241l-10 -264q0 -108 6 -136q9 -44 21 -60q9 -14 27 -14h2q6 0 46 9q37 8 68 8q21 0 148 5q63 3 113 3q40 0 72 -2q230 -12 276 -120q12 -27 12 -48q0 -56 -90 -56q-19 0 -43 3q-43 5 -140 25q-70 14 -93 14h-5q-118 -13 -398 -58
q-152 25 -192 90q-11 18 -52 201q-12 53 -12 444q0 55 -22 211q-27 181 -33 266q-3 47 -3 89q0 248 122 292q162 0 182 -510zM696 1580q13 2 26 3h14q74 0 105 -48q6 -9 10 -20q9 -21 10 -49v-13q0 -55 -29 -128q-47 -114 -134 -190q-24 -21 -47 -36q-51 -32 -101 -35
q-7 -1 -13 -1q-14 0 -27 3v8q0 90 60 282q30 97 61 155q25 48 48 63q9 6 17 6z" />
    <glyph glyph-name="lcaron" unicode="&#x13e;" horiz-adv-x="861" 
d="M274 1668q85 -102 85 -191q0 -6 -1 -13q-3 -31 -20 -100q-20 -81 -28 -133q-13 -80 -13 -245q0 -58 2 -127q4 -191 15 -544v-12q0 -72 -34 -105q-23 -22 -55 -22q-12 0 -25 3q-47 12 -83 52q-38 44 -38 95q-5 18 -5 47q0 35 7 87q13 102 13 136v5q-15 233 -15 409
q0 384 2 394q30 264 193 264zM631 1617q13 2 26 3h14q74 0 105 -48q6 -9 10 -20q9 -21 10 -49v-13q0 -55 -29 -128q-47 -114 -134 -190q-24 -21 -47 -36q-51 -32 -101 -35q-7 -1 -13 -1q-14 0 -27 3v8q0 90 60 282q30 97 61 155q25 48 48 63q9 6 17 6z" />
    <glyph glyph-name="Ldot" unicode="&#x13f;" horiz-adv-x="1247" 
d="M376 1023q3 -69 3 -151q0 -109 -5 -241l-10 -264q0 -108 6 -136q9 -44 21 -60q9 -14 27 -14h2q6 0 46 9q37 8 68 8q21 0 148 5q63 3 113 3q40 0 72 -2q230 -12 276 -120q12 -27 12 -48q0 -56 -90 -56q-19 0 -43 3q-43 5 -140 25q-70 14 -93 14h-5q-118 -13 -398 -58
q-152 25 -192 90q-11 18 -52 201q-12 53 -12 444q0 55 -22 211q-27 181 -33 266q-3 47 -3 89q0 248 122 292q162 0 182 -510zM623 914q28 7 53 7q33 0 62 -12q47 -19 67 -61q12 -24 12 -48q0 -20 -8 -41q-19 -50 -76 -85q-9 -1 -17 -1q-37 0 -63 19q-29 21 -41 61
q-9 28 -9 60q0 11 1 22q3 43 19 79z" />
    <glyph glyph-name="ldot" unicode="&#x140;" horiz-adv-x="786" 
d="M274 1668q85 -102 85 -191q0 -6 -1 -13q-3 -31 -20 -100q-20 -81 -28 -133q-13 -80 -13 -245q0 -58 2 -127q4 -191 15 -544v-12q0 -72 -34 -105q-23 -22 -55 -22q-12 0 -25 3q-47 12 -83 52q-38 44 -38 95q-5 18 -5 47q0 35 7 87q13 102 13 136v5q-15 233 -15 409
q0 384 2 394q30 264 193 264zM489 1063q28 7 53 7q33 0 62 -12q47 -19 67 -61q12 -24 12 -48q0 -20 -8 -41q-19 -50 -76 -85q-9 -1 -17 -1q-37 0 -63 19q-29 21 -41 61q-9 28 -9 60q0 11 1 22q3 43 19 79z" />
    <glyph glyph-name="Lslash" unicode="&#x141;" horiz-adv-x="1247" 
d="M129 694q-2 60 -21 192q-27 181 -33 266q-3 47 -3 89q0 248 122 292q162 0 182 -510q3 -69 3 -151q8 4 17 10q57 31 96 45q35 12 62 12q40 0 60 -28q16 -22 19 -62v-1q0 -24 -85 -83q-20 -15 -47 -31l-100 -62q-15 -9 -26 -15q-1 -13 -1 -26l-10 -264q0 -108 6 -136
q9 -44 21 -60q9 -14 27 -14h2q6 0 46 9q37 8 68 8q21 0 148 5q63 3 113 3q40 0 72 -2q230 -12 276 -120q12 -27 12 -48q0 -56 -90 -56q-19 0 -43 3q-43 5 -140 25q-70 14 -93 14h-5q-118 -13 -398 -58q-152 25 -192 90q-11 18 -52 201q-9 39 -11 257q-10 -9 -23 -25
q-29 -34 -43 -47q-7 -7 -15 -12q-16 -11 -31 -13h-2q-24 0 -44 29q-14 20 -14 45q0 77 139 202z" />
    <glyph glyph-name="lslash" unicode="&#x142;" horiz-adv-x="693" 
d="M221 881q-2 74 -2 139q0 384 2 394q30 264 193 264q85 -102 85 -191q0 -6 -1 -13q-3 -31 -20 -100q-20 -81 -28 -133q-12 -72 -13 -211q3 1 6 3q56 32 95 46q36 13 62 13q40 0 60 -29q16 -22 19 -62v-1q0 -24 -84 -83q-20 -15 -47 -31q-37 -25 -100 -62q-4 -2 -8 -5
q4 -185 14 -694v-12q0 -72 -34 -105q-23 -22 -55 -22q-12 0 -25 3q-47 12 -83 52q-38 44 -38 95q-5 218 -5 247q0 35 7 87q13 102 13 136v5l-4 66l-38 -27q-12 -7 -36 -37q-29 -34 -43 -47q-7 -7 -15 -12q-16 -11 -31 -12h-3q-23 0 -44 28q-14 19 -14 44q0 77 140 204
q34 30 75 63z" />
    <glyph glyph-name="Nacute" unicode="&#x143;" horiz-adv-x="1507" 
d="M356 1592q82 -218 84 -221q38 -53 116 -149q82 -100 117 -148q27 -36 85 -129l101 -158q131 -193 215 -222q0 38 -16 245q-17 241 -23 379q-5 106 -5 189q0 311 65 315h8q162 0 188 -342q5 -67 5 -152q0 -57 -2 -121q-1 -35 -5 -113q-2 -58 -2 -79q0 -330 17 -442
q4 -29 38 -124q38 -110 52 -167q17 -69 17 -120q0 -108 -76 -138q-12 -5 -25 -5q-79 0 -180 197q-26 50 -85 180q-46 101 -65 127q-242 337 -566 639v-468q0 -241 -51 -472q-15 -72 -54 -79q-5 -1 -10 -1q-29 0 -64 35q-39 38 -65 96q-22 50 -22 91q0 8 1 15q34 317 34 567
q0 187 -19 336q-1 13 -32 122q-32 114 -44 189q-10 60 -10 106q0 145 102 145q129 0 176 -123zM928 2089q107 -30 107 -92v-8q-2 -20 -14 -42q-27 -48 -105 -99q-111 -71 -247 -98q-61 -13 -112 -13q-48 0 -87 11q-23 7 -43 17q43 70 217 203q83 64 146 98q60 32 94 32
q8 0 15 -2q15 -3 29 -7z" />
    <glyph glyph-name="nacute" unicode="&#x144;" horiz-adv-x="1124" 
d="M567 1037h5q201 0 366 -458q0 -103 121 -277q35 -51 101 -136q65 -83 84 -111q-11 -65 -51 -65q-81 0 -283 263q-90 117 -212 297q-105 157 -109 160q-160 -350 -262 -486q-41 -55 -90 -67q-13 -3 -25 -3q-31 0 -59 19q-39 25 -59 74q-15 38 -15 79q0 15 2 31q1 7 1 46
q0 59 -2 191v29q0 151 29 196q0 44 37 61q18 7 39 7q20 0 44 -6q49 -13 82 -46q38 -36 38 -82q6 9 37 62q35 58 59 94q81 124 122 128zM684 1630q107 -30 107 -92v-8q-2 -20 -14 -42q-27 -48 -105 -99q-111 -71 -247 -98q-61 -13 -112 -13q-48 0 -87 11q-23 7 -43 17
q43 70 217 203q83 64 146 98q60 32 94 32q8 0 15 -2q15 -3 29 -7z" />
    <glyph glyph-name="Ncommaaccent" unicode="&#x145;" horiz-adv-x="1507" 
d="M356 1592q82 -218 84 -221q38 -53 116 -149q82 -100 117 -148q27 -36 85 -129l101 -158q131 -193 215 -222q0 38 -16 245q-17 241 -23 379q-5 106 -5 189q0 311 65 315h8q162 0 188 -342q5 -67 5 -152q0 -57 -2 -121q-1 -35 -5 -113q-2 -58 -2 -79q0 -330 17 -442
q4 -29 38 -124q38 -110 52 -167q17 -69 17 -120q0 -108 -76 -138q-12 -5 -25 -5q-79 0 -180 197q-26 50 -85 180q-46 101 -65 127q-242 337 -566 639v-468q0 -241 -51 -472q-15 -72 -54 -79q-5 -1 -10 -1q-29 0 -64 35q-39 38 -65 96q-22 50 -22 91q0 8 1 15q34 317 34 567
q0 187 -19 336q-1 13 -32 122q-32 114 -44 189q-10 60 -10 106q0 145 102 145q129 0 176 -123zM803 -40q29 5 52 5q64 0 85 -40l3 -7q7 -17 7 -39v-5q-3 -55 -50 -135q-68 -113 -178 -198q-49 -39 -95 -62q-42 -21 -82 -28q-24 -4 -46 -4q7 81 104 278q45 94 87 153
q39 55 70 70q7 4 14 5q15 4 29 7z" />
    <glyph glyph-name="ncommaaccent" unicode="&#x146;" horiz-adv-x="1124" 
d="M567 1037h5q201 0 366 -458q0 -103 121 -277q35 -51 101 -136q65 -83 84 -111q-11 -65 -51 -65q-81 0 -283 263q-90 117 -212 297q-105 157 -109 160q-160 -350 -262 -486q-41 -55 -90 -67q-13 -3 -25 -3q-31 0 -59 19q-39 25 -59 74q-15 38 -15 79q0 15 2 31q1 7 1 46
q0 59 -2 191v29q0 151 29 196q0 44 37 61q18 7 39 7q20 0 44 -6q49 -13 82 -46q38 -36 38 -82q6 9 37 62q35 58 59 94q81 124 122 128zM616 44q29 5 52 5q64 0 85 -40l3 -7q7 -17 7 -39v-5q-3 -55 -50 -135q-68 -113 -178 -198q-49 -39 -95 -62q-42 -21 -82 -28
q-24 -4 -46 -4q7 81 104 278q45 94 87 153q39 55 70 70q7 4 14 5q15 4 29 7z" />
    <glyph glyph-name="Ncaron" unicode="&#x147;" horiz-adv-x="1507" 
d="M356 1592q82 -218 84 -221q38 -53 116 -149q82 -100 117 -148q27 -36 85 -129l101 -158q131 -193 215 -222q0 38 -16 245q-17 241 -23 379q-5 106 -5 189q0 311 65 315h8q162 0 188 -342q5 -67 5 -152q0 -57 -2 -121q-1 -35 -5 -113q-2 -58 -2 -79q0 -330 17 -442
q4 -29 38 -124q38 -110 52 -167q17 -69 17 -120q0 -108 -76 -138q-12 -5 -25 -5q-79 0 -180 197q-26 50 -85 180q-46 101 -65 127q-242 337 -566 639v-468q0 -241 -51 -472q-15 -72 -54 -79q-5 -1 -10 -1q-29 0 -64 35q-39 38 -65 96q-22 50 -22 91q0 8 1 15q34 317 34 567
q0 187 -19 336q-1 13 -32 122q-32 114 -44 189q-10 60 -10 106q0 145 102 145q129 0 176 -123zM1075 2106q1 -6 1 -13q0 -50 -53 -123q-53 -75 -138 -143q-84 -68 -148 -89q-70 17 -154 85q-82 66 -134 145q-49 73 -49 128q0 8 1 15q8 66 102 79h4q16 0 39 -23
q20 -21 53 -69q96 -139 123 -167q31 29 143 160q35 42 56 60q24 20 41 20h4q100 -4 109 -65z" />
    <glyph glyph-name="ncaron" unicode="&#x148;" horiz-adv-x="1124" 
d="M567 1037h5q201 0 366 -458q0 -103 121 -277q35 -51 101 -136q65 -83 84 -111q-11 -65 -51 -65q-81 0 -283 263q-90 117 -212 297q-105 157 -109 160q-160 -350 -262 -486q-41 -55 -90 -67q-13 -3 -25 -3q-31 0 -59 19q-39 25 -59 74q-15 38 -15 79q0 15 2 31q1 7 1 46
q0 59 -2 191v29q0 151 29 196q0 44 37 61q18 7 39 7q20 0 44 -6q49 -13 82 -46q38 -36 38 -82q6 9 37 62q35 58 59 94q81 124 122 128zM841 1647q1 -6 1 -13q0 -50 -53 -123q-53 -75 -138 -143q-84 -68 -148 -89q-70 17 -154 85q-82 66 -134 145q-49 73 -49 128q0 8 1 15
q8 66 102 79h4q16 0 39 -23q20 -21 53 -69q96 -139 123 -167q31 29 143 160q35 42 56 60q24 20 41 20h4q100 -4 109 -65z" />
    <glyph glyph-name="napostrophe" unicode="&#x149;" horiz-adv-x="1479" 
d="M774 1037h5q201 0 366 -458q0 -103 121 -277q35 -51 101 -136q65 -83 84 -111q-11 -65 -51 -65q-81 0 -283 263q-90 117 -212 297q-105 157 -109 160q-160 -350 -262 -486q-41 -55 -90 -67q-13 -3 -25 -3q-31 0 -59 19q-39 25 -59 74q-15 38 -15 79q0 15 2 31q1 7 1 46
q0 59 -2 191v29q0 151 29 196q0 44 37 61q18 7 39 7q20 0 44 -6q49 -13 82 -46q38 -36 38 -82q6 9 37 62q35 58 59 94q81 124 122 128zM118 1222q55 42 95 42q22 0 39 -13l6 -5q15 -14 24 -37q17 -38 17 -101q0 -20 -2 -42q-11 -132 -70 -256q-26 -56 -56 -97
q-28 -38 -59 -62q-19 -14 -39 -24q-28 76 -28 295v17q0 94 10 159q10 67 30 94q5 6 11 11q11 10 22 19z" />
    <glyph glyph-name="Eng" unicode="&#x14a;" horiz-adv-x="1507" 
d="M1184 -6q-26 39 -54 93q-26 50 -85 180q-46 101 -65 127q-242 337 -566 639v-468q0 -241 -51 -472q-15 -72 -54 -79q-5 -1 -10 -1q-29 0 -64 35q-39 38 -65 96q-22 50 -22 91q0 8 1 15q34 317 34 567q0 187 -19 336q-1 13 -32 122q-32 114 -44 189q-10 60 -10 106
q0 145 102 145q129 0 176 -123q82 -218 84 -221q38 -53 116 -149q82 -100 117 -148q27 -36 85 -129l101 -158q131 -193 215 -222q0 38 -16 245q-17 241 -23 379q-5 106 -5 189q0 311 65 315h8q162 0 188 -342q5 -67 5 -152q0 -57 -2 -121q-1 -35 -5 -113q-2 -58 -2 -79
q0 -330 17 -442q4 -29 38 -124q38 -110 52 -167q17 -69 17 -120q0 -47 -14 -79q-52 -281 -135 -396q-68 -95 -210 -95q-44 0 -94 9q-216 38 -281 173q-26 73 -26 111q0 22 8 33q11 13 29 13q21 0 53 -17q58 -34 244 -108q27 -11 50 -11q129 0 149 328z" />
    <glyph glyph-name="eng" unicode="&#x14b;" horiz-adv-x="1079" 
d="M670 1000q102 -24 109 -24h1q59 -124 97 -273q90 -525 108 -708q2 -29 2 -53q0 -123 -64 -151q-181 -41 -267 -41h-8q-81 0 -81 92q0 28 3 45q18 -3 48 -3q150 0 150 132q0 51 -24 121l-91 580h-30q-148 -164 -341 -608l-50 -154q0 27 -59 32h-61q-16 0 -16 18l-46 73
q54 174 54 617l83 64l99 -31l34 -44h19q86 71 154 184q103 132 177 132z" />
    <glyph glyph-name="Omacron" unicode="&#x14c;" horiz-adv-x="1595" 
d="M771 1431q26 -37 26 -64q0 -12 -5 -22q-12 -27 -63 -47q-175 -69 -181 -75q-50 -47 -100 -138l-84 -153q-52 -82 -53 -187v-4q0 -97 43 -191q44 -96 122 -161q82 -69 182 -86q81 -14 153 -14q177 0 303 82q180 117 180 362q0 20 -1 41q-20 324 -174 497q-85 96 -135 134
q-78 60 -137 60q-36 0 -65 -23zM1336 1321q172 -286 172 -631q0 -302 -164 -439q-86 -72 -494 -145q-93 -17 -175 -17q-541 0 -589 738v13q0 86 71 220q71 135 190 273q120 141 240 228q131 95 220 95q327 0 529 -335zM1002 2071q65 -6 105 -17q91 -25 91 -83q0 -27 -20 -62
q-12 -21 -117 -21q-25 0 -57 2q-44 1 -117 7q-64 4 -74 4h-236q-13 0 -51 -10q-42 -11 -61 -13q-10 -2 -19 -2q-20 0 -33 8q-22 13 -22 50q0 100 244 131q81 10 185 12h119q4 -2 63 -6z" />
    <glyph glyph-name="omacron" unicode="&#x14d;" 
d="M306 297q23 -11 71 -11q47 0 85 16q26 11 82 47q102 65 141 113q57 67 57 161q0 -34 -42 -34q-67 0 -240 85q-23 11 -43 11q-65 0 -107 -108q-42 -107 -42 -223q7 -42 38 -57zM959 794q38 -66 38 -146q0 -67 -27 -144q-57 -163 -200 -280q-153 -125 -330 -129
q-104 0 -186 46q-76 43 -122 121q-59 98 -59 214q0 70 22 147q30 107 112 177q78 67 191 92q2 1 4 1q15 0 49 -22q35 -23 51 -23h3q14 53 55 81q39 27 95 27q224 -24 304 -162zM721 1416q65 -6 105 -17q91 -25 91 -83q0 -27 -20 -62q-12 -21 -117 -21q-25 0 -57 2
q-44 1 -117 7q-64 4 -74 4h-236q-13 0 -51 -10q-42 -11 -61 -13q-10 -2 -19 -2q-20 0 -33 8q-22 13 -22 50q0 100 244 131q81 10 185 12h119q4 -2 63 -6z" />
    <glyph glyph-name="Obreve" unicode="&#x14e;" horiz-adv-x="1595" 
d="M771 1431q26 -37 26 -64q0 -12 -5 -22q-12 -27 -63 -47q-175 -69 -181 -75q-50 -47 -100 -138l-84 -153q-52 -82 -53 -187v-4q0 -97 43 -191q44 -96 122 -161q82 -69 182 -86q81 -14 153 -14q177 0 303 82q180 117 180 362q0 20 -1 41q-20 324 -174 497q-85 96 -135 134
q-78 60 -137 60q-36 0 -65 -23zM1336 1321q172 -286 172 -631q0 -302 -164 -439q-86 -72 -494 -145q-93 -17 -175 -17q-541 0 -589 738v13q0 86 71 220q71 135 190 273q120 141 240 228q131 95 220 95q327 0 529 -335zM1087 2055v-14q-6 -122 -116 -212q-70 -55 -161 -55
q-41 0 -86 11q-141 33 -204 140q-53 88 -60 143q-1 6 -1 12q49 42 94 42q55 0 103 -63q13 -78 48 -109q22 -20 48 -20q12 0 24 3q134 20 134 104q0 21 -8 45q60 40 116 40q33 0 64 -13q5 -27 5 -54z" />
    <glyph glyph-name="obreve" unicode="&#x14f;" 
d="M306 297q23 -11 71 -11q47 0 85 16q26 11 82 47q102 65 141 113q57 67 57 161q0 -34 -42 -34q-67 0 -240 85q-23 11 -43 11q-65 0 -107 -108q-42 -107 -42 -223q7 -42 38 -57zM959 794q38 -66 38 -146q0 -67 -27 -144q-57 -163 -200 -280q-153 -125 -330 -129
q-104 0 -186 46q-76 43 -122 121q-59 98 -59 214q0 70 22 147q30 107 112 177q78 67 191 92q2 1 4 1q15 0 49 -22q35 -23 51 -23h3q14 53 55 81q39 27 95 27q224 -24 304 -162zM854 1456v-14q-6 -122 -116 -212q-70 -55 -161 -55q-41 0 -86 11q-141 33 -204 140
q-53 88 -60 143q-1 6 -1 12q49 42 94 42q55 0 103 -63q13 -78 48 -109q22 -20 48 -20q12 0 24 3q134 20 134 104q0 21 -8 45q60 40 116 40q33 0 64 -13q5 -27 5 -54z" />
    <glyph glyph-name="Ohungarumlaut" unicode="&#x150;" horiz-adv-x="1595" 
d="M771 1431q26 -37 26 -64q0 -12 -5 -22q-12 -27 -63 -47q-175 -69 -181 -75q-50 -47 -100 -138l-84 -153q-52 -82 -53 -187v-4q0 -97 43 -191q44 -96 122 -161q82 -69 182 -86q81 -14 153 -14q177 0 303 82q180 117 180 362q0 20 -1 41q-20 324 -174 497q-85 96 -135 134
q-78 60 -137 60q-36 0 -65 -23zM1336 1321q172 -286 172 -631q0 -302 -164 -439q-86 -72 -494 -145q-93 -17 -175 -17q-541 0 -589 738v13q0 86 71 220q71 135 190 273q120 141 240 228q131 95 220 95q327 0 529 -335zM582 2228q13 1 25 1q94 0 116 -71q7 -21 7 -45
q0 -58 -37 -133q-51 -104 -137 -171q-75 -58 -144 -58q-19 0 -37 4q3 84 74 270q34 89 67 142q37 61 66 61zM1014 2246q13 1 25 1q94 0 116 -71q7 -21 7 -45q0 -58 -37 -133q-51 -104 -137 -171q-75 -58 -144 -58q-19 0 -37 4q3 84 74 270q34 89 67 142q37 61 66 61z" />
    <glyph glyph-name="ohungarumlaut" unicode="&#x151;" 
d="M306 297q23 -11 71 -11q47 0 85 16q26 11 82 47q102 65 141 113q57 67 57 161q0 -34 -42 -34q-67 0 -240 85q-23 11 -43 11q-65 0 -107 -108q-42 -107 -42 -223q7 -42 38 -57zM959 794q38 -66 38 -146q0 -67 -27 -144q-57 -163 -200 -280q-153 -125 -330 -129
q-104 0 -186 46q-76 43 -122 121q-59 98 -59 214q0 70 22 147q30 107 112 177q78 67 191 92q2 1 4 1q15 0 49 -22q35 -23 51 -23h3q14 53 55 81q39 27 95 27q224 -24 304 -162zM367 1704q13 1 25 1q94 0 116 -71q7 -21 7 -45q0 -58 -37 -133q-51 -104 -137 -171
q-75 -58 -144 -58q-19 0 -37 4q3 84 74 270q34 89 67 142q37 61 66 61zM799 1722q13 1 25 1q94 0 116 -71q7 -21 7 -45q0 -58 -37 -133q-51 -104 -137 -171q-75 -58 -144 -58q-19 0 -37 4q3 84 74 270q34 89 67 142q37 61 66 61z" />
    <glyph glyph-name="OE" unicode="&#x152;" horiz-adv-x="2470" 
d="M606 200q74 -13 141 -13q128 0 231 47q168 77 209 256v23q0 58 3 210q-31 243 -154 381q-79 89 -126 125q-73 56 -128 56q-34 0 -61 -21l-9 -10q24 -35 24 -60q0 -12 -5 -21q-11 -25 -58 -44q-164 -65 -170 -70l-172 -272q-48 -77 -49 -174v-4q0 -91 40 -178
q41 -90 114 -151q76 -65 170 -80zM1721 307q32 0 173 15q148 15 234 17h30q263 0 263 -121q0 -106 -469 -108h-27q-136 0 -324 9q-211 9 -221 9q-66 0 -110 46q-22 -21 -23 -23q-27 -22 -210 -73q-165 -47 -252 -62q-87 -16 -163 -16q-506 0 -551 690v11q0 80 67 206
q66 126 177 255q112 131 224 212q123 89 206 89q221 0 387 -172q10 165 119 165q51 0 77 -35q23 -31 23 -84q58 39 150 39q16 0 33 -1q14 -1 97 -11q46 -5 78 -5h17q161 5 457 38q45 -54 50 -119v-10q0 -69 -77 -69h-508q-172 0 -240 -27q-51 -19 -51 -112q0 -19 2 -42
q4 -37 17 -107q12 -66 14 -89q214 40 530 40q87 0 165 -57q36 -26 36 -54v-5q-4 -36 -70 -69q-39 -20 -100 -20q-29 0 -63 5q-158 22 -161 22h-5q-75 0 -250 -30q-60 -10 -73 -75q0 -2 1 -9v-9q0 -31 -2 -63q3 -25 19 -107q16 -89 112 -95h17q29 0 75 4q70 7 100 7z" />
    <glyph glyph-name="oe" unicode="&#x153;" horiz-adv-x="1821" 
d="M975 639q2 -54 43 -54h4q40 3 98 50q57 46 95 106q39 61 39 107v6q-109 -3 -187 -54q-92 -59 -92 -161zM522 293q101 65 141 112q56 68 56 161q0 -34 -42 -34q-67 0 -239 85q-23 11 -44 11q-63 0 -105 -107q-43 -108 -43 -223q7 -42 38 -57q23 -11 71 -11q69 0 167 63z
M1771 217q0 -23 -11 -55q-26 -82 -70 -132q-57 -66 -169 -80q-30 -4 -63 -4q-61 0 -131 14q-118 24 -226 129q-28 27 -90 95q-57 64 -93 96l-37 36q-79 -119 -197 -193q-128 -80 -266 -83q-208 0 -307 166q-59 98 -59 213q0 70 22 147q30 107 112 177q77 67 190 91q2 1 5 1
q15 0 48 -22q34 -23 50 -23q2 0 4 1q29 108 150 108q94 -10 165 -43q65 134 234 204q129 53 271 53q29 0 59 -2q112 -66 131 -177q4 -24 4 -50q0 -77 -41 -167q-50 -108 -144 -203q-91 -92 -186 -133q54 -112 121 -168q81 -68 190 -68q56 0 154 71q81 59 108 59q4 0 6 -1
q66 0 66 -57z" />
    <glyph glyph-name="Racute" unicode="&#x154;" horiz-adv-x="1530" 
d="M315 1279q-3 -92 -3 -161q0 -184 23 -201q20 -14 49 -14q36 0 87 22q81 36 177 117q92 79 154 162q66 88 66 139q-87 37 -302 37q-251 -1 -251 -101zM872 1572q230 -52 230 -208q3 -20 3 -40q0 -136 -152 -293q-85 -88 -298 -242q428 -390 551 -544q5 -5 66 -55
q66 -55 100 -90q50 -52 50 -81q0 -39 -86 -39q-163 0 -356 200q-284 294 -300 305l-70 54q-59 45 -104 73q-96 62 -150 62q-25 0 -41 -13q-5 -3 -5 -56t5 -156q0 -44 13 -151q9 -77 9 -118q0 -11 -1 -20q-4 -63 -40 -72q-7 -2 -15 -2q-43 0 -120 49q-54 33 -63 101
q-2 13 -2 29q0 43 12 110q20 112 22 147v14q0 71 -29 115q-20 31 -21 138q6 8 42 65q0 152 -23 321q-3 26 -19 85q-15 58 -18 88q-2 14 -2 26q0 80 65 117q109 64 402 107q230 0 345 -26z" />
    <glyph glyph-name="racute" unicode="&#x155;" horiz-adv-x="965" 
d="M751 943q73 -58 106 -123q15 -30 15 -50q0 -25 -22 -34q-11 -5 -27 -5q-49 0 -146 49q-19 9 -38 9q-95 0 -182 -243q-46 -129 -101 -390q-14 -67 -25 -90q-10 -21 -24 -21h-2q-9 2 -38 22q-35 24 -62 36q-79 34 -89 101q-2 13 -2 36q0 16 1 36q1 30 1 53t-1 40
q-10 164 -10 265q0 86 7 127q19 108 75 108q55 0 147 -105q104 253 253 253q82 -10 164 -74z" />
    <glyph glyph-name="Rcommaaccent" unicode="&#x156;" horiz-adv-x="1530" 
d="M315 1279q-3 -92 -3 -161q0 -184 23 -201q20 -14 49 -14q36 0 87 22q81 36 177 117q92 79 154 162q66 88 66 139q-87 37 -302 37q-251 -1 -251 -101zM872 1572q230 -52 230 -208q3 -20 3 -40q0 -136 -152 -293q-85 -88 -298 -242q428 -390 551 -544q5 -5 66 -55
q66 -55 100 -90q50 -52 50 -81q0 -39 -86 -39q-163 0 -356 200q-284 294 -300 305l-70 54q-59 45 -104 73q-96 62 -150 62q-25 0 -41 -13q-5 -3 -5 -56t5 -156q0 -44 13 -151q9 -77 9 -118q0 -11 -1 -20q-4 -63 -40 -72q-7 -2 -15 -2q-43 0 -120 49q-54 33 -63 101
q-2 13 -2 29q0 43 12 110q20 112 22 147v14q0 71 -29 115q-20 31 -21 138q6 8 42 65q0 152 -23 321q-3 26 -19 85q-15 58 -18 88q-2 14 -2 26q0 80 65 117q109 64 402 107q230 0 345 -26zM857 22q12 -5 23 -11q75 -41 75 -104q0 -11 -2 -22q-4 -23 -17 -47
q-29 -52 -100 -104q-101 -71 -215 -89q-31 -5 -59 -5q-60 0 -104 24q-18 9 -33 23q45 77 206 213q77 66 134 99q47 27 74 27q11 0 18 -4z" />
    <glyph glyph-name="rcommaaccent" unicode="&#x157;" horiz-adv-x="965" 
d="M751 943q73 -58 106 -123q15 -30 15 -50q0 -25 -22 -34q-11 -5 -27 -5q-49 0 -146 49q-19 9 -38 9q-95 0 -182 -243q-46 -129 -101 -390q-14 -67 -25 -90q-10 -21 -24 -21h-2q-9 2 -38 22q-35 24 -62 36q-79 34 -89 101q-2 13 -2 36q0 16 1 36q1 30 1 53t-1 40
q-10 164 -10 265q0 86 7 127q19 108 75 108q55 0 147 -105q104 253 253 253q82 -10 164 -74zM606 -44q12 -5 23 -11q75 -41 75 -104q0 -11 -2 -22q-4 -23 -17 -47q-29 -52 -100 -104q-101 -71 -215 -89q-31 -5 -59 -5q-60 0 -104 24q-18 9 -33 23q45 77 206 213
q77 66 134 99q47 27 74 27q11 0 18 -4z" />
    <glyph glyph-name="Rcaron" unicode="&#x158;" horiz-adv-x="1530" 
d="M315 1279q-3 -92 -3 -161q0 -184 23 -201q20 -14 49 -14q36 0 87 22q81 36 177 117q92 79 154 162q66 88 66 139q-87 37 -302 37q-251 -1 -251 -101zM872 1572q230 -52 230 -208q3 -20 3 -40q0 -136 -152 -293q-85 -88 -298 -242q428 -390 551 -544q5 -5 66 -55
q66 -55 100 -90q50 -52 50 -81q0 -39 -86 -39q-163 0 -356 200q-284 294 -300 305l-70 54q-59 45 -104 73q-96 62 -150 62q-25 0 -41 -13q-5 -3 -5 -56t5 -156q0 -44 13 -151q9 -77 9 -118q0 -11 -1 -20q-4 -63 -40 -72q-7 -2 -15 -2q-43 0 -120 49q-54 33 -63 101
q-2 13 -2 29q0 43 12 110q20 112 22 147v14q0 71 -29 115q-20 31 -21 138q6 8 42 65q0 152 -23 321q-3 26 -19 85q-15 58 -18 88q-2 14 -2 26q0 80 65 117q109 64 402 107q230 0 345 -26zM961 2068q1 -6 1 -13q0 -50 -53 -123q-53 -75 -138 -143q-84 -68 -148 -89
q-70 17 -154 85q-82 66 -134 145q-49 73 -49 128q0 8 1 15q8 66 102 79h4q16 0 39 -23q20 -21 53 -69q96 -139 123 -167q31 29 143 160q35 42 56 60q24 20 41 20h4q100 -4 109 -65z" />
    <glyph glyph-name="rcaron" unicode="&#x159;" horiz-adv-x="965" 
d="M751 943q73 -58 106 -123q15 -30 15 -50q0 -25 -22 -34q-11 -5 -27 -5q-49 0 -146 49q-19 9 -38 9q-95 0 -182 -243q-46 -129 -101 -390q-14 -67 -25 -90q-10 -21 -24 -21h-2q-9 2 -38 22q-35 24 -62 36q-79 34 -89 101q-2 13 -2 36q0 16 1 36q1 30 1 53t-1 40
q-10 164 -10 265q0 86 7 127q19 108 75 108q55 0 147 -105q104 253 253 253q82 -10 164 -74zM755 1506q1 -6 1 -13q0 -50 -53 -123q-53 -75 -138 -143q-84 -68 -148 -89q-70 17 -154 85q-82 66 -134 145q-49 73 -49 128q0 8 1 15q8 66 102 79h4q16 0 39 -23q20 -21 53 -69
q96 -139 123 -167q31 29 143 160q35 42 56 60q24 20 41 20h4q100 -4 109 -65z" />
    <glyph glyph-name="Sacute" unicode="&#x15a;" horiz-adv-x="1642" 
d="M740 1600q318 0 442 -17q303 -41 303 -169q0 -20 -7 -42q-23 -69 -113 -69q-20 0 -44 4q-17 3 -178 52q-104 31 -227 31q-152 0 -332 -47q67 -128 218 -232q86 -60 297 -164q203 -101 296 -168q150 -107 216 -243q26 -54 26 -107q0 -99 -92 -195q-125 -130 -292 -152
q-149 -19 -284 -19q-202 0 -374 42q-371 90 -522 367q-45 83 -45 147q0 23 6 44q18 58 80 58q29 0 68 -13q42 -15 59 -55q10 -22 18 -84q17 -128 97 -176q178 -108 480 -133q65 -6 124 -6q234 0 359 90q78 56 78 125q0 88 -131 197q-89 73 -371 229q-34 19 -124 64
q-79 41 -124 67q-142 82 -219 171q-81 95 -97 120q-33 52 -33 96q0 19 6 37q16 47 134 89q132 47 146 61h156zM981 2093q16 -4 29 -9q95 -34 95 -87q0 -9 -3 -18q-5 -19 -21 -39q-36 -44 -126 -87q-127 -60 -271 -75q-39 -4 -74 -4q-76 0 -131 20q-23 8 -42 19
q57 65 260 178q97 56 169 83q59 23 93 23q14 0 22 -4z" />
    <glyph glyph-name="sacute" unicode="&#x15b;" horiz-adv-x="1247" 
d="M724 1088q73 -8 107 -18q123 -37 123 -183q-5 -9 -205 -27q-186 -17 -230 -17q62 -75 317 -220q226 -130 287 -252q49 -98 49 -187q0 -30 -6 -59q-25 -132 -164 -182q-119 -43 -258 -43q-69 0 -143 11q-208 30 -383 131q-75 43 -129 125q-41 64 -41 117q0 31 13 58
q0 35 18 58q17 22 43 26q6 1 12 1q18 0 34 -11q22 -16 29 -51q48 -241 474 -241q140 5 217 49q55 32 55 77q0 43 -51 99q-79 87 -334 190q-234 94 -296 197q-38 64 -38 118q0 85 94 145q88 57 309 106q27 -9 97 -17zM812 1756q16 -4 29 -9q95 -34 95 -87q0 -9 -3 -18
q-5 -19 -21 -39q-36 -44 -126 -87q-127 -60 -271 -75q-39 -4 -74 -4q-76 0 -131 20q-23 8 -42 19q57 65 260 178q97 56 169 83q59 23 93 23q14 0 22 -4z" />
    <glyph glyph-name="Scircumflex" unicode="&#x15c;" horiz-adv-x="1642" 
d="M740 1600q318 0 442 -17q303 -41 303 -169q0 -20 -7 -42q-23 -69 -113 -69q-20 0 -44 4q-17 3 -178 52q-104 31 -227 31q-152 0 -332 -47q67 -128 218 -232q86 -60 297 -164q203 -101 296 -168q150 -107 216 -243q26 -54 26 -107q0 -99 -92 -195q-125 -130 -292 -152
q-149 -19 -284 -19q-202 0 -374 42q-371 90 -522 367q-45 83 -45 147q0 23 6 44q18 58 80 58q29 0 68 -13q42 -15 59 -55q10 -22 18 -84q17 -128 97 -176q178 -108 480 -133q65 -6 124 -6q234 0 359 90q78 56 78 125q0 88 -131 197q-89 73 -371 229q-34 19 -124 64
q-79 41 -124 67q-142 82 -219 171q-81 95 -97 120q-33 52 -33 96q0 19 6 37q16 47 134 89q132 47 146 61h156zM1095 1793h-4q-17 0 -41 20q-21 18 -56 60q-112 131 -143 160q-27 -28 -123 -167q-33 -48 -53 -69q-23 -23 -39 -23h-4q-94 13 -102 79q-1 7 -1 15q0 55 49 128
q52 79 134 145q84 68 154 85q64 -21 148 -89q85 -68 138 -143q53 -73 53 -123q0 -7 -1 -13q-9 -61 -109 -65z" />
    <glyph glyph-name="scircumflex" unicode="&#x15d;" horiz-adv-x="1247" 
d="M724 1088q73 -8 107 -18q123 -37 123 -183q-5 -9 -205 -27q-186 -17 -230 -17q62 -75 317 -220q226 -130 287 -252q49 -98 49 -187q0 -30 -6 -59q-25 -132 -164 -182q-119 -43 -258 -43q-69 0 -143 11q-208 30 -383 131q-75 43 -129 125q-41 64 -41 117q0 31 13 58
q0 35 18 58q17 22 43 26q6 1 12 1q18 0 34 -11q22 -16 29 -51q48 -241 474 -241q140 5 217 49q55 32 55 77q0 43 -51 99q-79 87 -334 190q-234 94 -296 197q-38 64 -38 118q0 85 94 145q88 57 309 106q27 -9 97 -17zM852 1354h-4q-17 0 -41 20q-21 18 -56 60
q-112 131 -143 160q-27 -28 -123 -167q-33 -48 -53 -69q-23 -23 -39 -23h-4q-94 13 -102 79q-1 7 -1 15q0 55 49 128q52 79 134 145q84 68 154 85q64 -21 148 -89q85 -68 138 -143q53 -73 53 -123q0 -7 -1 -13q-9 -61 -109 -65z" />
    <glyph glyph-name="Scedilla" unicode="&#x15e;" horiz-adv-x="1642" 
d="M661 91q-34 6 -66 14q-371 90 -522 367q-45 83 -45 147q0 23 6 44q18 58 80 58q29 0 68 -13q42 -15 59 -55q10 -22 18 -84q17 -128 97 -176q178 -108 480 -133q65 -6 124 -6q234 0 359 90q78 56 78 125q0 88 -131 197q-89 73 -371 229q-34 19 -124 64q-79 41 -124 67
q-142 82 -219 171q-81 95 -97 120q-33 52 -33 96q0 19 6 37q16 47 134 89q132 47 146 61h156q318 0 442 -17q303 -41 303 -169q0 -20 -7 -42q-23 -69 -113 -69q-20 0 -44 4q-17 3 -178 52q-104 31 -227 31q-152 0 -332 -47q67 -128 218 -232q86 -60 297 -164
q203 -101 296 -168q150 -107 216 -243q26 -54 26 -107q0 -99 -92 -195q-125 -130 -292 -152q-149 -19 -284 -19q-73 0 -142 5q-3 -13 -3 -24q0 -26 16 -43q17 -18 64 -34q13 -5 18 -8q170 -84 194 -191q3 -15 3 -30q0 -51 -40 -100q-67 -80 -297 -80q-23 0 -70 1
q-31 1 -48 1q-70 0 -78 45q-1 4 -1 8q0 26 26 54q29 31 66 43q8 2 15 2q13 0 45 -6q24 -5 32 -5q61 0 124 12q69 13 76 31v2q0 8 -22 27q-62 51 -189 103q-2 0 -12 4q-101 31 -105 67q-2 6 -2 14q0 29 22 130z" />
    <glyph glyph-name="scedilla" unicode="&#x15f;" horiz-adv-x="1247" 
d="M537 -78q-171 35 -319 120q-75 43 -129 125q-41 64 -41 117q0 31 13 58q0 35 18 58q17 22 43 26q6 1 12 1q18 0 34 -11q22 -16 29 -51q48 -241 474 -241q140 5 217 49q55 32 55 77q0 43 -51 99q-79 87 -334 190q-234 94 -296 197q-38 64 -38 118q0 85 94 145
q88 57 309 106q27 -9 97 -17q73 -8 107 -18q123 -37 123 -183q-5 -9 -205 -27q-186 -17 -230 -17q62 -75 317 -220q226 -130 287 -252q49 -98 49 -187q0 -30 -6 -59q-25 -132 -164 -182q-119 -43 -258 -43h-24q3 -6 8 -11q17 -18 64 -34q13 -5 18 -8q170 -84 194 -191
q3 -15 3 -30q0 -51 -40 -100q-67 -80 -297 -80q-23 0 -70 1q-31 1 -48 1q-70 0 -78 45q-1 4 -1 8q0 26 26 54q29 31 66 43q8 2 15 2q13 0 45 -6q24 -5 32 -5q61 0 124 12q69 13 76 31v2q0 8 -22 27q-62 51 -189 103q-2 0 -12 4q-101 31 -105 67q-2 6 -2 14q0 20 10 73z" />
    <glyph glyph-name="Scaron" unicode="&#x160;" horiz-adv-x="1642" 
d="M740 1570q318 0 442 -17q303 -41 303 -169q0 -20 -7 -42q-23 -69 -113 -69q-20 0 -44 4q-17 3 -178 52q-104 31 -227 31q-152 0 -332 -47q67 -128 218 -232q86 -60 297 -164q203 -101 296 -168q150 -107 216 -243q26 -54 26 -107q0 -99 -92 -195q-125 -130 -292 -152
q-149 -19 -284 -19q-202 0 -374 42q-371 90 -522 367q-45 83 -45 147q0 23 6 44q18 58 80 58q29 0 68 -13q42 -15 59 -55q10 -22 18 -84q17 -128 97 -176q178 -108 480 -133q65 -6 124 -6q234 0 359 90q78 56 78 125q0 88 -131 197q-89 73 -371 229q-34 19 -124 64
q-79 41 -124 67q-142 82 -219 171q-81 95 -97 120q-33 52 -33 96q0 19 6 37q16 47 134 89q132 47 146 61h156zM1161 1939q1 -6 1 -13q0 -50 -53 -123q-53 -75 -138 -143q-84 -68 -148 -89q-70 17 -154 85q-82 66 -134 145q-49 73 -49 128q0 8 1 15q8 66 102 79h4
q16 0 39 -23q20 -21 53 -69q96 -139 123 -167q31 29 143 160q35 42 56 60q24 20 41 20h4q100 -4 109 -65z" />
    <glyph glyph-name="scaron" unicode="&#x161;" horiz-adv-x="1247" 
d="M724 1088q73 -8 107 -18q123 -37 123 -183q-5 -9 -205 -27q-186 -17 -230 -17q62 -75 317 -220q226 -130 287 -252q49 -98 49 -187q0 -30 -6 -59q-25 -132 -164 -182q-119 -43 -258 -43q-69 0 -143 11q-208 30 -383 131q-75 43 -129 125q-41 64 -41 117q0 31 13 58
q0 35 18 58q17 22 43 26q6 1 12 1q18 0 34 -11q22 -16 29 -51q48 -241 474 -241q140 5 217 49q55 32 55 77q0 43 -51 99q-79 87 -334 190q-234 94 -296 197q-38 64 -38 118q0 85 94 145q88 57 309 106q27 -9 97 -17zM911 1539q1 -6 1 -13q0 -50 -53 -123q-53 -75 -138 -143
q-84 -68 -148 -89q-70 17 -154 85q-82 66 -134 145q-49 73 -49 128q0 8 1 15q8 66 102 79h4q16 0 39 -23q20 -21 53 -69q96 -139 123 -167q31 29 143 160q35 42 56 60q24 20 41 20h4q100 -4 109 -65z" />
    <glyph glyph-name="Tcommaaccent" unicode="&#x162;" horiz-adv-x="1833" 
d="M1076 1706q4 0 175 -17q145 -15 242 -34q263 -50 263 -143q0 -15 -7 -31q0 -72 -158 -72q-37 0 -83 4q-75 7 -183 26q-114 20 -117 20q-65 -430 -65 -910v-15q0 -84 3 -255q3 -168 3 -254q-28 -34 -60 -34q-28 0 -60 27q-43 38 -82 116q-44 86 -44 235v7q2 251 3 251
q-4 52 -4 113q0 126 18 289l26 204q16 127 23 204q-402 1 -750 10h-25q-25 0 -44 1q-92 6 -102 46q-4 17 -4 31q0 40 31 68q35 31 96 38q41 4 100 4q50 0 113 -3q111 -6 173 -6q23 0 40 1q25 1 323 79h156zM1131 -146q12 -5 23 -11q75 -41 75 -104q0 -11 -2 -22
q-4 -23 -17 -47q-29 -52 -100 -104q-101 -71 -215 -89q-31 -5 -59 -5q-60 0 -104 24q-18 9 -33 23q45 77 206 213q77 66 134 99q47 27 74 27q11 0 18 -4z" />
    <glyph glyph-name="tcommaaccent" unicode="&#x163;" horiz-adv-x="941" 
d="M431 1436h13q92 0 128 -67q26 -47 26 -131q0 -22 -2 -45q-5 -68 -32 -210q-24 -128 -24 -171q24 1 46 1q135 0 227 -26q133 -39 133 -126q0 -30 -16 -65q0 -63 -152 -63h-19q-48 1 -132 10q-63 6 -82 6h-5q0 -31 15 -137q17 -126 22 -185q4 -43 4 -77q0 -154 -69 -154
q-74 0 -94 37q-6 10 -28 116q-22 107 -49 279q-17 112 -63 132q-16 7 -62 13q-57 8 -96 18q-104 28 -104 66v4q4 32 83 81q22 14 74 44q50 28 74 44q81 51 89 88v283q0 192 95 235zM570 -128q12 -5 23 -11q75 -41 75 -104q0 -11 -2 -22q-4 -23 -17 -47q-29 -52 -100 -104
q-101 -71 -215 -89q-31 -5 -59 -5q-60 0 -104 24q-18 9 -33 23q45 77 206 213q77 66 134 99q47 27 74 27q11 0 18 -4z" />
    <glyph glyph-name="Tcaron" unicode="&#x164;" horiz-adv-x="1833" 
d="M1076 1706q4 0 175 -17q145 -15 242 -34q263 -50 263 -143q0 -15 -7 -31q0 -72 -158 -72q-37 0 -83 4q-75 7 -183 26q-114 20 -117 20q-65 -430 -65 -910v-15q0 -84 3 -255q3 -168 3 -254q-28 -34 -60 -34q-28 0 -60 27q-43 38 -82 116q-44 86 -44 235v7q2 251 3 251
q-4 52 -4 113q0 126 18 289l26 204q16 127 23 204q-402 1 -750 10h-25q-25 0 -44 1q-92 6 -102 46q-4 17 -4 31q0 40 31 68q35 31 96 38q41 4 100 4q50 0 113 -3q111 -6 173 -6q23 0 40 1q25 1 323 79h156zM1383 2142q1 -6 1 -13q0 -50 -53 -123q-53 -75 -138 -143
q-84 -68 -148 -89q-70 17 -154 85q-82 66 -134 145q-49 73 -49 128q0 8 1 15q8 66 102 79h4q16 0 39 -23q20 -21 53 -69q96 -139 123 -167q31 29 143 160q35 42 56 60q24 20 41 20h4q100 -4 109 -65z" />
    <glyph glyph-name="tcaron" unicode="&#x165;" horiz-adv-x="1104" 
d="M431 1436h13q92 0 128 -67q26 -47 26 -131q0 -22 -2 -45q-5 -68 -32 -210q-24 -128 -24 -171q24 1 46 1q135 0 227 -26q133 -39 133 -126q0 -30 -16 -65q0 -63 -152 -63h-19q-48 1 -132 10q-63 6 -82 6h-5q0 -31 15 -137q17 -126 22 -185q4 -43 4 -77q0 -154 -69 -154
q-74 0 -94 37q-6 10 -28 116q-22 107 -49 279q-17 112 -63 132q-16 7 -62 13q-57 8 -96 18q-104 28 -104 66v4q4 32 83 81q22 14 74 44q50 28 74 44q81 51 89 88v283q0 192 95 235zM845 1582q10 5 20 8q22 7 41 7q38 0 62 -31q6 -8 11 -18q11 -19 17 -46t6 -62q0 -37 -7 -82
q-21 -121 -79 -212q-15 -25 -32 -44q-36 -41 -76 -54q-15 -6 -32 -6q-8 40 -8 106q0 77 11 190q9 101 24 164q13 52 29 71q7 7 13 9z" />
    <glyph glyph-name="Tbar" unicode="&#x166;" horiz-adv-x="1833" 
d="M917 1004q2 13 3 25l26 204q16 127 23 204q-402 1 -750 10h-25q-25 0 -44 1q-92 6 -102 46q-4 17 -4 31q0 40 31 68q35 31 96 38q41 4 100 4q50 0 113 -3q111 -6 173 -6q23 0 40 1q25 1 323 79h156q4 0 175 -17q145 -15 242 -34q263 -50 263 -143q0 -15 -7 -31
q0 -72 -158 -72q-37 0 -83 4q-75 7 -183 26q-114 20 -117 20q-33 -220 -49 -453q12 0 25 -1q99 -6 177 -21q153 -30 153 -95v-4q-5 -86 -198 -104q-47 -4 -169 -4q-4 -112 -4 -228v-15q0 -84 3 -255q3 -168 3 -254q-28 -34 -60 -34q-28 0 -60 27q-43 38 -82 116
q-44 86 -44 235v7q2 251 3 251q-4 52 -4 113v28q-105 -9 -168 -9h-12q-18 0 -34 1q-189 11 -189 121v7q3 56 167 88q109 22 251 28z" />
    <glyph glyph-name="tbar" unicode="&#x167;" horiz-adv-x="941" 
d="M328 605q-18 101 -50 255q-16 7 -62 13q-57 8 -96 18q-104 28 -104 66v4q4 32 83 81q22 14 74 44l170 -4v41q0 273 88 313h13q92 0 128 -67q10 -18 10 -67q0 -80 -26 -242h10q97 0 239 -19q10 1 20 1q121 0 121 -81q0 -30 -16 -65q0 -63 -152 -63h-19q-48 1 -132 10
q-63 6 -82 6h-5q0 -141 6 -236q47 0 90 -2q87 -5 155 -18q133 -25 133 -80v-4q-6 -74 -177 -89q-48 -4 -185 -4q11 -144 15 -189q4 -43 4 -77q0 -154 -69 -154q-74 0 -94 37q-6 10 -28 116q-17 81 -36 256q-71 -6 -117 -6h-13q-15 1 -29 1q-164 9 -164 100v10q3 47 148 75
q68 13 149 20z" />
    <glyph glyph-name="Utilde" unicode="&#x168;" horiz-adv-x="1334" 
d="M1034 1729q10 1 20 1q103 0 103 -148q0 -50 -13 -141q-14 -99 -15 -124q-4 -98 -4 -188q0 -373 77 -595q39 -115 41 -169v-4q0 -76 -61 -76q-20 0 -45 8q-117 35 -169 196q-32 100 -40 270q-46 -49 -167 -237q-97 -152 -191 -215q-94 -64 -188 -64q-46 0 -92 16
q-137 47 -190 207q-40 123 -40 293q0 62 5 130q6 80 24 217q20 154 26 209q2 19 2 75v30q0 41 2 66q7 120 52 154q21 16 43 16q33 0 69 -35q49 -46 69 -106q3 -10 3 -37q0 -64 -18 -220q-36 -309 -42 -417q-4 -69 -4 -126q0 -139 26 -201q22 -52 64 -52q47 0 117 64
q212 192 325 572q6 20 67 341q55 290 66 290h78zM488 2150h7q58 0 120 -41q33 -23 105 -88q42 -40 70 -48q10 -3 18 -3q16 0 31 10q16 12 43 46q38 47 56 66q24 8 44 8q24 0 38 -12q19 -16 19 -51v-10q-3 -35 -21 -80q-18 -41 -39 -65q-64 -76 -128 -81q-5 -1 -10 -1
q-60 0 -127 61q-74 69 -111 92q-30 18 -54 18q-9 0 -19 -2q-26 -10 -64 -54q-11 -15 -40 -50l-51 -65q-18 -22 -35 -22h-3q-15 1 -28 22q-24 38 -24 93q0 80 59 164q30 42 65 66q39 27 79 27z" />
    <glyph glyph-name="utilde" unicode="&#x169;" 
d="M355 806q1 -13 1 -27q0 -76 -26 -205q-37 -178 -39 -216q-1 -9 -1 -16q0 -79 55 -79q68 0 110 94q27 63 53 207q30 164 43 207q30 94 79 94q147 0 234 -216q25 -63 60 -186q34 -123 50 -163q21 -52 21 -93q0 -29 -10 -53q-20 -49 -75 -49q-22 0 -50 8q0 60 -63 167
q-44 90 -119 190q-12 -216 -88 -299q-71 -77 -175 -96q-30 -6 -59 -6q-71 0 -132 36q-94 56 -124 180q-27 114 -27 243q0 71 8 147q13 123 52 193q46 83 126 83q86 -29 96 -145zM376 1420h7q50 0 103 -35q28 -20 90 -76q37 -35 61 -42q8 -2 16 -2q14 0 26 9q14 9 38 39
q32 41 47 57q22 7 39 7q20 0 33 -11q16 -14 16 -44v-8q-2 -31 -18 -69q-16 -35 -33 -57q-56 -65 -112 -70h-8q-52 0 -109 53q-64 59 -97 79q-25 16 -46 16q-8 0 -16 -3q-23 -8 -55 -46l-35 -43l-44 -56q-16 -19 -30 -19h-3q-13 1 -24 19q-21 33 -21 80q0 69 51 142
q26 36 56 56q33 24 68 24z" />
    <glyph glyph-name="Umacron" unicode="&#x16a;" horiz-adv-x="1334" 
d="M1034 1729q10 1 20 1q103 0 103 -148q0 -50 -13 -141q-14 -99 -15 -124q-4 -98 -4 -188q0 -373 77 -595q39 -115 41 -169v-4q0 -76 -61 -76q-20 0 -45 8q-117 35 -169 196q-32 100 -40 270q-46 -49 -167 -237q-97 -152 -191 -215q-94 -64 -188 -64q-46 0 -92 16
q-137 47 -190 207q-40 123 -40 293q0 62 5 130q6 80 24 217q20 154 26 209q2 19 2 75v30q0 41 2 66q7 120 52 154q21 16 43 16q33 0 69 -35q49 -46 69 -106q3 -10 3 -37q0 -64 -18 -220q-36 -309 -42 -417q-4 -69 -4 -126q0 -139 26 -201q22 -52 64 -52q47 0 117 64
q212 192 325 572q6 20 67 341q55 290 66 290h78zM852 2062q65 -6 105 -17q91 -25 91 -83q0 -27 -20 -62q-12 -21 -117 -21q-25 0 -57 2q-44 1 -117 7q-64 4 -74 4h-236q-13 0 -51 -10q-42 -11 -61 -13q-10 -2 -19 -2q-20 0 -33 8q-22 13 -22 50q0 100 244 131q81 10 185 12
h119q4 -2 63 -6z" />
    </font>
</defs>
</svg>
